<svg width="800" height="800" viewBox="0 0 24 24" data-name="Flat Line" xmlns="http://www.w3.org/2000/svg" class="icon flat-line"><path d="M20 3H4a1 1 0 0 0-1 1v16a1 1 0 0 0 1 1h16a1 1 0 0 0 1-1V4a1 1 0 0 0-1-1m-8 12a3 3 0 1 1 3-3 3 3 0 0 1-3 3" style="fill:#2ca9bc;stroke-width:2"/><path style="fill:none;stroke:#000;stroke-linecap:round;stroke-linejoin:round;stroke-width:2.5" d="M16.95 7h.1"/><path d="M12 9a3 3 0 1 1-3 3 3 3 0 0 1 3-3m9 11V4a1 1 0 0 0-1-1H4a1 1 0 0 0-1 1v16a1 1 0 0 0 1 1h16a1 1 0 0 0 1-1" style="fill:none;stroke:#000;stroke-linecap:round;stroke-linejoin:round;stroke-width:2"/></svg>