<svg width="234" xmlns="http://www.w3.org/2000/svg" height="270" id="screenshot-869a88b6-e825-8004-8006-26614a566077" viewBox="-6 -6 234 270" xmlns:xlink="http://www.w3.org/1999/xlink" fill="none" version="1.1"><g id="shape-869a88b6-e825-8004-8006-26614a566077"><defs><clipPath id="frame-clip-869a88b6-e825-8004-8006-26614a566077-render-1" class="frame-clip frame-clip-def"><rect rx="0" ry="0" x="0" y="0" width="222" height="258" transform="matrix(1.000000, 0.000000, 0.000000, 1.000000, 0.000000, 0.000000)"/></clipPath></defs><g class="frame-container-wrapper"><g class="frame-container-blur"><g class="frame-container-shadows"><g clip-path="url(#frame-clip-869a88b6-e825-8004-8006-26614a566077-render-1)" fill="none"><g class="fills" id="fills-869a88b6-e825-8004-8006-26614a566077"><rect width="222" height="258" class="frame-background" x="0" transform="matrix(1.000000, 0.000000, 0.000000, 1.000000, 0.000000, 0.000000)" style="fill: rgb(27, 154, 170); fill-opacity: 1;" ry="0" rx="0" y="0"/></g><g class="frame-children"><g id="shape-869a88b6-e825-8004-8006-26614053956d" rx="0" ry="0" style="fill: rgb(0, 0, 0);"><g id="shape-869a88b6-e825-8004-8006-26614055f656"><defs><filter id="filter-render-3" x="-0.21617646556871845" y="-0.8980696149232187" width="1.5188235173649243" height="3.155367075815725" filterUnits="objectBoundingBox" color-interpolation-filters="sRGB"><feFlood flood-opacity="0" result="BackgroundImageFix"/><feColorMatrix in="SourceAlpha" type="matrix" values="0 0 0 0 0 0 0 0 0 0 0 0 0 0 0 0 0 0 127 0"/><feOffset dx="4" dy="4"/><feGaussianBlur stdDeviation="2"/><feColorMatrix type="matrix" values="0 0 0 0 0 0 0 0 0 0 0 0 0 0 0 0 0 0 1 0"/><feBlend mode="normal" in2="BackgroundImageFix" result="filter_869a88b6-e825-8004-8006-26678645cf38"/><feBlend mode="normal" in="SourceGraphic" in2="filter_869a88b6-e825-8004-8006-26678645cf38" result="shape"/></filter><filter id="filter-shadow-render-3" x="-0.21617646556871845" y="-0.8980696149232187" width="1.5188235173649243" height="3.155367075815725" filterUnits="objectBoundingBox" color-interpolation-filters="sRGB"><feFlood flood-opacity="0" result="BackgroundImageFix"/><feColorMatrix in="SourceAlpha" type="matrix" values="0 0 0 0 0 0 0 0 0 0 0 0 0 0 0 0 0 0 127 0"/><feOffset dx="4" dy="4"/><feGaussianBlur stdDeviation="2"/><feColorMatrix type="matrix" values="0 0 0 0 0 0 0 0 0 0 0 0 0 0 0 0 0 0 1 0"/><feBlend mode="normal" in2="BackgroundImageFix" result="filter_869a88b6-e825-8004-8006-26678645cf38"/><feBlend mode="normal" in="SourceGraphic" in2="filter_869a88b6-e825-8004-8006-26678645cf38" result="shape"/></filter></defs><g class="fills" id="fills-869a88b6-e825-8004-8006-26614055f656"><path d="M104.49227905273438,78.5181884765625C101.71098327636719,80.927001953125,101.1431884765625,82.281005859375,101.71406555175781,84.9976806640625C102.22532653808594,87.3543701171875,102.19496154785156,87.4996337890625,100.59178161621094,89.7205810546875C96.90582275390625,94.8079833984375,91.14553833007812,99.78271484375,87.7745361328125,100.7117919921875L86.08071899414062,101.1444091796875L85.63482666015625,99.6934814453125C84.81640625,96.9423828125,85.00767517089844,94.665771484375,86.16452026367188,93.2177734375C88.36076354980469,90.5255126953125,87.92906188964844,86.641357421875,85.05581665039062,84.114501953125C83.73609924316406,82.9727783203125,82.10987854003906,83.0103759765625,80.21726989746094,84.25048828125C79.48039245605469,84.693115234375,78.77388000488281,84.990478515625,78.57331848144531,84.8746337890625C78.37275695800781,84.7589111328125,77.96809387207031,82.6806640625,77.64764404296875,80.2713623046875C77.18270874023438,76.2596435546875,77.22393798828125,75.6324462890625,78.31141662597656,73.6561279296875C79.7650146484375,70.860595703125,79.75860595703125,68.7410888671875,78.26690673828125,66.4150390625C76.49154663085938,63.65399169921875,76.19413757324219,63.42803955078125,74.44071960449219,63.500732421875C73.04541015625,63.5089111328125,72.49935913085938,63.89892578125,70.78956604003906,65.84130859375L68.78814697265625,68.1036376953125L66.74240112304688,66.922607421875L64.69667053222656,65.741455078125L63.559326171875,67.526123046875C62.556060791015625,69.171142578125,62.532562255859375,69.2119140625,63.52497863769531,68.048828125C64.35980224609375,67.0660400390625,64.89213562011719,66.8851318359375,65.6611328125,67.2205810546875C66.22958374023438,67.4403076171875,66.76078796386719,67.90966796875,66.86051940917969,68.2928466796875C66.96025085449219,68.6759033203125,67.3642578125,69.180419921875,67.765380859375,69.4119873046875C68.20661926269531,69.666748046875,68.71034240722656,70.5543212890625,68.94303894042969,71.4481201171875C69.30870056152344,72.852783203125,69.17062377929688,73.369873046875,67.91581726074219,75.3580322265625C66.52006530761719,77.5902099609375,66.50633239746094,77.79931640625,66.8721923828125,83.001708984375C67.13479614257812,85.974365234375,67.20945739746094,89.2725830078125,67.14076232910156,90.31787109375C67.04855346679688,91.4039306640625,67.09043884277344,92.350341796875,67.21078491210938,92.419921875C67.61190795898438,92.6514892578125,69.79707336425781,86.6434326171875,70.9222412109375,82.193359375C72.485107421875,76.1514892578125,72.58418273925781,74.9609375,71.37615966796875,73.0699462890625C69.71426391601562,70.48291015625,69.81045532226562,69.0194091796875,71.78550720214844,66.52490234375C73.94163513183594,63.809326171875,74.8819580078125,63.7554931640625,76.62118530273438,66.115966796875C78.78105163574219,69.044677734375,78.84642028808594,69.950439453125,77.16876220703125,72.6710205078125L75.67904663085938,75.06591796875L76.60603332519531,82.816650390625C77.65223693847656,91.287109375,78.47019958496094,96.26220703125,78.82833862304688,96.19775390625C78.95555114746094,96.16259765625,79.29817199707031,95.3839111328125,79.6075439453125,94.4775390625C80.041259765625,93.26318359375,80.00912475585938,92.485107421875,79.38505554199219,91.5279541015625C78.17704772949219,89.636962890625,78.56199645996094,87.5806884765625,80.52619934082031,85.568115234375C82.08815002441406,83.974365234375,82.15176391601562,83.9569091796875,83.73277282714844,84.9239501953125C86.79794311523438,86.747802734375,87.31784057617188,89.92333984375,84.95826721191406,92.2501220703125C83.82203674316406,93.3843994140625,83.80142211914062,93.697998046875,84.15289306640625,97.5357666015625C84.35986328125,99.7711181640625,84.59721374511719,101.8612060546875,84.68031311035156,102.180419921875C84.80929565429688,103.068603515625,88.37799072265625,101.982421875,91.05445861816406,100.2183837890625C94.14291381835938,98.203857421875,97.65533447265625,94.806640625,101.11212158203125,90.6719970703125L103.78106689453125,87.4388427734375L103.17584228515625,85.244873046875C102.70358276367188,83.5616455078125,102.73506164550781,82.7659912109375,103.392822265625,81.6268310546875C103.86265563964844,80.81298828125,104.58689880371094,79.9290771484375,105.02238464355469,79.6380615234375C105.43437194824219,79.3875732421875,106.09101867675781,78.898681640625,106.44627380371094,78.561279296875C106.88862609863281,78.1656494140625,107.4874267578125,78.2401123046875,108.36990356445312,78.7496337890625C109.85406494140625,79.6065673828125,110.7950439453125,81.1263427734375,109.7813720703125,81.029296875C109.30976867675781,80.9197998046875,109.232421875,81.1463623046875,109.43186950683594,81.91259765625C109.79066467285156,83.4217529296875,108.22471618652344,85.3929443359375,107.00759887695312,84.9073486328125C106.25520324707031,84.6356201171875,106.13198852539062,84.293212890625,106.46087646484375,83.7236328125C106.71928405761719,83.2760009765625,106.6968994140625,82.6663818359375,106.469970703125,82.318359375C106.21954345703125,82.010986328125,106.15017700195312,81.482666015625,106.36160278320312,81.116455078125C106.54953002929688,80.791015625,106.99476623535156,80.668212890625,107.31565856933594,80.853515625C107.63656616210938,81.038818359375,108.03480529785156,80.9974365234375,108.15226745605469,80.7940673828125C108.55162048339844,80.102294921875,107.36775207519531,79.744384765625,106.11228942871094,80.1588134765625C104.92044067382812,80.5556640625,104.89694213867188,80.596435546875,105.3302001953125,81.6060791015625C105.72334289550781,82.592529296875,105.67636108398438,82.6739501953125,104.72917175292969,82.832275390625C104.16360473632812,82.885498046875,103.63128662109375,83.0665283203125,103.56080627441406,83.1885986328125C103.25541687011719,83.717529296875,106.09541320800781,86.11669921875,107.22943115234375,86.283203125C108.156005859375,86.4383544921875,108.50439453125,86.2054443359375,109.28648376464844,84.7581787109375C109.78666687011719,83.7991943359375,110.13328552246094,82.64306640625,110.04043579101562,82.1553955078125C109.79510498046875,80.8203125,110.62373352050781,81.515625,110.90916442871094,82.8740234375C111.22784423828125,84.3599853515625,110.04640197753906,86.4990234375,108.32797241210938,87.6226806640625C107.09201049804688,88.3739013671875,107.03816223144531,88.559814453125,107.03038024902344,93.1124267578125C107.07110595703125,104.5286865234375,108.0238037109375,110.9378662109375,110.35275268554688,114.778076171875C111.78083801269531,117.12158203125,111.90116882324219,117.191162109375,113.55311584472656,115.81201171875C114.36734008789062,115.142822265625,114.50540161132812,114.6258544921875,114.33741760253906,113.0640869140625C114.08058166503906,110.63720703125,114.9732666015625,109.091064453125,117.18965148925781,108.30908203125C119.9217529296875,107.282470703125,122.07696533203125,109.0150146484375,121.91781616210938,112.0697021484375C121.79702758789062,114.2242431640625,121.17649841308594,115.11376953125,119.21452331542969,115.8255615234375C117.72126770019531,116.3740234375,117.5167236328125,116.6356201171875,117.219970703125,117.9833984375C116.87223815917969,119.7899169921875,117.08943176269531,119.9696044921875,119.74305725097656,119.81982421875C123.7919921875,119.661865234375,130.3179473876953,116.9737548828125,138.6310272216797,112.1165771484375C141.8329620361328,110.276123046875,144.6738739013672,108.2271728515625,143.69631958007812,108.5308837890625C143.02015686035156,108.6829833984375,143.29563903808594,106.0751953125,144.0943603515625,104.6917724609375C144.72862243652344,103.59326171875,145.7130584716797,103.18505859375,148.68182373046875,102.6748046875C150.51260375976562,102.37548828125,152.937744140625,104.752197265625,151.9287109375,105.8514404296875C151.7310333251953,106.008544921875,151.55572509765625,106.7752685546875,151.52426147460938,107.5709228515625C151.38397216796875,109.388671875,150.07354736328125,110.639404296875,147.72019958496094,111.2880859375L145.83555603027344,111.773193359375L144.21530151367188,116.1544189453125C142.29940795898438,121.23291015625,140.96058654785156,127.349853515625,141.089111328125,130.462158203125C141.16888427734375,132.7325439453125,141.9059600830078,136.087646484375,142.34719848632812,136.3424072265625C142.467529296875,136.411865234375,144.4764862060547,135.6187744140625,146.79371643066406,134.5694580078125C150.78526306152344,132.7509765625,151.0465545654297,132.5762939453125,151.7925262451172,130.7283935546875C152.84786987304688,127.97412109375,153.8294219970703,127.2930908203125,156.2315216064453,127.486328125C159.2089385986328,127.7947998046875,160.51890563964844,128.7681884765625,160.0009765625,130.313720703125C159.8932647705078,130.685546875,159.63087463378906,131.510498046875,159.45556640625,132.27734375C158.94052124023438,134.0958251953125,157.15162658691406,135.341552734375,154.99020385742188,135.287109375C153.55479431152344,135.272216796875,153.03909301757812,135.5169677734375,152.4752960205078,136.4935302734375C152.07594299316406,137.1851806640625,151.20785522460938,138.040283203125,150.5013427734375,138.337646484375C148.75656127929688,139.2291259765625,154.5777587890625,137.7615966796875,158.01637268066406,136.4375C159.5967254638672,135.8309326171875,160.22300720214844,135.4871826171875,159.50674438476562,135.6162109375C157.10353088378906,136.0732421875,158.44320678710938,135.32763671875,164.72161865234375,132.6051025390625C170.84933471679688,129.958251953125,170.91293334960938,129.9407958984375,172.0376434326172,127.71484375C173.373779296875,125.1226806640625,174.53639221191406,124.2205810546875,176.0314178466797,124.595458984375C176.64683532714844,124.7337646484375,177.84445190429688,124.8826904296875,178.7779083251953,124.933349609375C181.01956176757812,125.0340576171875,181.28549194335938,126.0556640625,179.93162536621094,129.2342529296875C178.6081085205078,132.267822265625,177.80076599121094,132.8323974609375,174.68238830566406,132.76806640625C172.52096557617188,132.7137451171875,172.28317260742188,132.84765625,168.80111694335938,136.0997314453125C165.45314025878906,139.212158203125,160.78675842285156,144.3302001953125,159.94107055664062,145.794921875C159.72964477539062,146.1611328125,162.72988891601562,144.8553466796875,166.5208740234375,142.9208984375C173.36595153808594,139.4947509765625,173.50003051757812,139.3551025390625,174.60125732421875,137.1697998046875C176.0617218017578,134.2696533203125,177.3544158935547,133.60546875,180.4951629638672,134.279541015625C183.45196533203125,134.901611328125,183.86572265625,135.574462890625,182.83786010742188,137.91064453125C182.25344848632812,139.2008056640625,182.38751220703125,139.0611572265625,183.41427612304688,137.37548828125C184.83352661132812,135.1025390625,184.86676025390625,135.230224609375,182.00216674804688,133.5220947265625L180.2606964111328,132.46240234375L181.04103088378906,130.091796875C181.9857940673828,127.4364013671875,181.8561553955078,124.9744873046875,180.7467498779297,124.1170654296875C179.36341857910156,122.9927978515625,172.8448028564453,123.3524169921875,173.1439666748047,124.501708984375C173.23394775390625,124.7164306640625,173.0431365966797,124.7689208984375,172.80245971679688,124.6300048828125C172.4815673828125,124.4447021484375,171.82778930664062,125.20654296875,170.95860290527344,126.7120361328125C169.5021209716797,129.2347412109375,168.3463897705078,130.0322265625,163.31080627441406,131.8990478515625C161.32534790039062,132.651611328125,160.2451934814453,132.2991943359375,160.9264373779297,131.1192626953125C161.09088134765625,130.83447265625,161.04212951660156,129.9925537109375,160.8025665283203,129.203125C160.2569580078125,127.369140625,158.29144287109375,126.234375,155.85211181640625,126.290771484375C153.2219696044922,126.3997802734375,151.49667358398438,127.6280517578125,150.33761596679688,130.376708984375C149.38021850585938,132.5906982421875,149.31661987304688,132.6082763671875,146.186279296875,133.67626953125C143.20663452148438,134.6685791015625,142.99920654296875,134.6573486328125,142.73326110839844,133.6357421875C141.7360076904297,129.804931640625,142.19189453125,125.4024658203125,144.1999969482422,119.2379150390625C146.01617431640625,113.7763671875,146.43214416503906,113.1484375,148.8697052001953,112.168701171875C150.40994262695312,111.5389404296875,151.20068359375,110.910400390625,151.92892456054688,109.6490478515625C152.46922302246094,108.7132568359375,152.8490753173828,107.684814453125,152.7894744873047,107.3248291015625C152.70635986328125,107.005615234375,152.81805419921875,106.25634765625,153.06671142578125,105.640380859375C153.5101776123047,104.5943603515625,153.3732147216797,104.4610595703125,150.75616455078125,102.787353515625L147.97865295410156,101.02099609375L145.89234924316406,102.040771484375C143.9567413330078,102.98486328125,143.7756805419922,103.205810546875,142.34844970703125,106.233642578125C140.69606018066406,109.836669921875,141.57388305664062,109.1500244140625,131.9222412109375,114.1024169921875C127.55195617675781,116.299072265625,121.46546936035156,118.3187255859375,120.58299255371094,117.8092041015625C120.38243103027344,117.693359375,120.84539794921875,116.984130859375,121.62637329101562,116.187255859375C122.80958557128906,114.9716796875,123.00439453125,114.5416259765625,123.07820129394531,112.4683837890625C123.20010375976562,109.6634521484375,122.09579467773438,107.778076171875,119.87188720703125,107.0908203125C118.99229431152344,106.854248046875,118.19291687011719,106.6640625,118.06570434570312,106.6990966796875C118.00210571289062,106.7166748046875,117.01081848144531,107.2293701171875,115.91580200195312,107.7364501953125C113.74240112304688,108.814453125,112.7763671875,110.209716796875,112.74954223632812,112.2015380859375C112.73646545410156,113.9842529296875,112.53190612792969,114.2459716796875,111.769775390625,113.805908203125C110.44606018066406,113.0416259765625,108.88656616210938,107.3128662109375,108.6439208984375,102.4530029296875C108.59805297851562,101.8839111328125,108.52691650390625,100.432373046875,108.45867919921875,99.253662109375C108.39042663574219,98.074951171875,108.34500122070312,95.281982421875,108.32884216308594,92.9940185546875C108.34237670898438,88.9873046875,108.37274169921875,88.842041015625,109.69578552246094,88.0325927734375C111.41421508789062,86.908935546875,112.40884399414062,84.445068359375,112.16860961914062,82.0821533203125C111.99089050292969,80.3519287109375,111.85392761230469,80.2186279296875,109.12628173828125,78.643798828125L106.27828979492188,76.99951171875L104.49227905273438,78.5181884765625ZM173.2403106689453,136.6553955078125C172.6530303955078,137.672607421875,171.62449645996094,138.43505859375,169.82298278808594,139.239501953125C168.38645935058594,139.8748779296875,167.06739807128906,140.306884765625,166.9069366455078,140.2142333984375C166.7063751220703,140.098388671875,167.32003784179688,139.3134765625,168.27520751953125,138.400146484375C169.20689392089844,137.5274658203125,170.3196258544922,136.4339599609375,170.7688446044922,135.9337158203125C171.8179931640625,134.857666015625,173.56565856933594,134.2391357421875,173.8424530029297,134.7786865234375C173.97254943847656,135.0166015625,173.71014404296875,135.841552734375,173.2403106689453,136.6553955078125ZM69.82192993164062,79.9305419921875C68.90242004394531,83.468505859375,68.79183959960938,83.5675048828125,68.55160522460938,81.2044677734375C68.22828674316406,78.522216796875,68.53877258300781,76.9654541015625,69.52430725097656,75.9068603515625C70.3052978515625,75.1099853515625,70.34541320800781,75.1331787109375,70.40391540527344,76.1434326171875C70.44978332519531,76.71240234375,70.212646484375,78.4200439453125,69.82192993164062,79.9305419921875Z" filter="url(#filter-render-3)" style="fill: rgb(0, 0, 0); fill-opacity: 1;"/></g><g id="strokes-60595b3f-ee93-80d2-8007-0a25ce4e836d-869a88b6-e825-8004-8006-26614055f656" class="strokes"><g class="outer-stroke-shape"><defs><mask id="outer-stroke-render-3-869a88b6-e825-8004-8006-26614055f656-0" x="51.023858989209444" y="53.666941060146215" width="141.7140385531138" height="103.14574751742472" maskUnits="userSpaceOnUse"><use href="#stroke-shape-render-3-869a88b6-e825-8004-8006-26614055f656-0" style="fill: none; stroke: white; stroke-width: 2;"/><use href="#stroke-shape-render-3-869a88b6-e825-8004-8006-26614055f656-0" style="fill: black; stroke: none;"/></mask><path d="M104.49227905273438,78.5181884765625C101.71098327636719,80.927001953125,101.1431884765625,82.281005859375,101.71406555175781,84.9976806640625C102.22532653808594,87.3543701171875,102.19496154785156,87.4996337890625,100.59178161621094,89.7205810546875C96.90582275390625,94.8079833984375,91.14553833007812,99.78271484375,87.7745361328125,100.7117919921875L86.08071899414062,101.1444091796875L85.63482666015625,99.6934814453125C84.81640625,96.9423828125,85.00767517089844,94.665771484375,86.16452026367188,93.2177734375C88.36076354980469,90.5255126953125,87.92906188964844,86.641357421875,85.05581665039062,84.114501953125C83.73609924316406,82.9727783203125,82.10987854003906,83.0103759765625,80.21726989746094,84.25048828125C79.48039245605469,84.693115234375,78.77388000488281,84.990478515625,78.57331848144531,84.8746337890625C78.37275695800781,84.7589111328125,77.96809387207031,82.6806640625,77.64764404296875,80.2713623046875C77.18270874023438,76.2596435546875,77.22393798828125,75.6324462890625,78.31141662597656,73.6561279296875C79.7650146484375,70.860595703125,79.75860595703125,68.7410888671875,78.26690673828125,66.4150390625C76.49154663085938,63.65399169921875,76.19413757324219,63.42803955078125,74.44071960449219,63.500732421875C73.04541015625,63.5089111328125,72.49935913085938,63.89892578125,70.78956604003906,65.84130859375L68.78814697265625,68.1036376953125L66.74240112304688,66.922607421875L64.69667053222656,65.741455078125L63.559326171875,67.526123046875C62.556060791015625,69.171142578125,62.532562255859375,69.2119140625,63.52497863769531,68.048828125C64.35980224609375,67.0660400390625,64.89213562011719,66.8851318359375,65.6611328125,67.2205810546875C66.22958374023438,67.4403076171875,66.76078796386719,67.90966796875,66.86051940917969,68.2928466796875C66.96025085449219,68.6759033203125,67.3642578125,69.180419921875,67.765380859375,69.4119873046875C68.20661926269531,69.666748046875,68.71034240722656,70.5543212890625,68.94303894042969,71.4481201171875C69.30870056152344,72.852783203125,69.17062377929688,73.369873046875,67.91581726074219,75.3580322265625C66.52006530761719,77.5902099609375,66.50633239746094,77.79931640625,66.8721923828125,83.001708984375C67.13479614257812,85.974365234375,67.20945739746094,89.2725830078125,67.14076232910156,90.31787109375C67.04855346679688,91.4039306640625,67.09043884277344,92.350341796875,67.21078491210938,92.419921875C67.61190795898438,92.6514892578125,69.79707336425781,86.6434326171875,70.9222412109375,82.193359375C72.485107421875,76.1514892578125,72.58418273925781,74.9609375,71.37615966796875,73.0699462890625C69.71426391601562,70.48291015625,69.81045532226562,69.0194091796875,71.78550720214844,66.52490234375C73.94163513183594,63.809326171875,74.8819580078125,63.7554931640625,76.62118530273438,66.115966796875C78.78105163574219,69.044677734375,78.84642028808594,69.950439453125,77.16876220703125,72.6710205078125L75.67904663085938,75.06591796875L76.60603332519531,82.816650390625C77.65223693847656,91.287109375,78.47019958496094,96.26220703125,78.82833862304688,96.19775390625C78.95555114746094,96.16259765625,79.29817199707031,95.3839111328125,79.6075439453125,94.4775390625C80.041259765625,93.26318359375,80.00912475585938,92.485107421875,79.38505554199219,91.5279541015625C78.17704772949219,89.636962890625,78.56199645996094,87.5806884765625,80.52619934082031,85.568115234375C82.08815002441406,83.974365234375,82.15176391601562,83.9569091796875,83.73277282714844,84.9239501953125C86.79794311523438,86.747802734375,87.31784057617188,89.92333984375,84.95826721191406,92.2501220703125C83.82203674316406,93.3843994140625,83.80142211914062,93.697998046875,84.15289306640625,97.5357666015625C84.35986328125,99.7711181640625,84.59721374511719,101.8612060546875,84.68031311035156,102.180419921875C84.80929565429688,103.068603515625,88.37799072265625,101.982421875,91.05445861816406,100.2183837890625C94.14291381835938,98.203857421875,97.65533447265625,94.806640625,101.11212158203125,90.6719970703125L103.78106689453125,87.4388427734375L103.17584228515625,85.244873046875C102.70358276367188,83.5616455078125,102.73506164550781,82.7659912109375,103.392822265625,81.6268310546875C103.86265563964844,80.81298828125,104.58689880371094,79.9290771484375,105.02238464355469,79.6380615234375C105.43437194824219,79.3875732421875,106.09101867675781,78.898681640625,106.44627380371094,78.561279296875C106.88862609863281,78.1656494140625,107.4874267578125,78.2401123046875,108.36990356445312,78.7496337890625C109.85406494140625,79.6065673828125,110.7950439453125,81.1263427734375,109.7813720703125,81.029296875C109.30976867675781,80.9197998046875,109.232421875,81.1463623046875,109.43186950683594,81.91259765625C109.79066467285156,83.4217529296875,108.22471618652344,85.3929443359375,107.00759887695312,84.9073486328125C106.25520324707031,84.6356201171875,106.13198852539062,84.293212890625,106.46087646484375,83.7236328125C106.71928405761719,83.2760009765625,106.6968994140625,82.6663818359375,106.469970703125,82.318359375C106.21954345703125,82.010986328125,106.15017700195312,81.482666015625,106.36160278320312,81.116455078125C106.54953002929688,80.791015625,106.99476623535156,80.668212890625,107.31565856933594,80.853515625C107.63656616210938,81.038818359375,108.03480529785156,80.9974365234375,108.15226745605469,80.7940673828125C108.55162048339844,80.102294921875,107.36775207519531,79.744384765625,106.11228942871094,80.1588134765625C104.92044067382812,80.5556640625,104.89694213867188,80.596435546875,105.3302001953125,81.6060791015625C105.72334289550781,82.592529296875,105.67636108398438,82.6739501953125,104.72917175292969,82.832275390625C104.16360473632812,82.885498046875,103.63128662109375,83.0665283203125,103.56080627441406,83.1885986328125C103.25541687011719,83.717529296875,106.09541320800781,86.11669921875,107.22943115234375,86.283203125C108.156005859375,86.4383544921875,108.50439453125,86.2054443359375,109.28648376464844,84.7581787109375C109.78666687011719,83.7991943359375,110.13328552246094,82.64306640625,110.04043579101562,82.1553955078125C109.79510498046875,80.8203125,110.62373352050781,81.515625,110.90916442871094,82.8740234375C111.22784423828125,84.3599853515625,110.04640197753906,86.4990234375,108.32797241210938,87.6226806640625C107.09201049804688,88.3739013671875,107.03816223144531,88.559814453125,107.03038024902344,93.1124267578125C107.07110595703125,104.5286865234375,108.0238037109375,110.9378662109375,110.35275268554688,114.778076171875C111.78083801269531,117.12158203125,111.90116882324219,117.191162109375,113.55311584472656,115.81201171875C114.36734008789062,115.142822265625,114.50540161132812,114.6258544921875,114.33741760253906,113.0640869140625C114.08058166503906,110.63720703125,114.9732666015625,109.091064453125,117.18965148925781,108.30908203125C119.9217529296875,107.282470703125,122.07696533203125,109.0150146484375,121.91781616210938,112.0697021484375C121.79702758789062,114.2242431640625,121.17649841308594,115.11376953125,119.21452331542969,115.8255615234375C117.72126770019531,116.3740234375,117.5167236328125,116.6356201171875,117.219970703125,117.9833984375C116.87223815917969,119.7899169921875,117.08943176269531,119.9696044921875,119.74305725097656,119.81982421875C123.7919921875,119.661865234375,130.3179473876953,116.9737548828125,138.6310272216797,112.1165771484375C141.8329620361328,110.276123046875,144.6738739013672,108.2271728515625,143.69631958007812,108.5308837890625C143.02015686035156,108.6829833984375,143.29563903808594,106.0751953125,144.0943603515625,104.6917724609375C144.72862243652344,103.59326171875,145.7130584716797,103.18505859375,148.68182373046875,102.6748046875C150.51260375976562,102.37548828125,152.937744140625,104.752197265625,151.9287109375,105.8514404296875C151.7310333251953,106.008544921875,151.55572509765625,106.7752685546875,151.52426147460938,107.5709228515625C151.38397216796875,109.388671875,150.07354736328125,110.639404296875,147.72019958496094,111.2880859375L145.83555603027344,111.773193359375L144.21530151367188,116.1544189453125C142.29940795898438,121.23291015625,140.96058654785156,127.349853515625,141.089111328125,130.462158203125C141.16888427734375,132.7325439453125,141.9059600830078,136.087646484375,142.34719848632812,136.3424072265625C142.467529296875,136.411865234375,144.4764862060547,135.6187744140625,146.79371643066406,134.5694580078125C150.78526306152344,132.7509765625,151.0465545654297,132.5762939453125,151.7925262451172,130.7283935546875C152.84786987304688,127.97412109375,153.8294219970703,127.2930908203125,156.2315216064453,127.486328125C159.2089385986328,127.7947998046875,160.51890563964844,128.7681884765625,160.0009765625,130.313720703125C159.8932647705078,130.685546875,159.63087463378906,131.510498046875,159.45556640625,132.27734375C158.94052124023438,134.0958251953125,157.15162658691406,135.341552734375,154.99020385742188,135.287109375C153.55479431152344,135.272216796875,153.03909301757812,135.5169677734375,152.4752960205078,136.4935302734375C152.07594299316406,137.1851806640625,151.20785522460938,138.040283203125,150.5013427734375,138.337646484375C148.75656127929688,139.2291259765625,154.5777587890625,137.7615966796875,158.01637268066406,136.4375C159.5967254638672,135.8309326171875,160.22300720214844,135.4871826171875,159.50674438476562,135.6162109375C157.10353088378906,136.0732421875,158.44320678710938,135.32763671875,164.72161865234375,132.6051025390625C170.84933471679688,129.958251953125,170.91293334960938,129.9407958984375,172.0376434326172,127.71484375C173.373779296875,125.1226806640625,174.53639221191406,124.2205810546875,176.0314178466797,124.595458984375C176.64683532714844,124.7337646484375,177.84445190429688,124.8826904296875,178.7779083251953,124.933349609375C181.01956176757812,125.0340576171875,181.28549194335938,126.0556640625,179.93162536621094,129.2342529296875C178.6081085205078,132.267822265625,177.80076599121094,132.8323974609375,174.68238830566406,132.76806640625C172.52096557617188,132.7137451171875,172.28317260742188,132.84765625,168.80111694335938,136.0997314453125C165.45314025878906,139.212158203125,160.78675842285156,144.3302001953125,159.94107055664062,145.794921875C159.72964477539062,146.1611328125,162.72988891601562,144.8553466796875,166.5208740234375,142.9208984375C173.36595153808594,139.4947509765625,173.50003051757812,139.3551025390625,174.60125732421875,137.1697998046875C176.0617218017578,134.2696533203125,177.3544158935547,133.60546875,180.4951629638672,134.279541015625C183.45196533203125,134.901611328125,183.86572265625,135.574462890625,182.83786010742188,137.91064453125C182.25344848632812,139.2008056640625,182.38751220703125,139.0611572265625,183.41427612304688,137.37548828125C184.83352661132812,135.1025390625,184.86676025390625,135.230224609375,182.00216674804688,133.5220947265625L180.2606964111328,132.46240234375L181.04103088378906,130.091796875C181.9857940673828,127.4364013671875,181.8561553955078,124.9744873046875,180.7467498779297,124.1170654296875C179.36341857910156,122.9927978515625,172.8448028564453,123.3524169921875,173.1439666748047,124.501708984375C173.23394775390625,124.7164306640625,173.0431365966797,124.7689208984375,172.80245971679688,124.6300048828125C172.4815673828125,124.4447021484375,171.82778930664062,125.20654296875,170.95860290527344,126.7120361328125C169.5021209716797,129.2347412109375,168.3463897705078,130.0322265625,163.31080627441406,131.8990478515625C161.32534790039062,132.651611328125,160.2451934814453,132.2991943359375,160.9264373779297,131.1192626953125C161.09088134765625,130.83447265625,161.04212951660156,129.9925537109375,160.8025665283203,129.203125C160.2569580078125,127.369140625,158.29144287109375,126.234375,155.85211181640625,126.290771484375C153.2219696044922,126.3997802734375,151.49667358398438,127.6280517578125,150.33761596679688,130.376708984375C149.38021850585938,132.5906982421875,149.31661987304688,132.6082763671875,146.186279296875,133.67626953125C143.20663452148438,134.6685791015625,142.99920654296875,134.6573486328125,142.73326110839844,133.6357421875C141.7360076904297,129.804931640625,142.19189453125,125.4024658203125,144.1999969482422,119.2379150390625C146.01617431640625,113.7763671875,146.43214416503906,113.1484375,148.8697052001953,112.168701171875C150.40994262695312,111.5389404296875,151.20068359375,110.910400390625,151.92892456054688,109.6490478515625C152.46922302246094,108.7132568359375,152.8490753173828,107.684814453125,152.7894744873047,107.3248291015625C152.70635986328125,107.005615234375,152.81805419921875,106.25634765625,153.06671142578125,105.640380859375C153.5101776123047,104.5943603515625,153.3732147216797,104.4610595703125,150.75616455078125,102.787353515625L147.97865295410156,101.02099609375L145.89234924316406,102.040771484375C143.9567413330078,102.98486328125,143.7756805419922,103.205810546875,142.34844970703125,106.233642578125C140.69606018066406,109.836669921875,141.57388305664062,109.1500244140625,131.9222412109375,114.1024169921875C127.55195617675781,116.299072265625,121.46546936035156,118.3187255859375,120.58299255371094,117.8092041015625C120.38243103027344,117.693359375,120.84539794921875,116.984130859375,121.62637329101562,116.187255859375C122.80958557128906,114.9716796875,123.00439453125,114.5416259765625,123.07820129394531,112.4683837890625C123.20010375976562,109.6634521484375,122.09579467773438,107.778076171875,119.87188720703125,107.0908203125C118.99229431152344,106.854248046875,118.19291687011719,106.6640625,118.06570434570312,106.6990966796875C118.00210571289062,106.7166748046875,117.01081848144531,107.2293701171875,115.91580200195312,107.7364501953125C113.74240112304688,108.814453125,112.7763671875,110.209716796875,112.74954223632812,112.2015380859375C112.73646545410156,113.9842529296875,112.53190612792969,114.2459716796875,111.769775390625,113.805908203125C110.44606018066406,113.0416259765625,108.88656616210938,107.3128662109375,108.6439208984375,102.4530029296875C108.59805297851562,101.8839111328125,108.52691650390625,100.432373046875,108.45867919921875,99.253662109375C108.39042663574219,98.074951171875,108.34500122070312,95.281982421875,108.32884216308594,92.9940185546875C108.34237670898438,88.9873046875,108.37274169921875,88.842041015625,109.69578552246094,88.0325927734375C111.41421508789062,86.908935546875,112.40884399414062,84.445068359375,112.16860961914062,82.0821533203125C111.99089050292969,80.3519287109375,111.85392761230469,80.2186279296875,109.12628173828125,78.643798828125L106.27828979492188,76.99951171875L104.49227905273438,78.5181884765625ZM173.2403106689453,136.6553955078125C172.6530303955078,137.672607421875,171.62449645996094,138.43505859375,169.82298278808594,139.239501953125C168.38645935058594,139.8748779296875,167.06739807128906,140.306884765625,166.9069366455078,140.2142333984375C166.7063751220703,140.098388671875,167.32003784179688,139.3134765625,168.27520751953125,138.400146484375C169.20689392089844,137.5274658203125,170.3196258544922,136.4339599609375,170.7688446044922,135.9337158203125C171.8179931640625,134.857666015625,173.56565856933594,134.2391357421875,173.8424530029297,134.7786865234375C173.97254943847656,135.0166015625,173.71014404296875,135.841552734375,173.2403106689453,136.6553955078125ZM69.82192993164062,79.9305419921875C68.90242004394531,83.468505859375,68.79183959960938,83.5675048828125,68.55160522460938,81.2044677734375C68.22828674316406,78.522216796875,68.53877258300781,76.9654541015625,69.52430725097656,75.9068603515625C70.3052978515625,75.1099853515625,70.34541320800781,75.1331787109375,70.40391540527344,76.1434326171875C70.44978332519531,76.71240234375,70.212646484375,78.4200439453125,69.82192993164062,79.9305419921875Z" id="stroke-shape-render-3-869a88b6-e825-8004-8006-26614055f656-0"/></defs><use href="#stroke-shape-render-3-869a88b6-e825-8004-8006-26614055f656-0" mask="url(#outer-stroke-render-3-869a88b6-e825-8004-8006-26614055f656-0)" style="fill: none; stroke-width: 2; stroke: rgb(0, 0, 0); stroke-opacity: 1;"/><use href="#stroke-shape-render-3-869a88b6-e825-8004-8006-26614055f656-0" style="fill: none; stroke-width: 1; stroke: none; stroke-opacity: 1;"/></g></g></g><g id="shape-869a88b6-e825-8004-8006-26614057defb"><defs><filter id="filter-render-4" x="-0.5283016653561368" y="-0.49957188557816273" width="2.2679239968547282" height="2.1989725253875907" filterUnits="objectBoundingBox" color-interpolation-filters="sRGB"><feFlood flood-opacity="0" result="BackgroundImageFix"/><feColorMatrix in="SourceAlpha" type="matrix" values="0 0 0 0 0 0 0 0 0 0 0 0 0 0 0 0 0 0 127 0"/><feOffset dx="4" dy="4"/><feGaussianBlur stdDeviation="2"/><feColorMatrix type="matrix" values="0 0 0 0 0 0 0 0 0 0 0 0 0 0 0 0 0 0 1 0"/><feBlend mode="normal" in2="BackgroundImageFix" result="filter_869a88b6-e825-8004-8006-26678645cf38"/><feBlend mode="normal" in="SourceGraphic" in2="filter_869a88b6-e825-8004-8006-26678645cf38" result="shape"/></filter><filter id="filter-shadow-render-4" x="-0.5283016653561368" y="-0.49957188557816273" width="2.2679239968547282" height="2.1989725253875907" filterUnits="objectBoundingBox" color-interpolation-filters="sRGB"><feFlood flood-opacity="0" result="BackgroundImageFix"/><feColorMatrix in="SourceAlpha" type="matrix" values="0 0 0 0 0 0 0 0 0 0 0 0 0 0 0 0 0 0 127 0"/><feOffset dx="4" dy="4"/><feGaussianBlur stdDeviation="2"/><feColorMatrix type="matrix" values="0 0 0 0 0 0 0 0 0 0 0 0 0 0 0 0 0 0 1 0"/><feBlend mode="normal" in2="BackgroundImageFix" result="filter_869a88b6-e825-8004-8006-26678645cf38"/><feBlend mode="normal" in="SourceGraphic" in2="filter_869a88b6-e825-8004-8006-26678645cf38" result="shape"/></filter></defs><g class="fills" id="fills-869a88b6-e825-8004-8006-26614057defb"><path d="M60.44181823730469,72.8331298828125C59.93475341796875,73.896728515625,60.07746887207031,74.5758056640625,61.20527648925781,76.4205322265625C62.40641784667969,78.416015625,62.568634033203125,79.4320068359375,62.62623596191406,84.890380859375C62.69403076171875,88.2930908203125,62.428955078125,92.6429443359375,62.07435607910156,94.553955078125C61.71977233886719,96.465087890625,61.34344482421875,99.340087890625,61.240386962890625,100.908203125C60.94207763671875,105.13037109375,60.172607421875,107.0189208984375,58.34759521484375,107.864013671875C56.30827331542969,108.8023681640625,55.26091003417969,110.8017578125,55.31318664550781,113.490234375C55.36149597167969,116.5562744140625,53.69358825683594,119.4451904296875,51.155189514160156,120.692138671875C47.10978698730469,122.6966552734375,46.613792419433594,127.075927734375,49.9827880859375,131.245361328125C53.465248107910156,135.5887451171875,59.58073425292969,140.0960693359375,70.29763793945312,146.1749267578125L80.22889709472656,151.8544921875L73.99884033203125,147.8236083984375C59.178955078125,138.290771484375,50.061241149902344,130.3682861328125,49.415245056152344,126.5775146484375C49.00770568847656,124.2264404296875,49.71245574951172,123.0057373046875,52.07954406738281,122.1480712890625C53.72349548339844,121.52392578125,54.125732421875,121.105224609375,55.60569763183594,118.541748046875C57.085662841796875,115.9783935546875,57.247222900390625,115.420654296875,56.965789794921875,113.6849365234375C56.52500915527344,111.2060546875,57.22975158691406,109.9854736328125,59.469635009765625,109.162841796875L61.24079895019531,108.503662109375L62.29039001464844,105.2034912109375C62.86903381347656,103.3675537109375,63.19038391113281,101.3287353515625,63.0711669921875,100.60888671875C62.92845153808594,99.9296875,63.11395263671875,97.1072998046875,63.4833984375,94.3367919921875C64.15470886230469,89.190673828125,64.47872924804688,83.6270751953125,64.30833435058594,79.568359375C64.26756286621094,77.9715576171875,63.95463562011719,77.0313720703125,63.12602233886719,76.3359375C62.53807067871094,75.779541015625,61.79078674316406,74.47998046875,61.54835510253906,73.417724609375L61.049713134765625,71.5023193359375L60.44181823730469,72.8331298828125Z" filter="url(#filter-render-4)" style="fill: rgb(0, 0, 0); fill-opacity: 1;"/></g><g id="strokes-60595b3f-ee93-80d2-8007-0a25ce50df4a-869a88b6-e825-8004-8006-26614057defb" class="strokes"><g class="outer-stroke-shape"><defs><mask id="outer-stroke-render-4-869a88b6-e825-8004-8006-26614057defb-0" x="28.609797369793807" y="69.08812646840671" width="84.03202775899419" height="85.22734947835394" maskUnits="userSpaceOnUse"><use href="#stroke-shape-render-4-869a88b6-e825-8004-8006-26614057defb-0" style="fill: none; stroke: white; stroke-width: 2;"/><use href="#stroke-shape-render-4-869a88b6-e825-8004-8006-26614057defb-0" style="fill: black; stroke: none;"/></mask><path d="M60.44181823730469,72.8331298828125C59.93475341796875,73.896728515625,60.07746887207031,74.5758056640625,61.20527648925781,76.4205322265625C62.40641784667969,78.416015625,62.568634033203125,79.4320068359375,62.62623596191406,84.890380859375C62.69403076171875,88.2930908203125,62.428955078125,92.6429443359375,62.07435607910156,94.553955078125C61.71977233886719,96.465087890625,61.34344482421875,99.340087890625,61.240386962890625,100.908203125C60.94207763671875,105.13037109375,60.172607421875,107.0189208984375,58.34759521484375,107.864013671875C56.30827331542969,108.8023681640625,55.26091003417969,110.8017578125,55.31318664550781,113.490234375C55.36149597167969,116.5562744140625,53.69358825683594,119.4451904296875,51.155189514160156,120.692138671875C47.10978698730469,122.6966552734375,46.613792419433594,127.075927734375,49.9827880859375,131.245361328125C53.465248107910156,135.5887451171875,59.58073425292969,140.0960693359375,70.29763793945312,146.1749267578125L80.22889709472656,151.8544921875L73.99884033203125,147.8236083984375C59.178955078125,138.290771484375,50.061241149902344,130.3682861328125,49.415245056152344,126.5775146484375C49.00770568847656,124.2264404296875,49.71245574951172,123.0057373046875,52.07954406738281,122.1480712890625C53.72349548339844,121.52392578125,54.125732421875,121.105224609375,55.60569763183594,118.541748046875C57.085662841796875,115.9783935546875,57.247222900390625,115.420654296875,56.965789794921875,113.6849365234375C56.52500915527344,111.2060546875,57.22975158691406,109.9854736328125,59.469635009765625,109.162841796875L61.24079895019531,108.503662109375L62.29039001464844,105.2034912109375C62.86903381347656,103.3675537109375,63.19038391113281,101.3287353515625,63.0711669921875,100.60888671875C62.92845153808594,99.9296875,63.11395263671875,97.1072998046875,63.4833984375,94.3367919921875C64.15470886230469,89.190673828125,64.47872924804688,83.6270751953125,64.30833435058594,79.568359375C64.26756286621094,77.9715576171875,63.95463562011719,77.0313720703125,63.12602233886719,76.3359375C62.53807067871094,75.779541015625,61.79078674316406,74.47998046875,61.54835510253906,73.417724609375L61.049713134765625,71.5023193359375L60.44181823730469,72.8331298828125Z" id="stroke-shape-render-4-869a88b6-e825-8004-8006-26614057defb-0"/></defs><use href="#stroke-shape-render-4-869a88b6-e825-8004-8006-26614057defb-0" mask="url(#outer-stroke-render-4-869a88b6-e825-8004-8006-26614057defb-0)" style="fill: none; stroke-width: 2; stroke: rgb(0, 0, 0); stroke-opacity: 1;"/><use href="#stroke-shape-render-4-869a88b6-e825-8004-8006-26614057defb-0" style="fill: none; stroke-width: 1; stroke: none; stroke-opacity: 1;"/></g></g></g><g id="shape-869a88b6-e825-8004-8006-266140580b1d"><defs><filter id="filter-render-5" x="-0.5559638126408799" y="-0.49987641821888606" width="2.3343131503381116" height="2.1997034037253265" filterUnits="objectBoundingBox" color-interpolation-filters="sRGB"><feFlood flood-opacity="0" result="BackgroundImageFix"/><feColorMatrix in="SourceAlpha" type="matrix" values="0 0 0 0 0 0 0 0 0 0 0 0 0 0 0 0 0 0 127 0"/><feOffset dx="4" dy="4"/><feGaussianBlur stdDeviation="2"/><feColorMatrix type="matrix" values="0 0 0 0 0 0 0 0 0 0 0 0 0 0 0 0 0 0 1 0"/><feBlend mode="normal" in2="BackgroundImageFix" result="filter_869a88b6-e825-8004-8006-26678645cf38"/><feBlend mode="normal" in="SourceGraphic" in2="filter_869a88b6-e825-8004-8006-26678645cf38" result="shape"/></filter><filter id="filter-shadow-render-5" x="-0.5559638126408799" y="-0.49987641821888606" width="2.3343131503381116" height="2.1997034037253265" filterUnits="objectBoundingBox" color-interpolation-filters="sRGB"><feFlood flood-opacity="0" result="BackgroundImageFix"/><feColorMatrix in="SourceAlpha" type="matrix" values="0 0 0 0 0 0 0 0 0 0 0 0 0 0 0 0 0 0 127 0"/><feOffset dx="4" dy="4"/><feGaussianBlur stdDeviation="2"/><feColorMatrix type="matrix" values="0 0 0 0 0 0 0 0 0 0 0 0 0 0 0 0 0 0 1 0"/><feBlend mode="normal" in2="BackgroundImageFix" result="filter_869a88b6-e825-8004-8006-26678645cf38"/><feBlend mode="normal" in="SourceGraphic" in2="filter_869a88b6-e825-8004-8006-26678645cf38" result="shape"/></filter></defs><g class="fills" id="fills-869a88b6-e825-8004-8006-266140580b1d"><path d="M180.30874633789062,141.550048828125C179.73919677734375,141.9808349609375,178.400634765625,142.0760498046875,176.8351287841797,141.8231201171875C174.46339416503906,141.484619140625,173.95455932617188,141.6248779296875,170.5148468017578,143.5992431640625C168.39817810058594,144.7642822265625,164.28118896484375,147.541259765625,161.32969665527344,149.6890869140625C158.35470581054688,151.8775634765625,155.50404357910156,153.758056640625,154.97171020507812,153.93896484375C154.43939208984375,154.119873046875,152.96165466308594,155.382568359375,151.62086486816406,156.7784423828125L149.24755859375,159.3143310546875L149.67283630371094,161.078857421875C150.20758056640625,163.3948974609375,149.14358520507812,165.3304443359375,146.98104858398438,165.926513671875C145.58177185058594,166.3121337890625,145.20301818847656,166.690185546875,143.55860900878906,169.5384521484375C141.91419982910156,172.3865966796875,141.75950622558594,172.83984375,142.18878173828125,174.2269287109375C142.6845245361328,175.8695068359375,141.9385528564453,177.71728515625,140.41781616210938,178.683837890625C137.5740203857422,180.4598388671875,126.11691284179688,176.774658203125,110.70175170898438,169.0140380859375L104.697509765625,165.9814453125L113.79617309570312,171.343017578125C121.35394287109375,175.7607421875,123.79104614257812,177.005126953125,128.00108337402344,178.5135498046875C135.70889282226562,181.2818603515625,138.66969299316406,181.5264892578125,141.5604705810547,179.6690673828125C143.06459045410156,178.638671875,143.40321350097656,178.2374267578125,143.75381469726562,176.703857421875C143.98297119140625,175.7510986328125,144.01844787597656,174.5780029296875,143.8619842529297,174.10791015625C143.3524932861328,172.674560546875,146.23109436035156,168.15185546875,148.20680236816406,167.23095703125C150.3733367919922,166.2574462890625,151.55477905273438,164.1185302734375,151.3380584716797,161.71484375C151.1780548095703,159.398193359375,152.23118591308594,157.944580078125,156.10350036621094,155.4061279296875C157.56063842773438,154.4571533203125,159.75177001953125,152.7926025390625,161.0083465576172,151.727783203125C162.22479248046875,150.639892578125,165.87594604492188,148.2991943359375,169.0308837890625,146.5401611328125C174.34947204589844,143.53466796875,174.96888732910156,143.2955322265625,177.3308868408203,143.4656982421875C179.62925720214844,143.6533203125,179.9707794189453,143.5250244140625,180.6520233154297,142.3450927734375C181.56820678710938,140.7581787109375,181.51145935058594,140.671142578125,180.30874633789062,141.550048828125Z" filter="url(#filter-render-5)" style="fill: rgb(0, 0, 0); fill-opacity: 1;"/></g><g id="strokes-60595b3f-ee93-80d2-8007-0a25ce518bf5-869a88b6-e825-8004-8006-266140580b1d" class="strokes"><g class="outer-stroke-shape"><defs><mask id="outer-stroke-render-5-869a88b6-e825-8004-8006-266140580b1d-0" x="102.23228665335661" y="111.68122425964022" width="81.56687477506827" height="83.78297079791898" maskUnits="userSpaceOnUse"><use href="#stroke-shape-render-5-869a88b6-e825-8004-8006-266140580b1d-0" style="fill: none; stroke: white; stroke-width: 2;"/><use href="#stroke-shape-render-5-869a88b6-e825-8004-8006-266140580b1d-0" style="fill: black; stroke: none;"/></mask><path d="M180.30874633789062,141.550048828125C179.73919677734375,141.9808349609375,178.400634765625,142.0760498046875,176.8351287841797,141.8231201171875C174.46339416503906,141.484619140625,173.95455932617188,141.6248779296875,170.5148468017578,143.5992431640625C168.39817810058594,144.7642822265625,164.28118896484375,147.541259765625,161.32969665527344,149.6890869140625C158.35470581054688,151.8775634765625,155.50404357910156,153.758056640625,154.97171020507812,153.93896484375C154.43939208984375,154.119873046875,152.96165466308594,155.382568359375,151.62086486816406,156.7784423828125L149.24755859375,159.3143310546875L149.67283630371094,161.078857421875C150.20758056640625,163.3948974609375,149.14358520507812,165.3304443359375,146.98104858398438,165.926513671875C145.58177185058594,166.3121337890625,145.20301818847656,166.690185546875,143.55860900878906,169.5384521484375C141.91419982910156,172.3865966796875,141.75950622558594,172.83984375,142.18878173828125,174.2269287109375C142.6845245361328,175.8695068359375,141.9385528564453,177.71728515625,140.41781616210938,178.683837890625C137.5740203857422,180.4598388671875,126.11691284179688,176.774658203125,110.70175170898438,169.0140380859375L104.697509765625,165.9814453125L113.79617309570312,171.343017578125C121.35394287109375,175.7607421875,123.79104614257812,177.005126953125,128.00108337402344,178.5135498046875C135.70889282226562,181.2818603515625,138.66969299316406,181.5264892578125,141.5604705810547,179.6690673828125C143.06459045410156,178.638671875,143.40321350097656,178.2374267578125,143.75381469726562,176.703857421875C143.98297119140625,175.7510986328125,144.01844787597656,174.5780029296875,143.8619842529297,174.10791015625C143.3524932861328,172.674560546875,146.23109436035156,168.15185546875,148.20680236816406,167.23095703125C150.3733367919922,166.2574462890625,151.55477905273438,164.1185302734375,151.3380584716797,161.71484375C151.1780548095703,159.398193359375,152.23118591308594,157.944580078125,156.10350036621094,155.4061279296875C157.56063842773438,154.4571533203125,159.75177001953125,152.7926025390625,161.0083465576172,151.727783203125C162.22479248046875,150.639892578125,165.87594604492188,148.2991943359375,169.0308837890625,146.5401611328125C174.34947204589844,143.53466796875,174.96888732910156,143.2955322265625,177.3308868408203,143.4656982421875C179.62925720214844,143.6533203125,179.9707794189453,143.5250244140625,180.6520233154297,142.3450927734375C181.56820678710938,140.7581787109375,181.51145935058594,140.671142578125,180.30874633789062,141.550048828125Z" id="stroke-shape-render-5-869a88b6-e825-8004-8006-266140580b1d-0"/></defs><use href="#stroke-shape-render-5-869a88b6-e825-8004-8006-266140580b1d-0" mask="url(#outer-stroke-render-5-869a88b6-e825-8004-8006-266140580b1d-0)" style="fill: none; stroke-width: 2; stroke: rgb(0, 0, 0); stroke-opacity: 1;"/><use href="#stroke-shape-render-5-869a88b6-e825-8004-8006-266140580b1d-0" style="fill: none; stroke-width: 1; stroke: none; stroke-opacity: 1;"/></g></g></g></g></g></g></g><g id="strokes-60595b3f-ee93-80d2-8007-0a25ce51d625-869a88b6-e825-8004-8006-26614a566077" class="strokes"><g class="outer-stroke-shape"><defs><mask id="outer-stroke-render-1-869a88b6-e825-8004-8006-26614a566077-0" x="-5.656854249492381" y="-5.656854249492381" width="233.31370849898477" height="269.31370849898474" maskUnits="userSpaceOnUse"><use href="#stroke-shape-render-1-869a88b6-e825-8004-8006-26614a566077-0" style="fill: none; stroke: white; stroke-width: 8;"/><use href="#stroke-shape-render-1-869a88b6-e825-8004-8006-26614a566077-0" style="fill: black; stroke: none;"/></mask><rect width="222" height="258" class="frame-background" x="0" id="stroke-shape-render-1-869a88b6-e825-8004-8006-26614a566077-0" transform="matrix(1.000000, 0.000000, 0.000000, 1.000000, 0.000000, 0.000000)" ry="0" rx="0" y="0"/></defs><use href="#stroke-shape-render-1-869a88b6-e825-8004-8006-26614a566077-0" mask="url(#outer-stroke-render-1-869a88b6-e825-8004-8006-26614a566077-0)" style="fill: none; stroke-width: 8; stroke: rgb(0, 0, 0); stroke-opacity: 1;"/><use href="#stroke-shape-render-1-869a88b6-e825-8004-8006-26614a566077-0" style="fill: none; stroke-width: 4; stroke: none; stroke-opacity: 1;"/></g></g></g></g></g></svg>