<svg width="234" xmlns="http://www.w3.org/2000/svg" height="270" id="screenshot-8c9881c5-2989-80ce-8006-23adabe4b2e1" viewBox="-6 -6 234 270" xmlns:xlink="http://www.w3.org/1999/xlink" fill="none" version="1.1"><style>/* latin-ext */
@font-face {
  font-family: 'Agdasima';
  font-style: normal;
  font-weight: 700;
  font-display: block;
  src: url(http://localhost:6080/internal/gfonts/font/agdasima/v5/PN_0Rfyxp2f1fUCgAPCGgCza3v3jzw.woff2) format('woff2');
  unicode-range: U+0100-02BA, U+02BD-02C5, U+02C7-02CC, U+02CE-02D7, U+02DD-02FF, U+0304, U+0308, U+0329, U+1D00-1DBF, U+1E00-1E9F, U+1EF2-1EFF, U+2020, U+20A0-20AB, U+20AD-20C0, U+2113, U+2C60-2C7F, U+A720-A7FF;
}
/* latin */
@font-face {
  font-family: 'Agdasima';
  font-style: normal;
  font-weight: 700;
  font-display: block;
  src: url(http://localhost:6080/internal/gfonts/font/agdasima/v5/PN_0Rfyxp2f1fUCgAPCGgCzU3v0.woff2) format('woff2');
  unicode-range: U+0000-00FF, U+0131, U+0152-0153, U+02BB-02BC, U+02C6, U+02DA, U+02DC, U+0304, U+0308, U+0329, U+2000-206F, U+20AC, U+2122, U+2191, U+2193, U+2212, U+2215, U+FEFF, U+FFFD;
}
</style><g id="shape-8c9881c5-2989-80ce-8006-23adabe4b2e1"><defs><clipPath id="frame-clip-8c9881c5-2989-80ce-8006-23adabe4b2e1-render-1" class="frame-clip frame-clip-def"><rect rx="0" ry="0" x="0" y="0" width="222" height="258" transform="matrix(1.000000, 0.000000, 0.000000, 1.000000, 0.000000, 0.000000)"/></clipPath></defs><g class="frame-container-wrapper"><g class="frame-container-blur"><g class="frame-container-shadows"><g clip-path="url(#frame-clip-8c9881c5-2989-80ce-8006-23adabe4b2e1-render-1)" fill="none"><g class="fills" id="fills-8c9881c5-2989-80ce-8006-23adabe4b2e1"><rect width="222" height="258" class="frame-background" x="0" transform="matrix(1.000000, 0.000000, 0.000000, 1.000000, 0.000000, 0.000000)" style="fill: rgb(251, 99, 118); fill-opacity: 1;" ry="0" rx="0" y="0"/></g><g class="frame-children"><g id="shape-8c9881c5-2989-80ce-8006-23adabe4b2e3" rx="0" ry="0" style="fill: rgb(0, 0, 0);"><g id="shape-8c9881c5-2989-80ce-8006-23adabe4b2e5"><g class="fills" id="fills-8c9881c5-2989-80ce-8006-23adabe4b2e5"><path d="M51.52001953125,3.70001220703125C51.52001953125,8.600006103515625,52.72021484375,10.600006103515625,54.1201171875,8.20001220703125C55.3203125,6.29998779296875,54.02001953125,0,52.52001953125,0C51.919921875,0,51.52001953125,1.70001220703125,51.52001953125,3.70001220703125Z"/></g></g><g id="shape-8c9881c5-2989-80ce-8006-23adabe4b2e6"><g class="fills" id="fills-8c9881c5-2989-80ce-8006-23adabe4b2e6"><path d="M77.22021484375,0.70001220703125C76.8203125,1,76.52001953125,2.20001220703125,76.52001953125,3.29998779296875C76.52001953125,4.79998779296875,76.8203125,5,77.8203125,4.100006103515625C78.6201171875,3.5,79.52001953125,3.29998779296875,79.8203125,3.70001220703125C80.22021484375,4,80.52001953125,3.899993896484375,80.52001953125,3.29998779296875C80.52001953125,1.899993896484375,78.02001953125,-0.100006103515625,77.22021484375,0.70001220703125Z"/></g></g><g id="shape-8c9881c5-2989-80ce-8006-23adabe4b2e7"><g class="fills" id="fills-8c9881c5-2989-80ce-8006-23adabe4b2e7"><path d="M129.919921875,6.399993896484375C129.3203125,9,130.02001953125,11,131.6201171875,11C132.8203125,11,132.8203125,5.29998779296875,131.52001953125,4.5C131.02001953125,4.20001220703125,130.3203125,5,129.919921875,6.399993896484375Z"/></g></g><g id="shape-8c9881c5-2989-80ce-8006-23adabe4b2e8"><g class="fills" id="fills-8c9881c5-2989-80ce-8006-23adabe4b2e8"><path d="M54.52001953125,12.899993896484375C54.52001953125,15.600006103515625,55.3203125,17.79998779296875,57.419921875,20.399993896484375C59.1201171875,22.5,60.919921875,25.600006103515625,61.52001953125,27.399993896484375C62.1201171875,29.20001220703125,63.72021484375,31.70001220703125,65.1201171875,32.899993896484375C67.22021484375,34.70001220703125,67.419921875,35.399993896484375,66.52001953125,36.600006103515625C65.8203125,37.399993896484375,64.6201171875,38,63.8203125,38C60.72021484375,38,48.22021484375,45.70001220703125,44.8203125,49.70001220703125C44.22021484375,50.5,43.52001953125,51,43.3203125,50.79998779296875C42.419921875,50.100006103515625,35.8203125,56.70001220703125,33.6201171875,60.5L31.3203125,64.5L33.72021484375,61.5C37.8203125,56.20001220703125,42.8203125,50.899993896484375,43.22021484375,51.399993896484375C43.52001953125,51.600006103515625,40.919921875,55.399993896484375,37.419921875,59.70001220703125C29.8203125,69.20001220703125,27.419921875,74.39999389648438,26.72021484375,82.70001220703125C26.1201171875,90.10000610351562,27.1201171875,90.70001220703125,31.22021484375,85.5C35.72021484375,79.89999389648438,36.919921875,81.20001220703125,33.419921875,87.70001220703125C30.22021484375,93.60000610351562,20.02001953125,105,18.02001953125,105C16.6201171875,105,10.22021484375,112.60000610351562,7.419921875,117.60000610351562C6.22021484375,119.79998779296875,4.3203125,122.79998779296875,3.22021484375,124.39999389648438C1.419921875,126.89999389648438,1.02001953125,129.60000610351562,0.3203125,140.89999389648438C-0.1796875,149.39999389648438,-0.080078125,154.79998779296875,0.52001953125,155.39999389648438C1.1201171875,156,1.72021484375,155.70001220703125,2.1201171875,154.39999389648438C2.52001953125,153.39999389648438,3.419921875,151,4.22021484375,149.10000610351562C5.52001953125,145.70001220703125,5.52001953125,145.70001220703125,3.52001953125,147.5C2.419921875,148.5,1.22021484375,149,0.8203125,148.60000610351562C0.419921875,148.29998779296875,1.1201171875,147.29998779296875,2.3203125,146.39999389648438C3.52001953125,145.60000610351562,4.52001953125,144.10000610351562,4.52001953125,143.20001220703125C4.52001953125,142.29998779296875,7.02001953125,138.79998779296875,10.02001953125,135.5C13.02001953125,132.29998779296875,15.52001953125,129.20001220703125,15.52001953125,128.70001220703125C15.52001953125,128.20001220703125,16.6201171875,128.10000610351562,17.919921875,128.39999389648438C19.72021484375,128.79998779296875,20.72021484375,128.5,21.419921875,127.29998779296875C22.3203125,125.60000610351562,22.419921875,125.60000610351562,23.22021484375,127.5C23.6201171875,128.60000610351562,24.02001953125,133.29998779296875,24.02001953125,138C24.02001953125,144.89999389648438,23.72021484375,146.5,22.52001953125,146.5C21.419921875,146.5,20.919921875,144.79998779296875,20.52001953125,139.29998779296875C20.22021484375,135.10000610351562,19.419921875,131.60000610351562,18.6201171875,130.79998779296875C17.52001953125,129.70001220703125,17.3203125,130.70001220703125,17.72021484375,137.10000610351562C18.1201171875,144.20001220703125,18.52001953125,145.10000610351562,23.3203125,152.39999389648438C26.22021484375,156.79998779296875,28.52001953125,161.39999389648438,28.52001953125,162.70001220703125C28.52001953125,165.39999389648438,26.3203125,170.10000610351562,22.8203125,174.70001220703125C20.8203125,177.29998779296875,20.419921875,178.79998779296875,20.72021484375,183.70001220703125C20.919921875,188.20001220703125,21.419921875,189.60000610351562,22.72021484375,189.79998779296875C23.919921875,190,24.6201171875,189.29998779296875,25.02001953125,187.29998779296875C26.22021484375,182,27.72021484375,179.10000610351562,30.1201171875,177.5C34.72021484375,174.5,35.22021484375,175.20001220703125,35.72021484375,186.29998779296875C36.419921875,198.5,37.22021484375,200.4000244140625,45.3203125,208.29998779296875C51.419921875,214.29998779296875,55.3203125,215.5999755859375,54.72021484375,211.5C53.52001953125,203.20001220703125,53.3203125,200.79998779296875,53.919921875,198.5999755859375C54.72021484375,195.29998779296875,55.419921875,195.29998779296875,61.22021484375,199C66.1201171875,202.0999755859375,68.1201171875,202.79998779296875,66.919921875,200.9000244140625C66.6201171875,200.29998779296875,64.419921875,199,62.1201171875,198L58.02001953125,196.10000610351562L61.6201171875,196.10000610351562C64.1201171875,196,65.8203125,196.70001220703125,67.419921875,198.4000244140625C68.72021484375,199.79998779296875,69.419921875,201.29998779296875,69.1201171875,201.79998779296875C68.8203125,202.4000244140625,68.8203125,203,69.22021484375,203.20001220703125C70.6201171875,203.79998779296875,78.52001953125,213.79998779296875,78.52001953125,214.9000244140625C78.52001953125,215.5,79.52001953125,216,80.72021484375,216C81.919921875,216,84.52001953125,217.9000244140625,87.02001953125,220.5999755859375L91.22021484375,225.20001220703125L95.8203125,220.29998779296875C98.419921875,217.70001220703125,100.52001953125,214.5999755859375,100.52001953125,213.4000244140625C100.52001953125,210.29998779296875,101.52001953125,209.9000244140625,103.8203125,212.0999755859375C107.919921875,215.9000244140625,110.1201171875,213.4000244140625,106.919921875,208.5C104.72021484375,205.0999755859375,105.72021484375,204.20001220703125,112.1201171875,204.20001220703125C118.22021484375,204.29998779296875,120.52001953125,203.0999755859375,118.02001953125,201C113.02001953125,196.9000244140625,119.919921875,196.5999755859375,129.8203125,200.5C130.8203125,200.9000244140625,131.52001953125,200.79998779296875,131.52001953125,200C131.52001953125,199.4000244140625,131.1201171875,199.20001220703125,130.52001953125,199.5C130.02001953125,199.79998779296875,129.52001953125,199.20001220703125,129.52001953125,198.0999755859375C129.52001953125,196.9000244140625,128.419921875,195.70001220703125,126.52001953125,194.79998779296875C124.919921875,194.10000610351562,123.3203125,192.89999389648438,123.02001953125,192.10000610351562C122.6201171875,191,123.6201171875,190.89999389648438,128.22021484375,191.39999389648438C139.1201171875,192.70001220703125,145.02001953125,194.89999389648438,147.02001953125,198.20001220703125L148.8203125,201.29998779296875L150.72021484375,198.9000244140625C153.22021484375,195.79998779296875,156.419921875,189,156.52001953125,186.79998779296875C156.52001953125,185.89999389648438,157.02001953125,183.89999389648438,157.52001953125,182.5C158.3203125,180.29998779296875,158.8203125,180,160.02001953125,181C160.72021484375,181.60000610351562,162.6201171875,182,164.22021484375,181.79998779296875C166.6201171875,181.5,167.1201171875,180.89999389648438,167.72021484375,177.5C168.1201171875,175.29998779296875,168.72021484375,172.10000610351562,169.1201171875,170.39999389648438C169.6201171875,167.79998779296875,169.22021484375,166.89999389648438,167.1201171875,165.29998779296875C163.8203125,162.60000610351562,163.8203125,161.20001220703125,167.22021484375,159.89999389648438C171.419921875,158.29998779296875,174.02001953125,162,174.919921875,170.29998779296875C175.52001953125,175.79998779296875,175.3203125,177.20001220703125,173.6201171875,180.10000610351562C172.419921875,182,171.52001953125,184.29998779296875,171.52001953125,185.29998779296875C171.52001953125,186.89999389648438,171.72021484375,186.89999389648438,174.3203125,185.60000610351562C177.8203125,183.79998779296875,180.919921875,180.39999389648438,180.1201171875,179.10000610351562C179.8203125,178.60000610351562,179.919921875,177,180.52001953125,175.60000610351562C181.22021484375,173.60000610351562,182.22021484375,173,184.3203125,173C186.6201171875,173,187.3203125,172.39999389648438,188.3203125,169.70001220703125C189.02001953125,167.89999389648438,189.52001953125,164.70001220703125,189.52001953125,162.70001220703125C189.52001953125,158.60000610351562,191.1201171875,153.89999389648438,192.8203125,152.79998779296875C196.22021484375,150.60000610351562,200.52001953125,152.20001220703125,212.1201171875,159.70001220703125C218.6201171875,163.89999389648438,224.1201171875,167.70001220703125,224.3203125,168.10000610351562C224.52001953125,168.39999389648438,226.8203125,171.60000610351562,229.52001953125,175.10000610351562C237.22021484375,185,237.02001953125,187.60000610351562,228.72021484375,191.10000610351562C226.3203125,192.20001220703125,221.8203125,194.79998779296875,218.6201171875,196.9000244140625C210.6201171875,202.4000244140625,201.919921875,204.4000244140625,189.02001953125,203.5999755859375C175.919921875,202.79998779296875,172.22021484375,201.70001220703125,168.72021484375,197.4000244140625L165.8203125,193.89999389648438L164.52001953125,196.9000244140625C163.8203125,198.5999755859375,162.72021484375,200,162.02001953125,200C161.3203125,200,160.419921875,201.20001220703125,160.02001953125,202.70001220703125C158.22021484375,210,145.72021484375,224,141.02001953125,224C139.8203125,224,137.02001953125,223.20001220703125,134.919921875,222.29998779296875C132.72021484375,221.4000244140625,128.3203125,220.29998779296875,125.02001953125,220C121.72021484375,219.5999755859375,118.3203125,219,117.52001953125,218.70001220703125C116.22021484375,218.0999755859375,116.02001953125,219.4000244140625,115.8203125,226.70001220703125C115.72021484375,231.5999755859375,114.919921875,239.0999755859375,114.1201171875,243.5C113.22021484375,247.9000244140625,112.52001953125,252.9000244140625,112.52001953125,254.70001220703125C112.52001953125,256.4000244140625,112.1201171875,258.0999755859375,111.72021484375,258.4000244140625C111.22021484375,258.70001220703125,110.8203125,261.79998779296875,110.72021484375,265.29998779296875C110.52001953125,273.4000244140625,107.1201171875,284.79998779296875,104.02001953125,287.70001220703125C101.919921875,289.70001220703125,97.52001953125,299.5,97.52001953125,302.0999755859375C97.52001953125,302.5999755859375,96.419921875,305.20001220703125,95.1201171875,307.79998779296875C93.8203125,310.4000244140625,92.22021484375,314.29998779296875,91.52001953125,316.5C90.8203125,318.70001220703125,88.1201171875,326.0999755859375,85.52001953125,333C82.8203125,339.9000244140625,78.1201171875,354,75.02001953125,364.29998779296875C71.919921875,374.5999755859375,67.6201171875,387.4000244140625,65.419921875,392.79998779296875C60.8203125,404.0999755859375,56.72021484375,417.29998779296875,55.8203125,423.9000244140625C55.52001953125,426.4000244140625,53.919921875,431,52.3203125,434.0999755859375C50.8203125,437.20001220703125,49.52001953125,440.20001220703125,49.52001953125,440.70001220703125C49.52001953125,441.29998779296875,47.72021484375,444.5,45.52001953125,447.9000244140625C43.3203125,451.4000244140625,39.3203125,458.29998779296875,36.72021484375,463.29998779296875L32.02001953125,472.5L32.22021484375,485.70001220703125L32.419921875,498.9000244140625L29.419921875,501.4000244140625C27.72021484375,502.9000244140625,25.919921875,504,25.419921875,504C24.8203125,504,23.72021484375,505.5999755859375,23.02001953125,507.5C22.22021484375,509.4000244140625,20.22021484375,513.0999755859375,18.52001953125,515.7000122070312C15.22021484375,520.7999877929688,14.6201171875,525,17.02001953125,525C17.8203125,525,18.52001953125,524.2000122070312,18.52001953125,523.2000122070312C18.52001953125,522.2999877929688,20.1201171875,518.9000244140625,22.02001953125,515.7000122070312C23.919921875,512.5,25.52001953125,509.5,25.52001953125,509.0999755859375C25.52001953125,507.70001220703125,29.3203125,504.79998779296875,30.419921875,505.4000244140625C30.919921875,505.70001220703125,32.419921875,504.5999755859375,33.72021484375,502.79998779296875C35.8203125,499.79998779296875,36.02001953125,498.5999755859375,35.8203125,489.5C35.52001953125,477,36.1201171875,475.0999755859375,48.1201171875,451.20001220703125C53.3203125,440.9000244140625,58.02001953125,430.9000244140625,58.52001953125,429C59.02001953125,427.0999755859375,60.3203125,421.70001220703125,61.52001953125,417C64.22021484375,406,65.419921875,402.29998779296875,67.419921875,398C68.3203125,396.0999755859375,70.419921875,390.4000244140625,72.02001953125,385.5C73.6201171875,380.5,75.3203125,376.29998779296875,75.72021484375,376C76.1201171875,375.70001220703125,76.919921875,373.0999755859375,77.52001953125,370.4000244140625C78.1201171875,367.5999755859375,80.22021484375,360.79998779296875,82.1201171875,355.4000244140625C84.1201171875,350,85.8203125,344.29998779296875,86.02001953125,342.79998779296875C86.419921875,339.0999755859375,89.6201171875,330.9000244140625,90.419921875,331.5C90.8203125,331.70001220703125,92.52001953125,327.29998779296875,94.3203125,321.70001220703125C96.1201171875,316.0999755859375,98.1201171875,310.4000244140625,98.8203125,309C99.52001953125,307.5999755859375,101.1201171875,303.5999755859375,102.419921875,300C103.72021484375,296.4000244140625,106.02001953125,291.70001220703125,107.6201171875,289.5C111.419921875,284.0999755859375,114.02001953125,274.79998779296875,115.52001953125,261C116.22021484375,254.70001220703125,116.919921875,248.79998779296875,117.02001953125,248C117.22021484375,247.0999755859375,117.919921875,241.9000244140625,118.6201171875,236.5C119.3203125,231,120.3203125,225.9000244140625,120.8203125,225.20001220703125C122.3203125,223.29998779296875,128.8203125,223.79998779296875,133.8203125,226.4000244140625C136.419921875,227.70001220703125,138.52001953125,228.29998779296875,138.52001953125,227.79998779296875C138.52001953125,226.9000244140625,143.02001953125,227.20001220703125,144.1201171875,228.20001220703125C145.22021484375,229.29998779296875,143.419921875,239,142.1201171875,239C141.22021484375,239,141.1201171875,240.70001220703125,141.6201171875,245.70001220703125C142.1201171875,249.5,142.419921875,253,142.419921875,253.70001220703125C142.52001953125,254.4000244140625,143.1201171875,254.70001220703125,143.8203125,254.4000244140625C144.52001953125,254.20001220703125,145.8203125,255.20001220703125,146.72021484375,256.79998779296875C148.3203125,259.4000244140625,148.3203125,259.9000244140625,146.8203125,261.9000244140625C145.8203125,263.4000244140625,145.02001953125,263.79998779296875,144.6201171875,263.0999755859375C144.22021484375,262.5,142.919921875,264.0999755859375,141.72021484375,266.79998779296875L139.6201171875,271.5L142.52001953125,268.29998779296875C144.1201171875,266.5999755859375,146.72021484375,264.4000244140625,148.419921875,263.5C152.1201171875,261.70001220703125,152.52001953125,258.0999755859375,149.419921875,256.20001220703125C144.8203125,253.29998779296875,143.1201171875,242.70001220703125,146.02001953125,235.70001220703125C146.8203125,233.70001220703125,147.52001953125,230.70001220703125,147.52001953125,229C147.52001953125,226.5,148.919921875,224.4000244140625,154.52001953125,218.5C158.3203125,214.4000244140625,161.52001953125,210.5,161.52001953125,209.70001220703125C161.52001953125,206.70001220703125,163.919921875,206,169.02001953125,207.5C171.6201171875,208.29998779296875,175.419921875,209,177.419921875,209C179.419921875,209.0999755859375,182.1201171875,209.70001220703125,183.419921875,210.4000244140625C186.3203125,212,196.419921875,211.5999755859375,205.02001953125,209.5C210.6201171875,208.0999755859375,214.02001953125,206.5999755859375,227.02001953125,199.70001220703125C235.1201171875,195.39999389648438,245.22021484375,191,246.919921875,191C248.8203125,191,249.1201171875,195,247.3203125,196.79998779296875C246.419921875,197.70001220703125,246.419921875,198,247.3203125,198C247.919921875,198,248.919921875,197.0999755859375,249.52001953125,196C250.8203125,193.5,249.22021484375,190,246.72021484375,190C245.3203125,189.89999389648438,245.419921875,189.60000610351562,247.419921875,188C251.02001953125,184.89999389648438,248.6201171875,185.60000610351562,242.1201171875,189.5C237.8203125,192.20001220703125,236.52001953125,192.60000610351562,237.1201171875,191.29998779296875C237.52001953125,190.29998779296875,237.919921875,188,237.919921875,186.20001220703125C238.02001953125,184.5,238.419921875,183,238.8203125,183C240.1201171875,183,235.419921875,175.20001220703125,230.6201171875,169.70001220703125C226.1201171875,164.39999389648438,221.72021484375,160.79998779296875,215.52001953125,157.20001220703125C213.6201171875,156.10000610351562,209.419921875,153.70001220703125,206.3203125,151.70001220703125C200.1201171875,148,197.1201171875,147.60000610351562,191.919921875,149.89999389648438C188.72021484375,151.39999389648438,184.1201171875,157.29998779296875,185.3203125,158.39999389648438C186.8203125,160,185.3203125,166.60000610351562,182.919921875,168.70001220703125C181.52001953125,170,180.02001953125,171,179.52001953125,171C179.02001953125,171,178.3203125,168.89999389648438,177.919921875,166.39999389648438C177.22021484375,161.20001220703125,173.72021484375,156.5,170.02001953125,155.79998779296875C168.72021484375,155.5,167.8203125,155.60000610351562,168.02001953125,156C168.3203125,156.39999389648438,167.419921875,157.10000610351562,166.1201171875,157.39999389648438C164.8203125,157.70001220703125,163.02001953125,159.20001220703125,162.02001953125,160.60000610351562C160.419921875,163.10000610351562,160.419921875,163.39999389648438,161.919921875,164.20001220703125C164.02001953125,165.39999389648438,166.8203125,170.70001220703125,165.6201171875,171.39999389648438C165.1201171875,171.70001220703125,164.52001953125,173.29998779296875,164.22021484375,175C163.72021484375,177.39999389648438,163.02001953125,178,161.1201171875,178C159.72021484375,178,158.3203125,178.5,158.02001953125,179.10000610351562C157.6201171875,179.60000610351562,156.8203125,179.89999389648438,156.22021484375,179.70001220703125C155.52001953125,179.5,154.1201171875,182,152.919921875,185.89999389648438C151.6201171875,189.89999389648438,150.22021484375,192.5,149.419921875,192.39999389648438C144.8203125,192.20001220703125,138.52001953125,190.60000610351562,139.52001953125,190C140.1201171875,189.60000610351562,138.419921875,189,135.6201171875,188.60000610351562C132.8203125,188.20001220703125,129.72021484375,187.70001220703125,128.72021484375,187.39999389648438C127.3203125,186.89999389648438,127.22021484375,187,128.52001953125,187.89999389648438C129.72021484375,188.79998779296875,129.419921875,189,127.1201171875,189C125.6201171875,189,122.919921875,190.10000610351562,121.3203125,191.5C119.72021484375,192.89999389648438,117.8203125,193.70001220703125,117.22021484375,193.29998779296875C116.6201171875,192.89999389648438,116.419921875,193.20001220703125,116.72021484375,194.10000610351562C117.02001953125,194.89999389648438,116.72021484375,196.39999389648438,115.919921875,197.4000244140625C114.8203125,199,114.3203125,199.0999755859375,113.02001953125,198C111.8203125,197,111.52001953125,197,111.52001953125,198.4000244140625C111.52001953125,199.29998779296875,110.72021484375,200,109.8203125,200C107.8203125,200,99.52001953125,208.5,95.919921875,214.20001220703125C94.6201171875,216.20001220703125,93.02001953125,218.20001220703125,92.3203125,218.5999755859375C91.6201171875,219,91.3203125,218.9000244140625,91.8203125,218.5C92.22021484375,218,90.6201171875,216.79998779296875,88.3203125,215.70001220703125C84.02001953125,213.79998779296875,75.919921875,206.20001220703125,77.02001953125,205.20001220703125C77.8203125,204.4000244140625,74.419921875,201,72.8203125,201C72.1201171875,201,71.52001953125,200.20001220703125,71.52001953125,199.20001220703125C71.52001953125,195.20001220703125,59.1201171875,191.5,54.3203125,194.10000610351562C52.1201171875,195.29998779296875,49.52001953125,200.0999755859375,49.52001953125,203C49.52001953125,208.29998779296875,43.02001953125,201.9000244140625,41.22021484375,194.70001220703125C40.52001953125,191.89999389648438,39.72021484375,186.89999389648438,39.6201171875,183.60000610351562C39.419921875,178.60000610351562,37.72021484375,171.39999389648438,37.6201171875,174.70001220703125C37.52001953125,176.29998779296875,32.52001953125,173.89999389648438,32.52001953125,172.20001220703125C32.52001953125,171.29998779296875,32.02001953125,171.20001220703125,30.72021484375,171.89999389648438C29.02001953125,172.79998779296875,28.919921875,172.60000610351562,29.919921875,169.39999389648438C30.52001953125,167.60000610351562,31.3203125,166,31.72021484375,166C33.02001953125,166,32.6201171875,161.5,31.02001953125,157.60000610351562C30.1201171875,155.60000610351562,29.1201171875,154.10000610351562,28.72021484375,154.39999389648438C28.3203125,154.60000610351562,27.3203125,153.5,26.6201171875,151.79998779296875C25.52001953125,149.39999389648438,25.52001953125,148.39999389648438,26.52001953125,146.5C27.3203125,145.10000610351562,27.6201171875,142.29998779296875,27.3203125,139.60000610351562C27.02001953125,137.10000610351562,27.1201171875,135,27.6201171875,135C28.1201171875,135,28.1201171875,134,27.6201171875,132.70001220703125C27.22021484375,131.5,27.02001953125,129.89999389648438,27.3203125,129.10000610351562C27.52001953125,128.29998779296875,27.3203125,128,26.8203125,128.29998779296875C26.3203125,128.60000610351562,25.1201171875,128,24.1201171875,126.89999389648438C23.1201171875,125.70001220703125,21.72021484375,125.10000610351562,20.919921875,125.39999389648438C20.02001953125,125.70001220703125,18.22021484375,126,16.919921875,126C15.3203125,126,12.6201171875,127.70001220703125,9.52001953125,130.60000610351562C4.72021484375,135.10000610351562,4.52001953125,135.20001220703125,4.52001953125,132.70001220703125C4.52001953125,127.79998779296875,12.52001953125,116,23.02001953125,105.5C30.1201171875,98.39999389648438,33.919921875,93.60000610351562,35.8203125,89.60000610351562C37.3203125,86.5,38.52001953125,83.70001220703125,38.52001953125,83.39999389648438C38.52001953125,83.10000610351562,37.3203125,81.89999389648438,35.8203125,80.60000610351562L33.1201171875,78.29998779296875L35.8203125,73.89999389648438C40.22021484375,66.5,51.8203125,54,54.419921875,54C56.02001953125,53.899993896484375,61.22021484375,47,59.6201171875,47C59.22021484375,47,53.8203125,51.79998779296875,47.8203125,57.70001220703125C36.8203125,68.5,29.72021484375,78.5,30.919921875,81.5C31.22021484375,82.29998779296875,31.02001953125,83,30.52001953125,83C28.8203125,83,29.419921875,77.10000610351562,31.52001953125,73C34.22021484375,67.70001220703125,37.22021484375,63.29998779296875,42.52001953125,57.20001220703125C47.8203125,51.100006103515625,53.1201171875,47.100006103515625,61.419921875,43C64.72021484375,41.29998779296875,67.919921875,39.100006103515625,68.52001953125,38C69.1201171875,36.899993896484375,70.02001953125,36.20001220703125,70.6201171875,36.5C71.8203125,37.29998779296875,71.8203125,36.29998779296875,70.419921875,33.79998779296875C69.8203125,32.70001220703125,69.52001953125,31.600006103515625,69.8203125,31.399993896484375C70.02001953125,31.20001220703125,72.72021484375,31.899993896484375,75.919921875,33C82.22021484375,35.100006103515625,83.22021484375,35,85.8203125,31.399993896484375C87.3203125,29.399993896484375,87.52001953125,28.29998779296875,86.72021484375,26.20001220703125C85.22021484375,22.20001220703125,84.419921875,18,85.1201171875,18C85.52001953125,18,88.1201171875,19.100006103515625,90.919921875,20.399993896484375C101.919921875,25.5,103.72021484375,26.100006103515625,110.22021484375,26.600006103515625C114.02001953125,26.899993896484375,118.3203125,27.70001220703125,119.919921875,28.29998779296875C122.52001953125,29.20001220703125,122.6201171875,29.5,120.919921875,30.100006103515625C119.52001953125,30.600006103515625,119.419921875,30.899993896484375,120.52001953125,31C121.3203125,31.100006103515625,123.419921875,31.29998779296875,125.22021484375,31.399993896484375C127.52001953125,31.70001220703125,128.22021484375,31.399993896484375,127.8203125,30.399993896484375C127.52001953125,29.600006103515625,127.919921875,29,128.919921875,29C129.8203125,29,131.1201171875,27.899993896484375,131.72021484375,26.5C132.52001953125,24.600006103515625,133.1201171875,24.29998779296875,133.72021484375,25.20001220703125C134.22021484375,26,134.52001953125,26.100006103515625,134.52001953125,25.399993896484375C134.52001953125,24.79998779296875,140.02001953125,29.79998779296875,146.8203125,36.399993896484375C157.8203125,47.399993896484375,159.919921875,49.100006103515625,168.52001953125,53.20001220703125C173.72021484375,55.70001220703125,179.6201171875,58.100006103515625,181.52001953125,58.5C186.72021484375,59.600006103515625,186.919921875,60,184.02001953125,63C182.52001953125,64.60000610351562,181.3203125,66.10000610351562,181.419921875,66.39999389648438C181.8203125,68.5,181.3203125,70.10000610351562,179.919921875,71.39999389648438C178.52001953125,72.89999389648438,178.6201171875,73,181.52001953125,73L184.6201171875,73L182.6201171875,75.20001220703125C180.919921875,76.89999389648438,180.3203125,77.10000610351562,179.02001953125,76C176.6201171875,74,177.22021484375,75.79998779296875,182.419921875,86C185.1201171875,91.20001220703125,187.8203125,95.39999389648438,188.419921875,95.20001220703125C189.1201171875,95.10000610351562,189.419921875,95.39999389648438,189.02001953125,95.89999389648438C188.72021484375,96.5,189.8203125,97.60000610351562,191.52001953125,98.5C193.52001953125,99.5,194.52001953125,100.79998779296875,194.52001953125,102.29998779296875C194.52001953125,103.89999389648438,194.22021484375,104.10000610351562,193.6201171875,103.20001220703125C193.02001953125,102.20001220703125,192.6201171875,102.60000610351562,192.22021484375,104.70001220703125C191.72021484375,107.29998779296875,194.6201171875,113.89999389648438,196.72021484375,114.79998779296875C197.1201171875,115,196.6201171875,116.89999389648438,195.52001953125,119C193.919921875,122.10000610351562,193.72021484375,123.5,194.52001953125,125.5C195.22021484375,127.29998779296875,195.22021484375,129.5,194.52001953125,132.10000610351562C193.8203125,134.79998779296875,193.72021484375,136.60000610351562,194.419921875,137.79998779296875C195.22021484375,139.20001220703125,195.419921875,138.79998779296875,195.52001953125,135.89999389648438C195.52001953125,134,196.22021484375,131.5,197.02001953125,130.39999389648438C198.419921875,128.60000610351562,198.419921875,128.70001220703125,198.52001953125,131.70001220703125C198.52001953125,133.39999389648438,199.02001953125,135.20001220703125,199.52001953125,135.5C201.1201171875,136.5,200.72021484375,137.60000610351562,198.3203125,138.79998779296875C196.22021484375,139.79998779296875,196.3203125,139.89999389648438,199.6201171875,139.89999389648438C201.6201171875,140,204.8203125,140.60000610351562,206.72021484375,141.39999389648438C208.6201171875,142.20001220703125,217.1201171875,144.5,225.6201171875,146.60000610351562C234.1201171875,148.60000610351562,242.6201171875,151.10000610351562,244.6201171875,152.10000610351562C247.52001953125,153.5,259.22021484375,158,260.22021484375,158C260.419921875,158,260.52001953125,157.10000610351562,260.52001953125,156.10000610351562C260.52001953125,154.29998779296875,254.52001953125,151,251.1201171875,151C250.419921875,151,248.919921875,150.20001220703125,247.8203125,149.20001220703125C246.6201171875,148.20001220703125,238.1201171875,145.70001220703125,226.919921875,143.10000610351562C216.52001953125,140.70001220703125,207.52001953125,138.10000610351562,206.919921875,137.39999389648438C206.3203125,136.60000610351562,205.1201171875,136,204.3203125,136C201.919921875,136,200.52001953125,133.79998779296875,200.52001953125,129.89999389648438C200.52001953125,127.5,200.02001953125,126,199.02001953125,125.60000610351562C196.6201171875,124.70001220703125,197.22021484375,121.89999389648438,201.02001953125,116.10000610351562C202.919921875,113.20001220703125,204.3203125,110.39999389648438,203.919921875,109.89999389648438C203.6201171875,109.39999389648438,201.6201171875,109.29998779296875,199.52001953125,109.60000610351562C196.3203125,110.10000610351562,195.419921875,109.89999389648438,194.8203125,108.5C194.02001953125,106.39999389648438,197.6201171875,103,200.72021484375,103C203.6201171875,103,202.419921875,100.79998779296875,198.419921875,98.79998779296875C193.02001953125,96,189.72021484375,92.20001220703125,185.919921875,84.60000610351562C182.6201171875,78,182.52001953125,77.39999389648438,184.1201171875,76.5C188.22021484375,74.20001220703125,191.52001953125,70.10000610351562,191.52001953125,67.29998779296875C191.52001953125,65.10000610351562,191.3203125,64.79998779296875,190.52001953125,66C190.02001953125,66.79998779296875,189.52001953125,68.29998779296875,189.52001953125,69.29998779296875C189.52001953125,72.10000610351562,185.1201171875,71.10000610351562,184.72021484375,68.29998779296875C184.419921875,66.5,185.419921875,65.60000610351562,189.22021484375,63.600006103515625C191.8203125,62.29998779296875,195.02001953125,60.20001220703125,196.3203125,59C199.1201171875,56.399993896484375,198.919921875,52.70001220703125,196.02001953125,52.20001220703125C194.22021484375,52,194.22021484375,52,195.8203125,53C196.72021484375,53.600006103515625,197.52001953125,54.79998779296875,197.52001953125,55.600006103515625C197.52001953125,57,197.3203125,57,196.02001953125,55.600006103515625C194.919921875,54.600006103515625,192.6201171875,54.100006103515625,188.72021484375,54.20001220703125C184.3203125,54.29998779296875,180.52001953125,53.399993896484375,172.52001953125,50.399993896484375C162.1201171875,46.5,161.919921875,46.399993896484375,150.919921875,35.5C142.8203125,27.600006103515625,139.52001953125,23.600006103515625,139.02001953125,21.29998779296875C138.419921875,18.29998779296875,132.6201171875,12,130.52001953125,12C130.02001953125,12,129.52001953125,15.29998779296875,129.3203125,19.20001220703125L129.02001953125,26.5L125.22021484375,26.79998779296875C122.52001953125,27,121.3203125,26.70001220703125,121.02001953125,25.600006103515625C120.72021484375,24.70001220703125,120.3203125,23.29998779296875,120.02001953125,22.5C119.6201171875,21.20001220703125,119.1201171875,21.20001220703125,116.02001953125,22.600006103515625C113.22021484375,23.79998779296875,111.6201171875,23.79998779296875,108.22021484375,23C98.3203125,20.399993896484375,90.8203125,16.899993896484375,87.02001953125,13C80.919921875,6.70001220703125,76.419921875,8.399993896484375,79.919921875,15.600006103515625C80.8203125,17.5,81.52001953125,20.29998779296875,81.52001953125,21.79998779296875C81.52001953125,23.29998779296875,82.22021484375,25.600006103515625,83.1201171875,26.899993896484375C84.3203125,28.5,84.419921875,29.5,83.72021484375,30.20001220703125C82.1201171875,31.79998779296875,70.72021484375,27.29998779296875,69.3203125,24.600006103515625C67.919921875,21.899993896484375,56.22021484375,9,55.3203125,9C54.8203125,9,54.52001953125,10.70001220703125,54.52001953125,12.899993896484375ZM186.02001953125,56.5C189.919921875,57.20001220703125,191.72021484375,57.899993896484375,190.22021484375,57.899993896484375C185.8203125,58.100006103515625,173.8203125,55,172.419921875,53.399993896484375C171.52001953125,52.29998779296875,172.02001953125,52.29998779296875,175.1201171875,53.600006103515625C177.3203125,54.5,182.22021484375,55.79998779296875,186.02001953125,56.5ZM170.02001953125,203.5999755859375C171.919921875,205.0999755859375,171.919921875,205.0999755859375,169.1201171875,204.79998779296875C167.52001953125,204.5999755859375,166.02001953125,203.9000244140625,165.72021484375,203.20001220703125C165.22021484375,201.5,167.6201171875,201.70001220703125,170.02001953125,203.5999755859375Z"/></g></g><g id="shape-8c9881c5-2989-80ce-8006-23adabe4b2e9"><g class="fills" id="fills-8c9881c5-2989-80ce-8006-23adabe4b2e9"><path d="M25.72021484375,75.20001220703125C22.6201171875,85.70001220703125,22.419921875,87.39999389648438,23.919921875,91.5L25.52001953125,95.5L25.02001953125,89.5C24.6201171875,85.79998779296875,25.02001953125,81.39999389648438,25.919921875,78C27.52001953125,72,27.3203125,69.79998779296875,25.72021484375,75.20001220703125Z"/></g></g><g id="shape-8c9881c5-2989-80ce-8006-23adabe4b2ea"><g class="fills" id="fills-8c9881c5-2989-80ce-8006-23adabe4b2ea"><path d="M202.919921875,98.20001220703125C204.1201171875,99.20001220703125,204.6201171875,100.29998779296875,204.22021484375,101.39999389648438C203.72021484375,102.60000610351562,203.919921875,103,204.72021484375,102.79998779296875C206.3203125,102.29998779296875,207.1201171875,98,205.72021484375,98C205.1201171875,98,203.8203125,97.70001220703125,202.8203125,97.39999389648438C201.1201171875,96.79998779296875,201.1201171875,96.79998779296875,202.919921875,98.20001220703125Z"/></g></g><g id="shape-8c9881c5-2989-80ce-8006-23adabe4b2eb"><g class="fills" id="fills-8c9881c5-2989-80ce-8006-23adabe4b2eb"><path d="M22.02001953125,155.5C22.22021484375,156.60000610351562,22.919921875,159.39999389648438,23.419921875,161.79998779296875C24.52001953125,167.10000610351562,25.52001953125,168.29998779296875,25.52001953125,164.39999389648438C25.52001953125,162.79998779296875,24.6201171875,159.70001220703125,23.52001953125,157.5C22.419921875,155.29998779296875,21.72021484375,154.39999389648438,22.02001953125,155.5Z"/></g></g><g id="shape-8c9881c5-2989-80ce-8006-23adabe4b2ec"><g class="fills" id="fills-8c9881c5-2989-80ce-8006-23adabe4b2ec"><path d="M188.72021484375,175.10000610351562C187.52001953125,176.89999389648438,187.6201171875,177.39999389648438,189.22021484375,178.5C191.52001953125,180.20001220703125,191.52001953125,180.20001220703125,190.72021484375,176.20001220703125C190.02001953125,173.10000610351562,190.02001953125,173,188.72021484375,175.10000610351562Z"/></g></g><g id="shape-8c9881c5-2989-80ce-8006-23adabe4b2ed"><g class="fills" id="fills-8c9881c5-2989-80ce-8006-23adabe4b2ed"><path d="M180.02001953125,184.89999389648438C179.72021484375,186.10000610351562,178.22021484375,187.70001220703125,176.72021484375,188.5L174.02001953125,189.89999389648438L176.72021484375,190C178.72021484375,190,179.52001953125,189.29998779296875,180.419921875,186.79998779296875C181.02001953125,185.10000610351562,181.3203125,183.5,181.1201171875,183.29998779296875C180.919921875,183,180.419921875,183.79998779296875,180.02001953125,184.89999389648438Z"/></g></g><g id="shape-8c9881c5-2989-80ce-8006-23adabe4b2ee"><g class="fills" id="fills-8c9881c5-2989-80ce-8006-23adabe4b2ee"><path d="M135.3203125,196.10000610351562C138.02001953125,198.9000244140625,138.72021484375,199.29998779296875,139.52001953125,198C141.02001953125,195.70001220703125,140.72021484375,195,138.419921875,195C137.3203125,195,135.419921875,194.5,134.22021484375,193.89999389648438C132.6201171875,193.10000610351562,132.919921875,193.70001220703125,135.3203125,196.10000610351562Z"/></g></g><g id="shape-8c9881c5-2989-80ce-8006-23adabe4b2ef"><g class="fills" id="fills-8c9881c5-2989-80ce-8006-23adabe4b2ef"><path d="M251.6201171875,197.70001220703125C250.3203125,198.5999755859375,248.3203125,199.4000244140625,247.1201171875,199.5999755859375C241.72021484375,200.20001220703125,223.419921875,209,209.419921875,217.5999755859375C204.52001953125,220.5999755859375,198.419921875,224,195.8203125,225.20001220703125C193.1201171875,226.4000244140625,189.6201171875,228.4000244140625,187.919921875,229.70001220703125C186.22021484375,231,181.3203125,233.5,177.02001953125,235.4000244140625C172.72021484375,237.29998779296875,168.72021484375,239.5999755859375,168.22021484375,240.70001220703125C166.919921875,243.20001220703125,163.3203125,247,162.3203125,247C160.919921875,247,161.419921875,243.5,163.3203125,241C164.3203125,239.5,165.52001953125,234.70001220703125,166.22021484375,229.5C167.419921875,220.20001220703125,167.8203125,211.4000244140625,166.8203125,213.9000244140625C166.419921875,214.9000244140625,165.919921875,214.70001220703125,164.919921875,212.9000244140625C163.72021484375,210.79998779296875,163.6201171875,211.5,163.52001953125,220C163.419921875,228.9000244140625,161.72021484375,241.29998779296875,160.02001953125,245.20001220703125C159.6201171875,246.29998779296875,159.72021484375,247,160.3203125,247C160.919921875,247,161.8203125,248.5,162.52001953125,250.4000244140625C164.22021484375,255.5999755859375,162.52001953125,258.29998779296875,153.6201171875,264.79998779296875C149.22021484375,267.9000244140625,145.6201171875,271,145.52001953125,271.70001220703125C145.52001953125,272.4000244140625,148.6201171875,271.0999755859375,152.419921875,268.9000244140625C163.52001953125,262.5,167.22021484375,257.70001220703125,166.1201171875,251.4000244140625C165.6201171875,248.79998779296875,166.1201171875,247.5999755859375,169.52001953125,243.79998779296875C171.6201171875,241.29998779296875,174.919921875,238.70001220703125,176.72021484375,238C182.8203125,235.5999755859375,207.1201171875,222,220.8203125,213.20001220703125C223.52001953125,211.5,230.22021484375,208.29998779296875,235.8203125,206C250.02001953125,200.0999755859375,250.72021484375,199.79998779296875,253.419921875,197.79998779296875C256.419921875,195.5,254.8203125,195.39999389648438,251.6201171875,197.70001220703125Z"/></g></g><g id="shape-8c9881c5-2989-80ce-8006-23adabe4b2f0"><g class="fills" id="fills-8c9881c5-2989-80ce-8006-23adabe4b2f0"><path d="M170.3203125,217.4000244140625C170.52001953125,220.20001220703125,170.22021484375,225.20001220703125,169.72021484375,228.5C168.72021484375,234.79998779296875,168.919921875,236,170.6201171875,234.29998779296875C171.22021484375,233.70001220703125,171.919921875,228.70001220703125,172.22021484375,223.29998779296875C172.72021484375,215.29998779296875,172.52001953125,213.20001220703125,171.419921875,212.79998779296875C170.3203125,212.4000244140625,170.1201171875,213.29998779296875,170.3203125,217.4000244140625Z"/></g></g><g id="shape-8c9881c5-2989-80ce-8006-23adabe4b2f1"><g class="fills" id="fills-8c9881c5-2989-80ce-8006-23adabe4b2f1"><path d="M176.919921875,212.79998779296875C176.1201171875,213.29998779296875,176.02001953125,214.20001220703125,176.8203125,216C177.6201171875,218,177.919921875,218.20001220703125,178.22021484375,216.70001220703125C178.919921875,214.0999755859375,178.1201171875,212,176.919921875,212.79998779296875Z"/></g></g><g id="shape-8c9881c5-2989-80ce-8006-23adabe4b2f2"><g class="fills" id="fills-8c9881c5-2989-80ce-8006-23adabe4b2f2"><path d="M185.52001953125,219.5999755859375C185.52001953125,222.5,185.22021484375,225.70001220703125,184.919921875,226.70001220703125C184.3203125,228.29998779296875,184.419921875,228.29998779296875,185.72021484375,227C186.6201171875,226.20001220703125,187.52001953125,223,187.919921875,219.9000244140625C188.419921875,215.4000244140625,188.22021484375,214.29998779296875,187.02001953125,214.29998779296875C185.919921875,214.29998779296875,185.52001953125,215.5999755859375,185.52001953125,219.5999755859375Z"/></g></g><g id="shape-8c9881c5-2989-80ce-8006-23adabe4b2f3"><g class="fills" id="fills-8c9881c5-2989-80ce-8006-23adabe4b2f3"><path d="M107.22021484375,218.0999755859375C106.8203125,219.70001220703125,106.1201171875,220.0999755859375,104.52001953125,219.70001220703125C102.919921875,219.29998779296875,102.52001953125,219.5,102.919921875,220.5C103.22021484375,221.5,102.419921875,222,100.22021484375,222.20001220703125L97.02001953125,222.5999755859375L99.8203125,224C102.3203125,225.20001220703125,103.02001953125,225.20001220703125,105.52001953125,223.5999755859375C107.919921875,222.20001220703125,108.919921875,222.0999755859375,110.72021484375,223.0999755859375C112.8203125,224.20001220703125,112.919921875,224.20001220703125,111.6201171875,222.70001220703125C110.919921875,221.70001220703125,109.72021484375,221,109.02001953125,221C108.22021484375,221,108.02001953125,220.0999755859375,108.3203125,218.5C108.8203125,215.5,108.02001953125,215.20001220703125,107.22021484375,218.0999755859375Z"/></g></g></g><g id="shape-8c9881c5-2989-80ce-8006-23adabe4b2e4"><g transform="matrix(1.000000, 0.000000, 0.000000, 1.000000, 0.000000, 0.000000)" class="text-container" x="67" y="95" width="84" height="60" rx="0" ry="0"><defs><pattern patternUnits="objectBoundingBox" width="81.23333740234375" height="57.75" id="fill-0-render-18-0"><g><rect width="81.23333740234375" height="57.75" style="fill: rgb(0, 0, 0); fill-opacity: 1;"/></g></pattern></defs><g class="fills" id="fills-8c9881c5-2989-80ce-8006-23adabe4b2e4"><text x="67" y="152.68333435058594" dominant-baseline="ideographic" textLength="81.23333740234375" lengthAdjust="spacingAndGlyphs" style="text-transform: none; font-family: Agdasima; letter-spacing: normal; font-style: normal; font-weight: 700; white-space: pre; font-size: 48px; text-decoration: rgb(0, 0, 0); direction: ltr; fill: rgb(0, 0, 0); fill-opacity: 1;">LOST</text></g></g></g></g></g></g><g id="strokes-d35f8cf1-db90-80e2-8007-0a2351cbcee1-8c9881c5-2989-80ce-8006-23adabe4b2e1" class="strokes"><g class="outer-stroke-shape"><defs><mask id="outer-stroke-render-1-8c9881c5-2989-80ce-8006-23adabe4b2e1-0" x="-5.656854249492381" y="-5.656854249492381" width="233.31370849898477" height="269.31370849898474" maskUnits="userSpaceOnUse"><use href="#stroke-shape-render-1-8c9881c5-2989-80ce-8006-23adabe4b2e1-0" style="fill: none; stroke: white; stroke-width: 8;"/><use href="#stroke-shape-render-1-8c9881c5-2989-80ce-8006-23adabe4b2e1-0" style="fill: black; stroke: none;"/></mask><rect width="222" height="258" class="frame-background" x="0" id="stroke-shape-render-1-8c9881c5-2989-80ce-8006-23adabe4b2e1-0" transform="matrix(1.000000, 0.000000, 0.000000, 1.000000, 0.000000, 0.000000)" ry="0" rx="0" y="0"/></defs><use href="#stroke-shape-render-1-8c9881c5-2989-80ce-8006-23adabe4b2e1-0" mask="url(#outer-stroke-render-1-8c9881c5-2989-80ce-8006-23adabe4b2e1-0)" style="fill: none; stroke-width: 8; stroke: rgb(0, 0, 0); stroke-opacity: 1;"/><use href="#stroke-shape-render-1-8c9881c5-2989-80ce-8006-23adabe4b2e1-0" style="fill: none; stroke-width: 4; stroke: none; stroke-opacity: 1;"/></g></g></g></g></g></svg>