<svg width="231" xmlns="http://www.w3.org/2000/svg" height="269" id="screenshot-0b9f7566-f66f-80f0-8006-2f6fe4635ed3" viewBox="0 0 231 269" xmlns:xlink="http://www.w3.org/1999/xlink" fill="none" version="1.1"><g id="shape-0b9f7566-f66f-80f0-8006-2f6fe4635ed3"><defs><clipPath id="frame-clip-0b9f7566-f66f-80f0-8006-2f6fe4635ed3-render-232" class="frame-clip frame-clip-def"><rect rx="0" ry="0" x="0" y="0" width="231" height="269.0000000000001" transform="matrix(1.000000, 0.000000, 0.000000, 1.000000, 0.000000, 0.000000)"/></clipPath></defs><g class="frame-container-wrapper"><g class="frame-container-blur"><g class="frame-container-shadows"><g clip-path="url(#frame-clip-0b9f7566-f66f-80f0-8006-2f6fe4635ed3-render-232)" fill="none"><g class="fills" id="fills-0b9f7566-f66f-80f0-8006-2f6fe4635ed3"><rect width="231" height="269.0000000000001" class="frame-background" x="0" transform="matrix(1.000000, 0.000000, 0.000000, 1.000000, 0.000000, 0.000000)" style="fill: rgb(34, 228, 92); fill-opacity: 1;" ry="0" rx="0" y="0"/></g><g class="frame-children"><g id="shape-0b9f7566-f66f-80f0-8006-2f6fe4635ed4"><g class="frame-container-wrapper"><g class="frame-container-blur"><g class="frame-container-shadows"><g fill="none"><g class="fills" id="fills-0b9f7566-f66f-80f0-8006-2f6fe4635ed4"><rect width="262" height="65.00000000000003" class="frame-background" x="-30" transform="matrix(1.000000, 0.000000, 0.000000, 1.000000, 0.000000, 0.000000)" style="fill: rgb(0, 0, 0); fill-opacity: 1;" ry="0" rx="0" y="71"/></g><g class="frame-children"><g id="shape-0b9f7566-f66f-80f0-8006-2f6fe4635ed6" rx="0" ry="0" style="fill: rgb(0, 0, 0);"><g id="shape-0b9f7566-f66f-80f0-8006-2f6fe4635ed7"><g class="fills" id="fills-0b9f7566-f66f-80f0-8006-2f6fe4635ed7"><path d="M38.50048828125,126.26779174804688C38.35400390625,126.53398132324219,38.1884765625,126.78887939453125,38.0048828125,127.03038024902344C37.06884765625,128.29124450683594,35.58935546875,129.02330017089844,34.0263671875,128.99864196777344C32.196044921875,128.99864196777344,30.569091796875,128.11111450195312,29.6201171875,126.26779174804688L22.028076171875,111.72601318359375L14.3681640625,126.26779174804688C13.4189453125,128.11111450195312,11.724365234375,128.99864196777344,9.9619140625,128.99864196777344C8.768310546875,129.02706909179688,7.60693359375,128.60646057128906,6.704833984375,127.81891632080078C6.21337890625,127.37650299072266,5.801513671875,126.8517074584961,5.488037109375,126.26779174804688L-20,78.6827163696289L-9.6962890625,78.6827163696289L10.233154296875,116.84635925292969L17.689697265625,103.32864379882812L4.8779296875,78.6827163696289L15.249267578125,78.6827163696289L34.29736328125,116.84635925292969L54.3623046875,78.6827163696289L63.98828125,78.6827163696289L38.50048828125,126.26779174804688Z" font-size="12" style="fill: rgb(34, 228, 92); fill-opacity: 1;"/></g><g font-size="12" id="strokes-d35f8cf1-db90-80e2-8007-0a235216dbd5-0b9f7566-f66f-80f0-8006-2f6fe4635ed7" class="strokes"><g class="inner-stroke-shape"><defs><clipPath id="inner-stroke-render-235-0b9f7566-f66f-80f0-8006-2f6fe4635ed7-0"><use href="#stroke-shape-render-235-0b9f7566-f66f-80f0-8006-2f6fe4635ed7-0"/></clipPath><path d="M38.50048828125,126.26779174804688C38.35400390625,126.53398132324219,38.1884765625,126.78887939453125,38.0048828125,127.03038024902344C37.06884765625,128.29124450683594,35.58935546875,129.02330017089844,34.0263671875,128.99864196777344C32.196044921875,128.99864196777344,30.569091796875,128.11111450195312,29.6201171875,126.26779174804688L22.028076171875,111.72601318359375L14.3681640625,126.26779174804688C13.4189453125,128.11111450195312,11.724365234375,128.99864196777344,9.9619140625,128.99864196777344C8.768310546875,129.02706909179688,7.60693359375,128.60646057128906,6.704833984375,127.81891632080078C6.21337890625,127.37650299072266,5.801513671875,126.8517074584961,5.488037109375,126.26779174804688L-20,78.6827163696289L-9.6962890625,78.6827163696289L10.233154296875,116.84635925292969L17.689697265625,103.32864379882812L4.8779296875,78.6827163696289L15.249267578125,78.6827163696289L34.29736328125,116.84635925292969L54.3623046875,78.6827163696289L63.98828125,78.6827163696289L38.50048828125,126.26779174804688Z" id="stroke-shape-render-235-0b9f7566-f66f-80f0-8006-2f6fe4635ed7-0" style="fill: none; stroke-width: 1.89; stroke: rgb(34, 228, 92); stroke-opacity: 1;"/></defs><use href="#stroke-shape-render-235-0b9f7566-f66f-80f0-8006-2f6fe4635ed7-0" clip-path="url('#inner-stroke-render-235-0b9f7566-f66f-80f0-8006-2f6fe4635ed7-0')"/></g></g></g><g id="shape-0b9f7566-f66f-80f0-8006-2f6fe4635ed8"><g class="fills" id="fills-0b9f7566-f66f-80f0-8006-2f6fe4635ed8"><path d="M115.7099609375,128.31593322753906L105.33837890625,128.31593322753906L97.94970703125,115.8222885131836L74.630859375,115.8222885131836L78.6982421875,108.79034423828125L93.814453125,108.79034423828125L82.8330078125,90.22056579589844L60.46337890625,128.31593322753906L50.63427734375,128.31593322753906L78.96923828125,80.79912567138672C79.12060546875,80.54366302490234,79.28466796875,80.2957763671875,79.4599609375,80.05633544921875C80.3974609375,78.78170776367188,81.56591796875,78.00000762939453,83.171875,78.00000762939453C83.21044921875,78.00022888183594,83.24951171875,78.00091552734375,83.2880859375,78.0020523071289C85.1201171875,78.0450668334961,86.31103515625,79.12784576416016,87.30712890625,80.79912567138672L115.7099609375,128.31593322753906Z" font-size="12" style="fill: rgb(34, 228, 92); fill-opacity: 1;"/></g><g font-size="12" id="strokes-d35f8cf1-db90-80e2-8007-0a2352170ebf-0b9f7566-f66f-80f0-8006-2f6fe4635ed8" class="strokes"><g class="inner-stroke-shape"><defs><clipPath id="inner-stroke-render-236-0b9f7566-f66f-80f0-8006-2f6fe4635ed8-0"><use href="#stroke-shape-render-236-0b9f7566-f66f-80f0-8006-2f6fe4635ed8-0"/></clipPath><path d="M115.7099609375,128.31593322753906L105.33837890625,128.31593322753906L97.94970703125,115.8222885131836L74.630859375,115.8222885131836L78.6982421875,108.79034423828125L93.814453125,108.79034423828125L82.8330078125,90.22056579589844L60.46337890625,128.31593322753906L50.63427734375,128.31593322753906L78.96923828125,80.79912567138672C79.12060546875,80.54366302490234,79.28466796875,80.2957763671875,79.4599609375,80.05633544921875C80.3974609375,78.78170776367188,81.56591796875,78.00000762939453,83.171875,78.00000762939453C83.21044921875,78.00022888183594,83.24951171875,78.00091552734375,83.2880859375,78.0020523071289C85.1201171875,78.0450668334961,86.31103515625,79.12784576416016,87.30712890625,80.79912567138672L115.7099609375,128.31593322753906Z" id="stroke-shape-render-236-0b9f7566-f66f-80f0-8006-2f6fe4635ed8-0" style="fill: none; stroke-width: 1.89; stroke: rgb(34, 228, 92); stroke-opacity: 1;"/></defs><use href="#stroke-shape-render-236-0b9f7566-f66f-80f0-8006-2f6fe4635ed8-0" clip-path="url('#inner-stroke-render-236-0b9f7566-f66f-80f0-8006-2f6fe4635ed8-0')"/></g></g></g><g id="shape-0b9f7566-f66f-80f0-8006-2f6fe4635ed9"><g class="fills" id="fills-0b9f7566-f66f-80f0-8006-2f6fe4635ed9"><path d="M175.498046875,128.31593322753906L164.0419921875,128.31593322753906L160.65283203125,125.38026428222656C159.3564453125,126.08448791503906,157.99853515625,126.66680145263672,156.59619140625,127.11981201171875C154.11669921875,127.91744995117188,151.52880859375,128.3209991455078,148.92529296875,128.31593322753906L136.92724609375,128.31593322753906C128.5419921875,128.31593322753906,121.490234375,124.25993347167969,117.2607421875,117.83151245117188C114.4189453125,113.41447448730469,112.93603515625,108.25025177001953,112.99853515625,102.98728942871094C112.99853515625,88.37724304199219,123.16650390625,78.6827163696289,136.92724609375,78.6827163696289L148.92529296875,78.6827163696289C163.16064453125,78.6827163696289,173.0576171875,88.5820541381836,173.0576171875,102.98728942871094C173.06298828125,105.27941131591797,172.79443359375,107.56385040283203,172.25732421875,109.79120635986328C171.25830078125,114.02217864990234,169.17333984375,117.91468811035156,166.21142578125,121.07917785644531L175.498046875,128.31593322753906ZM148.92529296875,119.64547729492188C149.04150390625,119.64557647705078,149.15771484375,119.64443969726562,149.27392578125,119.6420669555664C150.59716796875,119.60970306396484,151.9130859375,119.42764282226562,153.1962890625,119.09930419921875L138.9609375,107.83454895019531L150.34912109375,107.83454895019531L159.50048828125,115.61746978759766C162.55078125,112.68180847167969,164.44873046875,108.38072204589844,164.44873046875,103.39691925048828C164.44873046875,97.54948425292969,161.93115234375,92.7418212890625,157.82373046875,89.96044921875C155.18359375,88.21398162841797,152.083984375,87.30570983886719,148.92529296875,87.3531723022461L136.92724609375,87.3531723022461C136.7451171875,87.35327911376953,136.5634765625,87.35623168945312,136.38134765625,87.36204528808594C130.775390625,87.53750610351562,126.15869140625,90.42127990722656,123.65087890625,94.9947738647461C122.27294921875,97.57550811767578,121.56982421875,100.46693420410156,121.607421875,103.39691925048828C121.607421875,108.58553314208984,123.5888671875,113.01702117919922,126.869140625,115.93561553955078C129.65283203125,118.37875366210938,133.23486328125,119.69994354248047,136.92724609375,119.64547729492188L148.92529296875,119.64547729492188Z" font-size="12" style="fill: rgb(34, 228, 92); fill-opacity: 1;"/></g><g font-size="12" id="strokes-d35f8cf1-db90-80e2-8007-0a235217624a-0b9f7566-f66f-80f0-8006-2f6fe4635ed9" class="strokes"><g class="inner-stroke-shape"><defs><clipPath id="inner-stroke-render-237-0b9f7566-f66f-80f0-8006-2f6fe4635ed9-0"><use href="#stroke-shape-render-237-0b9f7566-f66f-80f0-8006-2f6fe4635ed9-0"/></clipPath><path d="M175.498046875,128.31593322753906L164.0419921875,128.31593322753906L160.65283203125,125.38026428222656C159.3564453125,126.08448791503906,157.99853515625,126.66680145263672,156.59619140625,127.11981201171875C154.11669921875,127.91744995117188,151.52880859375,128.3209991455078,148.92529296875,128.31593322753906L136.92724609375,128.31593322753906C128.5419921875,128.31593322753906,121.490234375,124.25993347167969,117.2607421875,117.83151245117188C114.4189453125,113.41447448730469,112.93603515625,108.25025177001953,112.99853515625,102.98728942871094C112.99853515625,88.37724304199219,123.16650390625,78.6827163696289,136.92724609375,78.6827163696289L148.92529296875,78.6827163696289C163.16064453125,78.6827163696289,173.0576171875,88.5820541381836,173.0576171875,102.98728942871094C173.06298828125,105.27941131591797,172.79443359375,107.56385040283203,172.25732421875,109.79120635986328C171.25830078125,114.02217864990234,169.17333984375,117.91468811035156,166.21142578125,121.07917785644531L175.498046875,128.31593322753906ZM148.92529296875,119.64547729492188C149.04150390625,119.64557647705078,149.15771484375,119.64443969726562,149.27392578125,119.6420669555664C150.59716796875,119.60970306396484,151.9130859375,119.42764282226562,153.1962890625,119.09930419921875L138.9609375,107.83454895019531L150.34912109375,107.83454895019531L159.50048828125,115.61746978759766C162.55078125,112.68180847167969,164.44873046875,108.38072204589844,164.44873046875,103.39691925048828C164.44873046875,97.54948425292969,161.93115234375,92.7418212890625,157.82373046875,89.96044921875C155.18359375,88.21398162841797,152.083984375,87.30570983886719,148.92529296875,87.3531723022461L136.92724609375,87.3531723022461C136.7451171875,87.35327911376953,136.5634765625,87.35623168945312,136.38134765625,87.36204528808594C130.775390625,87.53750610351562,126.15869140625,90.42127990722656,123.65087890625,94.9947738647461C122.27294921875,97.57550811767578,121.56982421875,100.46693420410156,121.607421875,103.39691925048828C121.607421875,108.58553314208984,123.5888671875,113.01702117919922,126.869140625,115.93561553955078C129.65283203125,118.37875366210938,133.23486328125,119.69994354248047,136.92724609375,119.64547729492188L148.92529296875,119.64547729492188Z" id="stroke-shape-render-237-0b9f7566-f66f-80f0-8006-2f6fe4635ed9-0" style="fill: none; stroke-width: 1.89; stroke: rgb(34, 228, 92); stroke-opacity: 1;"/></defs><use href="#stroke-shape-render-237-0b9f7566-f66f-80f0-8006-2f6fe4635ed9-0" clip-path="url('#inner-stroke-render-237-0b9f7566-f66f-80f0-8006-2f6fe4635ed9-0')"/></g></g></g><g id="shape-0b9f7566-f66f-80f0-8006-2f6fe4635eda"><g class="fills" id="fills-0b9f7566-f66f-80f0-8006-2f6fe4635eda"><path d="M203.29052734375,128.31593322753906L194.681640625,128.31593322753906L194.681640625,87.3531723022461L175.97265625,87.3531723022461L175.97265625,78.6827163696289L222,78.6827163696289L222,87.3531723022461L203.29052734375,87.3531723022461L203.29052734375,128.31593322753906Z" font-size="12" style="fill: rgb(34, 228, 92); fill-opacity: 1;"/></g><g font-size="12" id="strokes-d35f8cf1-db90-80e2-8007-0a235217ab62-0b9f7566-f66f-80f0-8006-2f6fe4635eda" class="strokes"><g class="inner-stroke-shape"><defs><clipPath id="inner-stroke-render-238-0b9f7566-f66f-80f0-8006-2f6fe4635eda-0"><use href="#stroke-shape-render-238-0b9f7566-f66f-80f0-8006-2f6fe4635eda-0"/></clipPath><path d="M203.29052734375,128.31593322753906L194.681640625,128.31593322753906L194.681640625,87.3531723022461L175.97265625,87.3531723022461L175.97265625,78.6827163696289L222,78.6827163696289L222,87.3531723022461L203.29052734375,87.3531723022461L203.29052734375,128.31593322753906Z" id="stroke-shape-render-238-0b9f7566-f66f-80f0-8006-2f6fe4635eda-0" style="fill: none; stroke-width: 1.89; stroke: rgb(34, 228, 92); stroke-opacity: 1;"/></defs><use href="#stroke-shape-render-238-0b9f7566-f66f-80f0-8006-2f6fe4635eda-0" clip-path="url('#inner-stroke-render-238-0b9f7566-f66f-80f0-8006-2f6fe4635eda-0')"/></g></g></g></g></g></g></g></g></g></g><g id="shape-0b9f7566-f66f-80f0-8006-2f6fe4635ed5" version="1.0" width="1800" height="2700" rx="0" ry="0" style="fill: rgb(0, 0, 0);"><g id="shape-0b9f7566-f66f-80f0-8006-2f6fe4635edb" rx="0" ry="0" style="fill: rgb(0, 0, 0);"><g id="shape-0b9f7566-f66f-80f0-8006-2f6fe4635edc"><g class="fills" id="fills-0b9f7566-f66f-80f0-8006-2f6fe4635edc"><path d="M180.89404296875,15.218032836914062C180.7509765625,15.2998046875,180.1171875,15.422454833984375,179.4833984375,15.504219055175781C178.8291015625,15.585990905761719,178.1953125,15.769966125488281,178.07275390625,15.913063049316406C177.9501953125,16.07659912109375,177.6845703125,16.199249267578125,177.50048828125,16.199249267578125C177.31640625,16.199249267578125,176.90771484375,16.34233856201172,176.58056640625,16.505874633789062C176.27392578125,16.669410705566406,175.88525390625,16.81250762939453,175.7421875,16.81250762939453C175.59912109375,16.81250762939453,175.435546875,16.955596923828125,175.35400390625,17.11913299560547C175.29248046875,17.282669067382812,175.00634765625,17.425765991210938,174.72021484375,17.425765991210938C174.29052734375,17.425765991210938,174.208984375,17.527976989746094,174.208984375,18.018585205078125C174.208984375,18.65228271484375,173.513671875,19.265541076660156,172.79833984375,19.265541076660156C172.5732421875,19.265541076660156,172.287109375,19.44952392578125,172.16455078125,19.67438507080078C172.0419921875,19.899246215820312,171.81689453125,20.083221435546875,171.6533203125,20.083221435546875C171.51025390625,20.083221435546875,171.1015625,20.308082580566406,170.7744140625,20.594268798828125C170.4267578125,20.880455017089844,170.0380859375,21.105316162109375,169.87451171875,21.105316162109375C169.36376953125,21.105316162109375,168.68896484375,21.73902130126953,168.68896484375,22.229629516601562C168.68896484375,22.904212951660156,167.8916015625,23.721893310546875,167.15576171875,23.80365753173828C166.6650390625,23.84454345703125,166.52197265625,24.008079528808594,166.3583984375,24.560012817382812C166.19482421875,25.09149932861328,165.9697265625,25.336807250976562,165.27490234375,25.6434326171875C164.333984375,26.052276611328125,164.25244140625,26.19536590576172,164.62060546875,26.788185119628906C164.82470703125,27.094818115234375,164.681640625,27.524093627929688,163.88427734375,29.179893493652344C163.04638671875,30.937904357910156,162.96435546875,31.203651428222656,163.22998046875,31.469398498535156C163.49609375,31.735137939453125,163.49609375,31.83734893798828,163.22998046875,32.36884307861328C163.06689453125,32.69591522216797,162.759765625,33.063865661621094,162.53515625,33.16607666015625C162.08544921875,33.41138458251953,162.02392578125,34.00419616699219,162.39208984375,34.576576232910156C162.576171875,34.883201599121094,162.5556640625,35.148948669433594,162.28955078125,35.84397888183594C162.04443359375,36.436790466308594,162.00341796875,36.78430938720703,162.1669921875,36.968284606933594C162.31005859375,37.13182067871094,162.2490234375,37.418006896972656,161.962890625,37.88816833496094C161.73779296875,38.256126403808594,161.615234375,38.64452362060547,161.67626953125,38.746734619140625C161.98291015625,39.257781982421875,161.962890625,41.13844299316406,161.615234375,41.64949035644531C161.43115234375,41.93568420410156,161.3291015625,42.344520568847656,161.39013671875,42.56938171386719C161.45166015625,42.79424285888672,161.3291015625,43.182640075683594,161.14501953125,43.427940368652344C160.919921875,43.714134216308594,160.73583984375,44.409156799316406,160.6748046875,45.14506912231445C160.61328125,45.81965255737305,160.47021484375,46.555564880371094,160.34765625,46.780426025390625C160.2451171875,46.98484420776367,160,47.49589538574219,159.83642578125,47.88429260253906C159.65234375,48.27268981933594,159.22314453125,49.21302032470703,158.89599609375,49.98981475830078C158.54833984375,50.74616622924805,158.26220703125,51.5229606628418,158.26220703125,51.72738265991211C158.26220703125,51.91135787963867,158.01708984375,52.442848205566406,157.71044921875,52.892574310302734C157.423828125,53.32185363769531,157.01513671875,54.303070068359375,156.810546875,55.05942153930664C156.6064453125,55.815773010253906,156.29931640625,56.7152214050293,156.13623046875,57.0627326965332C155.9521484375,57.38980484008789,155.80908203125,57.94173812866211,155.80908203125,58.2688102722168C155.80908203125,58.80030059814453,155.46142578125,59.78151321411133,154.970703125,60.55830764770508C154.3369140625,61.580406188964844,153.96875,62.438968658447266,153.96875,62.86825180053711C153.96875,63.133995056152344,153.662109375,63.624603271484375,153.25341796875,64.033447265625C152.82421875,64.4422836303711,152.53759765625,64.91244506835938,152.55810546875,65.15775299072266C152.57861328125,65.38261413574219,152.51708984375,65.7301254272461,152.435546875,65.95498657226562C152.23095703125,66.44559478759766,152.55810546875,66.97708129882812,153.130859375,67.05885314941406C153.35546875,67.09973907470703,153.56005859375,67.26327514648438,153.56005859375,67.4063720703125C153.56005859375,67.61078643798828,153.25341796875,67.69255065917969,152.3740234375,67.67211151123047C151.08642578125,67.65167236328125,150.2890625,67.95829772949219,150.2890625,68.46934509277344C150.2890625,68.87818908691406,151.78125,70.37045288085938,152.21044921875,70.37045288085938C152.39453125,70.37045288085938,152.53759765625,70.20691680908203,152.53759765625,69.96160888671875C152.53759765625,69.73675537109375,152.4560546875,69.55277252197266,152.35400390625,69.55277252197266C152.27197265625,69.55277252197266,151.94482421875,69.34835815429688,151.63818359375,69.12348937988281C151.1474609375,68.73509216308594,151.1064453125,68.65332794189453,151.39306640625,68.34669494628906C151.61767578125,68.10139465332031,151.94482421875,68.04006958007812,152.53759765625,68.08094787597656C153.314453125,68.1627197265625,153.35546875,68.20360565185547,153.35546875,68.85774230957031C153.35546875,69.24613952636719,153.4580078125,69.55277252197266,153.56005859375,69.55277252197266C153.86669921875,69.55277252197266,153.80517578125,70.16603088378906,153.47802734375,70.28868103027344C153.314453125,70.35000610351562,153.15087890625,70.6566390991211,153.08984375,70.98371124267578C152.96728515625,71.55609130859375,152.02685546875,72.61906433105469,151.61767578125,72.61906433105469C151.4951171875,72.61906433105469,151.31103515625,72.53730010986328,151.208984375,72.43508911132812C151.08642578125,72.35331726074219,150.75927734375,72.2102279663086,150.45263671875,72.12846374511719C149.9619140625,72.02625274658203,149.8798828125,72.067138671875,149.75732421875,72.53730010986328C149.67578125,72.823486328125,149.71630859375,73.15055847167969,149.859375,73.29365539550781C150.20703125,73.64116668701172,150.12548828125,74.05000305175781,149.5732421875,74.78591918945312L149.06201171875,75.46050262451172L149.67578125,75.88978576660156C150.41162109375,76.42127227783203,150.45263671875,76.85055541992188,149.79833984375,77.1367416381836C149.40966796875,77.32072448730469,149.20556640625,77.27983856201172,148.77587890625,77.01409149169922C148.42822265625,76.78923034667969,147.978515625,76.68701934814453,147.50830078125,76.74834442138672C146.91552734375,76.8096694946289,146.7314453125,76.76878356933594,146.64990234375,76.462158203125C146.52734375,75.9306640625,146.22021484375,76.01243591308594,145.56640625,76.7279052734375C145.09619140625,77.25939178466797,144.9326171875,77.3411636352539,144.68701171875,77.1367416381836C144.46240234375,76.9527587890625,144.1962890625,76.93232727050781,143.5419921875,77.11630249023438C143.07177734375,77.23895263671875,142.642578125,77.32072448730469,142.6015625,77.27983856201172C142.56103515625,77.23895263671875,142.94921875,76.74834442138672,143.48095703125,76.21685791015625C144.33935546875,75.3174057006836,144.38037109375,75.21519470214844,144.07373046875,74.9085693359375C143.76708984375,74.58149719238281,143.70556640625,74.60194396972656,143.21533203125,75.23564147949219C142.642578125,75.95111083984375,142.3154296875,76.07376098632812,142.3154296875,75.56271362304688C142.3154296875,75.37873840332031,142.17236328125,75.11299133300781,141.98828125,74.99034118652344C141.57958984375,74.68370819091797,141.82470703125,74.05000305175781,142.3359375,74.05000305175781C142.7451171875,74.05000305175781,142.86767578125,74.35663604736328,142.52001953125,74.56105041503906C142.21337890625,74.74503326416016,142.27490234375,75.07210540771484,142.6220703125,75.07210540771484C142.78564453125,75.07210540771484,142.9287109375,74.96989440917969,142.9287109375,74.86768341064453C142.9287109375,74.74503326416016,143.0517578125,74.66326904296875,143.21533203125,74.66326904296875C143.603515625,74.66326904296875,143.74658203125,74.21354675292969,143.76708984375,72.96658325195312L143.78759765625,71.90359497070312L143.9716796875,72.80304718017578C144.2578125,74.23397827148438,144.60546875,74.3770751953125,144.8095703125,73.17100524902344C144.912109375,72.59862518310547,145.259765625,72.72128295898438,145.5048828125,73.43675231933594L145.70947265625,74.07044982910156L145.95458984375,73.53895568847656C146.3837890625,72.59862518310547,146.28173828125,72.04669189453125,145.64794921875,71.96492004394531C145.1982421875,71.92404174804688,145.07568359375,71.8013916015625,145.07568359375,71.39254760742188C145.07568359375,70.96327209472656,145.177734375,70.8610610961914,145.7705078125,70.82017517089844C146.4453125,70.75885009765625,146.4453125,70.7384033203125,146.32275390625,69.94116973876953C146.22021484375,69.3687973022461,146.26123046875,69.14393615722656,146.4658203125,69.14393615722656C146.60888671875,69.14393615722656,146.87451171875,68.9599609375,147.0791015625,68.73509216308594C147.26318359375,68.51023864746094,147.52880859375,68.32625579833984,147.671875,68.32625579833984C147.81494140625,68.30581665039062,148.22412109375,68.08094787597656,148.55126953125,67.8152084350586C149.12353515625,67.34504699707031,149.12353515625,67.30415344238281,148.71484375,67.30415344238281C148.46923828125,67.30415344238281,148.22412109375,67.38592529296875,148.14208984375,67.4881362915039C148.0810546875,67.61078643798828,147.61083984375,67.89697265625,147.0791015625,68.1627197265625C145.525390625,68.93951416015625,142.9697265625,71.39254760742188,141.8046875,73.19144439697266C141.25244140625,74.09088897705078,139.9033203125,76.13508605957031,138.8193359375,77.75C137.75634765625,79.36491394042969,136.7548828125,81.02071380615234,136.611328125,81.40911102294922C136.12109375,82.81961059570312,135.32373046875,85.82457733154297,135.1806640625,86.94888305664062C135.078125,87.56214141845703,134.89404296875,88.29804992675781,134.7509765625,88.5433578491211C134.62841796875,88.8091049194336,134.546875,89.25882720947266,134.60791015625,89.54501342773438C134.66943359375,89.8311996459961,134.60791015625,90.24004364013672,134.46484375,90.4444580078125C134.28076171875,90.75109100341797,134.32177734375,90.95550537109375,134.58740234375,91.42567443847656C134.91455078125,92.01849365234375,134.91455078125,92.03893280029297,134.56689453125,92.03893280029297C134.05615234375,92.03893280029297,133.7900390625,92.40689086914062,133.62646484375,93.4085464477539C133.544921875,93.98091888427734,133.2587890625,94.4919662475586,132.78857421875,94.98257446289062C132.13427734375,95.65716552734375,132.11376953125,95.69804382324219,132.5634765625,95.75936889648438C132.9521484375,95.82069396972656,133.01318359375,95.96379089355469,133.05419921875,96.74058532714844C133.2177734375,100.8289794921875,133.23828125,101.78974914550781,133.15625,102.01461029052734C133.11572265625,102.15770721435547,132.80908203125,102.40300750732422,132.48193359375,102.56654357910156C131.74560546875,102.95494079589844,131.72509765625,103.24112701416016,132.46142578125,103.3228988647461L133.01318359375,103.38422393798828L133.05419921875,110.84554290771484C133.07470703125,117.87757873535156,133.13623046875,118.73613739013672,133.72900390625,121.98641204833984C134.05615234375,123.7239761352539,134.68994140625,124.664306640625,136.12109375,125.4615478515625C137,125.97259521484375,137.306640625,125.6864013671875,137.61328125,124.03060913085938C137.8994140625,122.53834533691406,138.14501953125,122.25215911865234,138.615234375,122.82453155517578C138.79931640625,123.0289535522461,139.2080078125,123.31513977050781,139.5556640625,123.41735076904297C139.96435546875,123.56044006347656,140.22998046875,123.82618713378906,140.35302734375,124.23502349853516C140.455078125,124.5825424194336,140.63916015625,125.11402893066406,140.7822265625,125.4615478515625C141.82470703125,127.91458129882812,141.8046875,127.79193115234375,141.7431640625,130.69468688964844C141.7021484375,132.30960083007812,141.763671875,133.8223114013672,141.88623046875,134.3129119873047C142.029296875,134.7830810546875,142.19287109375,136.19357299804688,142.294921875,137.48141479492188C142.3974609375,138.7488250732422,142.58154296875,139.99578857421875,142.7041015625,140.2410888671875C142.82666015625,140.4659423828125,142.9287109375,141.09963989257812,142.9287109375,141.61068725585938C142.9287109375,142.14218139648438,143.0517578125,142.85765075683594,143.21533203125,143.20516967773438C143.52197265625,143.92063903808594,144.07373046875,146.2510223388672,144.2373046875,147.55931091308594C144.298828125,148.02947998046875,144.5849609375,148.90847778320312,144.87109375,149.5012969970703C145.1572265625,150.1145477294922,145.38232421875,150.76869201660156,145.38232421875,150.97311401367188C145.38232421875,151.1775360107422,145.66845703125,151.89300537109375,145.99560546875,152.58802795410156C146.34326171875,153.2626190185547,146.60888671875,153.93719482421875,146.60888671875,154.08029174804688C146.60888671875,154.223388671875,146.89501953125,155.0206298828125,147.24267578125,155.8383026123047C147.59033203125,156.67642211914062,148.01953125,157.71896362304688,148.18310546875,158.16868591308594C148.3466796875,158.618408203125,148.6123046875,159.29299926757812,148.77587890625,159.66094970703125C148.939453125,160.02890014648438,149.06201171875,160.53994750976562,149.06201171875,160.80569458007812C149.06201171875,161.07144165039062,149.20556640625,161.3985137939453,149.36865234375,161.54161071777344C149.5322265625,161.68470764160156,149.67578125,161.97088623046875,149.67578125,162.15487670898438C149.67578125,162.66592407226562,149.8798828125,163.17697143554688,150.10498046875,163.17697143554688C150.45263671875,163.17697143554688,150.3095703125,161.7664794921875,149.94140625,161.58248901367188C149.73681640625,161.4598388671875,149.6552734375,161.25543212890625,149.75732421875,161.0305633544922C149.8798828125,160.7034912109375,149.94140625,160.72393798828125,150.37060546875,161.15321350097656C150.63623046875,161.41896057128906,150.98388671875,161.74603271484375,151.1474609375,161.88912963867188C151.59716796875,162.29795837402344,151.92431640625,162.7272491455078,152.12890625,163.2178497314453C152.25146484375,163.4835968017578,152.53759765625,164.0150909423828,152.7626953125,164.4034881591797C153.0078125,164.79188537597656,153.4169921875,165.52780151367188,153.703125,166.03884887695312C153.96875,166.54989624023438,154.3779296875,167.22447204589844,154.6025390625,167.57199096679688C154.80712890625,167.89906311035156,155.09326171875,168.43055725097656,155.2158203125,168.7371826171875C155.44091796875,169.28912353515625,155.80908203125,169.51397705078125,155.80908203125,169.10513305664062C155.80908203125,168.81895446777344,157.07666015625,167.06094360351562,157.28076171875,167.06094360351562C157.38330078125,167.06094360351562,157.4033203125,166.73387145996094,157.32177734375,166.34547424316406C157.19921875,165.67088317871094,157.2197265625,165.6300048828125,157.73046875,165.6300048828125C158.3642578125,165.6300048828125,158.3642578125,165.5686798095703,157.91455078125,164.79188537597656C157.58740234375,164.2399444580078,157.58740234375,164.17861938476562,157.91455078125,163.85154724121094C158.22119140625,163.544921875,158.30322265625,163.544921875,158.7939453125,163.8106689453125C159.1005859375,163.95376586914062,159.427734375,164.3421630859375,159.55029296875,164.6692352294922C159.79541015625,165.40513610839844,160.08154296875,165.3029327392578,160.40869140625,164.32171630859375C160.75634765625,163.320068359375,160.8994140625,163.19741821289062,161.2060546875,163.64712524414062C161.34912109375,163.83111572265625,161.57421875,163.99464416503906,161.69677734375,163.99464416503906C161.8193359375,163.99464416503906,161.9423828125,164.11729431152344,162.00341796875,164.2399444580078C162.04443359375,164.4034881591797,162.1669921875,164.42391967773438,162.26953125,164.32171630859375C162.37158203125,164.21951293945312,162.35107421875,164.09686279296875,162.2080078125,164.05596923828125C161.83984375,163.93331909179688,161.880859375,163.38137817382812,162.228515625,163.38137817382812C162.39208984375,163.38137817382812,162.65771484375,163.50404357910156,162.80078125,163.64712524414062C164.19091796875,164.95541381835938,165.0087890625,165.34381103515625,165.0087890625,164.64878845214844C165.0087890625,163.91287231445312,165.294921875,163.99464416503906,166.17431640625,164.95541381835938C167.38037109375,166.26370239257812,168.01416015625,167.3880157470703,168.177734375,168.49188232421875C168.259765625,169.0029296875,168.484375,169.63662719726562,168.66845703125,169.92282104492188C168.873046875,170.20899963378906,169.22021484375,170.822265625,169.4658203125,171.3128662109375L169.91552734375,172.19187927246094L169.30224609375,173.11175537109375C168.97509765625,173.622802734375,168.68896484375,174.11341857910156,168.68896484375,174.1951904296875C168.68896484375,174.27694702148438,168.443359375,174.7266845703125,168.1162109375,175.1559600830078C167.8095703125,175.58523559570312,167.44189453125,176.1780548095703,167.3193359375,176.4642333984375C167.17578125,176.75042724609375,166.78759765625,177.42501831054688,166.46044921875,177.9973907470703C166.11279296875,178.54931640625,165.7041015625,179.2852325439453,165.54052734375,179.63275146484375C165.376953125,179.95982360839844,164.94775390625,180.69573974609375,164.62060546875,181.26809692382812C164.27294921875,181.82003784179688,163.76171875,182.73992919921875,163.4755859375,183.3123016357422C163.1689453125,183.86422729492188,162.43310546875,184.98854064941406,161.8193359375,185.80621337890625C161.2060546875,186.6239013671875,160.71533203125,187.33937072753906,160.71533203125,187.40069580078125C160.71533203125,187.6868896484375,159.6318359375,188.933837890625,159.26416015625,189.03604125976562C159.0390625,189.11782836914062,158.87548828125,189.34268188476562,158.87548828125,189.62887573242188C158.87548828125,189.89462280273438,158.50732421875,190.44654846191406,157.95556640625,190.97802734375C157.4443359375,191.46864318847656,157.03564453125,191.97970581054688,157.03564453125,192.10235595703125C157.03564453125,192.2454376220703,156.62646484375,192.75650024414062,156.11572265625,193.26754760742188C155.6044921875,193.77859497070312,155.1953125,194.41229248046875,155.1953125,194.63714599609375C155.1953125,195.454833984375,154.091796875,195.8841094970703,151.98583984375,195.8841094970703C150.2890625,195.8841094970703,149.9619140625,195.82278442382812,148.9189453125,195.29129028320312C146.6904296875,194.1669921875,144.78955078125,193.73770141601562,144.42138671875,194.28964233398438C144.33935546875,194.4327392578125,144.07373046875,195.06643676757812,143.84912109375,195.6796875C143.43994140625,196.8040008544922,143.41943359375,196.8040008544922,142.6220703125,196.78355407714844C140.8232421875,196.7017822265625,138.16552734375,197.15151977539062,137.388671875,197.64212036132812C136.28466796875,198.33714294433594,135.56884765625,199.46145629882812,135.56884765625,200.52444458007812C135.56884765625,201.48519897460938,135.87548828125,201.68963623046875,136.18212890625,200.912841796875C136.693359375,199.56365966796875,139.00341796875,198.25537109375,139.9033203125,198.80731201171875C140.2099609375,199.01173400878906,140.27099609375,199.2570343017578,140.22998046875,200.07470703125L140.1689453125,201.0968017578125L138.9423828125,201.362548828125C138.267578125,201.50564575195312,137.306640625,201.77139282226562,136.79541015625,201.95538330078125C136.28466796875,202.11891174316406,135.50732421875,202.28244018554688,135.0576171875,202.32333374023438C134.05615234375,202.3846435546875,133.23828125,202.60951232910156,131.3984375,203.32498168945312C130.6416015625,203.61117553710938,129.783203125,203.85647583007812,129.4970703125,203.85647583007812C128.8837890625,203.85647583007812,126.59375,204.59237670898438,125.24462890625,205.22608947753906C124.671875,205.4713897705078,123.85400390625,205.69625854492188,123.3837890625,205.69625854492188C122.93408203125,205.69625854492188,121.78955078125,205.96200561523438,120.84912109375,206.30950927734375C119.88818359375,206.63658142089844,118.7841796875,206.92276000976562,118.375,206.92276000976562C117.94580078125,206.92276000976562,116.94384765625,207.20895385742188,116.12646484375,207.53602600097656C115.2880859375,207.883544921875,113.734375,208.35369873046875,112.6708984375,208.5785675048828C111.60791015625,208.80343627929688,110.64697265625,209.06918334960938,110.5244140625,209.17138671875C110.42236328125,209.25314331054688,109.76806640625,209.3758087158203,109.09326171875,209.4371337890625C108.41845703125,209.47801208496094,107.23291015625,209.7642059326172,106.435546875,210.07083129882812C105.65869140625,210.35702514648438,104.75927734375,210.60232543945312,104.47265625,210.60232543945312C104.166015625,210.60232543945312,103.6552734375,210.74542236328125,103.3486328125,210.90895080566406C103.021484375,211.07247924804688,102.46923828125,211.215576171875,102.12158203125,211.215576171875C101.7744140625,211.215576171875,101.140625,211.35867309570312,100.751953125,211.522216796875C100.34326171875,211.6857452392578,99.70947265625,211.82884216308594,99.34130859375,211.82884216308594C98.97314453125,211.82884216308594,98.17578125,212.11502075195312,97.5625,212.44210815429688C96.88818359375,212.81005859375,96.15185546875,213.05535888671875,95.7021484375,213.05535888671875C95.29345703125,213.05535888671875,94.49609375,213.19845581054688,93.94384765625,213.36199951171875C93.39208984375,213.52552795410156,92.67626953125,213.66860961914062,92.3291015625,213.66860961914062C92.001953125,213.66860961914062,91.53173828125,213.81170654296875,91.3271484375,213.97525024414062C91.10205078125,214.1387939453125,90.59130859375,214.28187561035156,90.18212890625,214.28187561035156C89.7734375,214.28187561035156,89.26220703125,214.4249725341797,89.037109375,214.5885009765625C88.8330078125,214.75204467773438,88.36279296875,214.8951416015625,88.01513671875,214.8951416015625C87.66748046875,214.8951416015625,87.2587890625,215.01779174804688,87.13623046875,215.1813201904297C87.01318359375,215.3448486328125,86.6044921875,215.50839233398438,86.236328125,215.56971740722656C85.86865234375,215.63104248046875,85.17333984375,215.77413940429688,84.662109375,215.917236328125C84.15087890625,216.03988647460938,83.31298828125,216.14208984375,82.7607421875,216.14208984375C81.71826171875,216.14208984375,78.365234375,216.75535583496094,77.4453125,217.12332153320312C77.1181640625,217.2459716796875,76.5458984375,217.34817504882812,76.1572265625,217.34817504882812C75.76904296875,217.34817504882812,75.11474609375,217.49127197265625,74.70556640625,217.65480041503906C74.3173828125,217.81832885742188,73.45849609375,217.96142578125,72.82470703125,217.96142578125C72.150390625,217.98187255859375,71.5166015625,218.10452270507812,71.29150390625,218.26806640625C71.06689453125,218.4520263671875,70.453125,218.57469177246094,69.9013671875,218.57469177246094C69.34912109375,218.57469177246094,68.6953125,218.7177734375,68.44970703125,218.88131713867188C68.14306640625,219.0857391357422,67.28466796875,219.20838928222656,65.853515625,219.249267578125C64.03369140625,219.31060791015625,63.583984375,219.39236450195312,62.888671875,219.80120849609375C62.45947265625,220.08740234375,61.62109375,220.3735809326172,61.048828125,220.43490600585938C60.4970703125,220.5166778564453,59.29052734375,220.70065307617188,58.39111328125,220.82330322265625C57.3486328125,220.98684692382812,55.52880859375,221.02772521972656,53.38232421875,220.94595336914062C51.52197265625,220.88462829589844,44.3046875,220.70065307617188,37.33349609375,220.5166778564453C30.36181640625,220.3531494140625,24.248779296875,220.12828063964844,23.73779296875,220.00563049316406C23.2265625,219.90341186523438,22.102294921875,219.8216552734375,21.24365234375,219.80120849609375C20.385009765625,219.80120849609375,19.60791015625,219.69900512695312,19.546630859375,219.59678649902344C19.4853515625,219.47413635253906,19.383056640625,206.7592315673828,19.34228515625,191.3255615234375C19.30126953125,175.87142944335938,19.219482421875,162.87033081054688,19.1376953125,162.44105529785156C18.912841796875,161.15321350097656,18.442626953125,160.41729736328125,17.583984375,160.04934692382812C16.909423828125,159.76315307617188,15.9892578125,159.70184326171875,11.511962890625,159.70184326171875C6.625732421875,159.681396484375,3.007080078125,159.51785278320312,0.185791015625,159.17034912109375L-1,159.02725219726562L-1,231.02383422851562L-1,303L137,303L275,303L275,270.2928466796875L275,237.58570861816406L272.8125,237.56527709960938C271.5859375,237.54483032226562,270.05224609375,237.54483032226562,269.3984375,237.56527709960938C268.7236328125,237.58570861816406,267.25146484375,237.442626953125,266.08642578125,237.27908325195312C264.81884765625,237.09510803222656,262.50830078125,236.9724578857422,260.1572265625,236.9724578857422C257.49951171875,236.9520263671875,255.90478515625,236.8702392578125,255.06689453125,236.66583251953125C254.2080078125,236.46141052246094,252.6337890625,236.35919189453125,249.91455078125,236.35919189453125C247.76806640625,236.35919189453125,245.7646484375,236.27743530273438,245.49853515625,236.1752166748047C245.21240234375,236.07301330566406,242.94287109375,235.8890380859375,240.42822265625,235.76638793945312C235.91015625,235.54151916503906,234.294921875,235.39842224121094,229.51123046875,234.80560302734375C228.16162109375,234.64207458496094,226.5263671875,234.51942443847656,225.892578125,234.51942443847656C225.23828125,234.51942443847656,224.70654296875,234.43765258789062,224.70654296875,234.33544921875C224.70654296875,233.88571166992188,225.36083984375,232.65921020507812,226.05615234375,231.84152221679688C227.6708984375,229.91998291015625,228.55029296875,229.55203247070312,232.57763671875,229.18406677246094C233.82470703125,229.06141662597656,235.6650390625,228.75479125976562,236.66650390625,228.46859741210938C237.68896484375,228.20285034179688,239.1611328125,227.91665649414062,239.978515625,227.83489990234375C242.69775390625,227.61004638671875,242.8818359375,227.20120239257812,242.9228515625,220.618896484375C242.9228515625,218.4315948486328,243.00439453125,215.7128143310547,243.1064453125,214.5885009765625C243.1884765625,213.46420288085938,243.1884765625,212.03326416015625,243.126953125,211.42001342773438C243.04541015625,210.80673217773438,243.06591796875,210.05038452148438,243.16796875,209.74375915527344C243.27001953125,209.396240234375,243.27001953125,208.92608642578125,243.126953125,208.51724243164062C242.98388671875,208.1083984375,242.96337890625,207.59735107421875,243.06591796875,207.22940063476562C243.16796875,206.88189697265625,243.16796875,206.3299560546875,243.06591796875,206.0028839111328C242.94287109375,205.55316162109375,243.00439453125,205.2056427001953,243.25,204.7354736328125C243.556640625,204.14266967773438,243.57666015625,203.95867919921875,243.31103515625,203.10012817382812C243.16796875,202.54818725585938,243.04541015625,201.87359619140625,243.06591796875,201.54653930664062C243.1474609375,200.23825073242188,243.1474609375,199.74765014648438,243.04541015625,197.35592651367188C242.98388671875,195.8841094970703,242.8408203125,194.73934936523438,242.69775390625,194.57582092285156C242.513671875,194.3305206298828,242.5546875,194.14654541015625,242.8203125,193.71725463867188C243.1884765625,193.1653289794922,243.1884765625,193.1653289794922,242.69775390625,192.8382568359375C242.41162109375,192.65428161621094,242.00244140625,192.32720947265625,241.77783203125,192.0819091796875C241.552734375,191.85704040527344,240.9599609375,191.5504150390625,240.44873046875,191.40731811523438C239.93798828125,191.26422119140625,239.20166015625,191.0802459716797,238.8134765625,190.9575958251953C238.4248046875,190.85537719726562,237.64794921875,190.83494567871094,237.07568359375,190.89627075195312C236.5029296875,190.9575958251953,235.64453125,190.89627075195312,235.13330078125,190.753173828125C233.9677734375,190.44654846191406,230.8193359375,190.3238983154297,230.5126953125,190.58963012695312C230.36962890625,190.71229553222656,230.10400390625,190.61007690429688,229.75634765625,190.28302001953125C229.2861328125,189.83328247070312,229.0205078125,189.7924041748047,227.466796875,189.77197265625C226.30126953125,189.77197265625,225.5654296875,189.6697540283203,225.29931640625,189.46533203125C225.07470703125,189.32223510742188,224.72705078125,189.22003173828125,224.5224609375,189.28135681152344C224.3388671875,189.32223510742188,224.05224609375,189.240478515625,223.9091796875,189.05648803710938C223.54150390625,188.62721252441406,222.58056640625,185.99020385742188,221.7421875,183.10787963867188C221.53759765625,182.43328857421875,221.27197265625,181.55429077148438,221.12890625,181.1658935546875C220.474609375,179.32611083984375,220.208984375,178.3653564453125,220.208984375,177.89517211914062C220.208984375,177.60899353027344,220.08642578125,177.20016479492188,219.9228515625,176.9752960205078C219.77978515625,176.75042724609375,219.595703125,176.2802734375,219.5341796875,175.95318603515625C219.39111328125,175.19683837890625,218.9619140625,173.74545288085938,218.3076171875,171.86480712890625C217.24462890625,168.75762939453125,217.2646484375,168.90072631835938,217.81689453125,167.63331604003906C218.10302734375,166.99961853027344,218.38916015625,166.2228240966797,218.47119140625,165.87530517578125L218.59375,165.26205444335938L219.10498046875,165.73220825195312C219.37060546875,165.97750854492188,219.595703125,166.28414916992188,219.595703125,166.40679931640625C219.595703125,166.73387145996094,219.96337890625,166.89739990234375,220.41357421875,166.75430297851562C220.63818359375,166.67254638671875,220.822265625,166.4476776123047,220.822265625,166.24325561523438C220.822265625,165.67088317871094,221.046875,165.20071411132812,221.25146484375,165.34381103515625C221.35400390625,165.40513610839844,221.435546875,165.67088317871094,221.435546875,165.9570770263672C221.435546875,166.34547424316406,221.53759765625,166.4476776123047,221.96728515625,166.4476776123047C222.47802734375,166.4476776123047,222.49853515625,166.4885711669922,222.3759765625,167.28579711914062C222.23291015625,168.1443634033203,222.23291015625,168.1443634033203,222.703125,167.83773803710938C222.9482421875,167.6741943359375,223.21435546875,167.26536560058594,223.2958984375,166.93829345703125C223.357421875,166.61122131347656,223.58203125,165.97750854492188,223.76611328125,165.54823303222656C224.13427734375,164.6692352294922,224.42041015625,164.73056030273438,224.54296875,165.71177673339844C224.6455078125,166.6929931640625,225.07470703125,166.5907745361328,225.2177734375,165.54823303222656C225.29931640625,165.0371856689453,225.4833984375,164.5056915283203,225.64697265625,164.38304138183594C225.810546875,164.26039123535156,225.93310546875,163.99464416503906,225.9130859375,163.8106689453125C225.9130859375,163.6062469482422,225.8720703125,163.5858154296875,225.7900390625,163.72889709472656C225.74951171875,163.8719940185547,225.6064453125,163.99464416503906,225.4833984375,163.99464416503906C225.34033203125,163.99464416503906,225.31982421875,163.64712524414062,225.40185546875,163.013427734375C225.68798828125,161.07144165039062,225.892578125,160.9079132080078,226.4853515625,162.09353637695312C226.73046875,162.60458374023438,226.99658203125,162.87033081054688,227.26220703125,162.87033081054688C227.6708984375,162.87033081054688,227.6708984375,162.87033081054688,228.12109375,160.62171936035156C228.345703125,159.4769744873047,228.6728515625,159.681396484375,228.79541015625,161.0305633544922C228.85693359375,161.64382934570312,229,162.15487670898438,229.10205078125,162.15487670898438C229.22509765625,162.15487670898438,229.3681640625,161.500732421875,229.44970703125,160.68304443359375C229.654296875,158.33221435546875,230.04248046875,155.9813995361328,230.34912109375,155.14328002929688C230.5126953125,154.73443603515625,230.6357421875,153.9576416015625,230.6357421875,153.44659423828125C230.6357421875,152.935546875,230.77880859375,152.24050903320312,230.962890625,151.9134521484375C231.2080078125,151.40240478515625,231.228515625,151.15708923339844,231.04443359375,150.6460418701172C230.9013671875,150.23721313476562,230.75830078125,148.11123657226562,230.71728515625,145.1880340576172C230.65576171875,141.83555603027344,230.533203125,140.09799194335938,230.34912109375,139.46429443359375C230.06298828125,138.60572814941406,229.81787109375,137.27700805664062,229.40869140625,134.55821228027344C229.12255859375,132.7593231201172,228.77490234375,131.24661254882812,228.427734375,130.42893981933594C228.20263671875,129.83612060546875,228.14111328125,129.1615447998047,228.24365234375,127.46485900878906C228.3046875,126.23834228515625,228.4482421875,124.99137878417969,228.57080078125,124.68475341796875C228.693359375,124.35768127441406,228.79541015625,123.37646484375,228.79541015625,122.47702026367188C228.79541015625,120.45326232910156,229.16357421875,118.00022888183594,229.53173828125,117.61183166503906C229.77685546875,117.34608459472656,229.85888671875,117.4278564453125,230.12451171875,118.08199310302734C230.30859375,118.51127624511719,230.5126953125,119.3289566040039,230.57421875,119.92176818847656C230.6357421875,120.49414825439453,230.880859375,121.27094268798828,231.10595703125,121.63890075683594L231.5146484375,122.33392333984375L231.98486328125,121.74110412597656C232.3935546875,121.23005676269531,232.455078125,120.9438705444336,232.4755859375,119.3289566040039C232.4755859375,117.61183166503906,232.29150390625,116.30354309082031,231.53515625,113.15547943115234C231.37158203125,112.46045684814453,231.2490234375,110.84554290771484,231.228515625,109.4759292602539C231.228515625,105.77593231201172,230.71728515625,100.50190734863281,230.267578125,99.09141540527344C230.14501953125,98.743896484375,229.9609375,98.15107727050781,229.81787109375,97.76268005371094C229.6748046875,97.37428283691406,229.49072265625,96.72014617919922,229.40869140625,96.33174896240234C229.2451171875,95.63671875,228.958984375,94.7577133178711,228.55029296875,93.6742935180664C228.427734375,93.38810729980469,228.20263671875,92.65219116210938,228.0390625,92.03893280029297C227.87548828125,91.42567443847656,227.56884765625,90.50578308105469,227.32373046875,89.99473571777344C226.771484375,88.78866577148438,226.46484375,88.05274963378906,226.03564453125,86.9284439086914C225.8515625,86.41738891601562,225.5654296875,85.74281311035156,225.40185546875,85.4361801147461C225.23828125,85.1091079711914,225.11572265625,84.70027160644531,225.11572265625,84.51628875732422C225.11572265625,84.33231353759766,224.97265625,83.98480224609375,224.80908203125,83.78038024902344C224.6455078125,83.5555191040039,224.50244140625,83.18756103515625,224.50244140625,82.96269989013672C224.50244140625,82.71739959716797,224.35888671875,82.34944152832031,224.1953125,82.14501953125C224.0322265625,81.920166015625,223.888671875,81.55220794677734,223.888671875,81.30690002441406C223.888671875,81.06159973144531,223.76611328125,80.46878051757812,223.6025390625,79.95773315429688C223.43896484375,79.46712493896484,223.11181640625,78.4245834350586,222.88720703125,77.64778900146484C222.3349609375,75.86933898925781,220.92431640625,72.94613647460938,220.16796875,71.98536682128906C219.861328125,71.57652282714844,219.595703125,71.14724731445312,219.595703125,71.06547546386719C219.595703125,70.49310302734375,213.74853515625,65.25996398925781,213.11474609375,65.25996398925781C212.76708984375,65.25996398925781,211.43798828125,63.8085823059082,211.029296875,62.95001983642578C210.8046875,62.479854583740234,210.333984375,61.62129211425781,209.98681640625,61.069358825683594C209.65966796875,60.49698257446289,209.29150390625,59.86328125,209.1689453125,59.63842010498047C209.06689453125,59.41355895996094,208.8828125,59.08648681640625,208.759765625,58.922950744628906C208.2490234375,58.146156311035156,207.3291015625,55.856658935546875,207.3291015625,55.38649368286133C207.3291015625,55.100303649902344,207.2470703125,54.814117431640625,207.14501953125,54.75279235839844C207.0224609375,54.671024322509766,207.04248046875,54.405277252197266,207.16552734375,54.05776596069336C207.34912109375,53.58760070800781,207.2880859375,53.32185363769531,206.73583984375,52.29975509643555C205.958984375,50.8483772277832,205.9384765625,50.541748046875,206.61328125,50.541748046875C206.9404296875,50.541748046875,207.12451171875,50.41909408569336,207.12451171875,50.2351188659668C207.12451171875,50.07158279418945,207.04248046875,49.928489685058594,206.919921875,49.928489685058594C206.81787109375,49.928489685058594,206.71533203125,49.54009246826172,206.71533203125,49.09036636352539C206.71533203125,48.51799392700195,206.5927734375,48.12959671020508,206.3681640625,47.94561767578125C206.10205078125,47.7411994934082,206.0615234375,47.61854553222656,206.265625,47.557220458984375C206.8994140625,47.271034240722656,206.9609375,46.65777587890625,206.40869140625,45.717445373535156C206.0615234375,45.14506912231445,205.91845703125,44.65446472167969,206,44.409156799316406C206.08154296875,44.143409729003906,205.958984375,43.714134216308594,205.693359375,43.28485107421875C205.4482421875,42.896453857421875,205.22314453125,42.160545349121094,205.20263671875,41.629051208496094C205.16162109375,41.077117919921875,204.95751953125,40.44342041015625,204.69140625,40.11634826660156C204.466796875,39.789276123046875,204.26220703125,39.38043212890625,204.26220703125,39.216896057128906C204.26220703125,39.05335998535156,204.16015625,38.84894561767578,204.0576171875,38.787620544433594C203.91455078125,38.705848693847656,203.97607421875,38.440101623535156,204.20068359375,38.05170440673828C204.52783203125,37.479331970214844,204.52783203125,37.418006896972656,204.20068359375,36.78430938720703C204.01708984375,36.436790466308594,203.853515625,35.94618225097656,203.853515625,35.72132110595703C203.853515625,35.4964599609375,203.7919921875,34.96497344970703,203.73046875,34.53569030761719C203.64892578125,34.106407165527344,203.68994140625,33.65668487548828,203.8125,33.513587951660156C203.93505859375,33.37049865722656,204.01708984375,32.94121551513672,204.01708984375,32.552818298339844C203.99658203125,31.91912078857422,204.1806640625,31.673812866210938,205.81591796875,30.140670776367188C206.81787109375,29.200340270996094,207.83984375,28.341773986816406,208.10595703125,28.260009765625C208.65771484375,28.03514862060547,208.67822265625,27.667190551757812,208.2080078125,26.318023681640625C207.533203125,24.31470489501953,205.3662109375,21.80034637451172,204.26220703125,21.71857452392578C204.0986328125,21.71857452392578,203.771484375,21.575485229492188,203.56689453125,21.411949157714844C203.34228515625,21.2484130859375,202.97412109375,21.105316162109375,202.72900390625,21.105316162109375C202.4833984375,21.105316162109375,201.68603515625,20.49205780029297,200.78662109375,19.613052368164062C199.9482421875,18.774932861328125,198.92626953125,17.936813354492188,198.53759765625,17.711952209472656C198.1494140625,17.507530212402344,197.556640625,17.11913299560547,197.25,16.8533935546875C196.9228515625,16.60808563232422,196.47265625,16.403671264648438,196.2275390625,16.403671264648438C195.982421875,16.383224487304688,195.40966796875,16.219688415527344,194.9599609375,15.994827270507812C194.51025390625,15.769966125488281,193.87646484375,15.606430053710938,193.56982421875,15.585990905761719C193.26318359375,15.585990905761719,192.67041015625,15.442893981933594,192.26123046875,15.27935791015625C191.64794921875,15.01361083984375,190.60546875,14.972732543945312,186.31201171875,15.01361083984375C183.47021484375,15.054496765136719,181.01708984375,15.136268615722656,180.89404296875,15.218032836914062ZM179.11572265625,17.11913299560547C178.8701171875,17.425765991210938,178.50244140625,17.36444091796875,178.50244140625,16.996482849121094C178.50244140625,16.894271850585938,178.70654296875,16.81250762939453,178.931640625,16.81250762939453C179.29931640625,16.81250762939453,179.31982421875,16.8533935546875,179.11572265625,17.11913299560547ZM172.328125,21.53459930419922C171.9599609375,21.7799072265625,171.14208984375,21.75946044921875,171.14208984375,21.53459930419922C171.14208984375,21.309738159179688,171.9189453125,21.146202087402344,172.328125,21.26885223388672C172.552734375,21.350624084472656,172.552734375,21.391510009765625,172.328125,21.53459930419922ZM202.15625,21.53459930419922C203.46484375,21.861671447753906,203.7509765625,21.98432159423828,204.7939453125,22.740676879882812C205.50927734375,23.251724243164062,206.49072265625,25.500343322753906,206.16357421875,25.827415466308594C206.0615234375,25.9091796875,205.52978515625,25.766090393066406,204.93701171875,25.500343322753906C204.34423828125,25.214157104492188,203.158203125,24.90752410888672,202.279296875,24.805313110351562C200.76611328125,24.621337890625,200.623046875,24.64177703857422,199.35546875,25.193710327148438C198.61962890625,25.500343322753906,197.69970703125,25.827415466308594,197.31103515625,25.9091796875C196.32958984375,26.113601684570312,195.14404296875,26.747299194335938,195.0009765625,27.135696411132812C194.9189453125,27.299232482910156,194.6533203125,27.44232940673828,194.3671875,27.44232940673828C194.1015625,27.44232940673828,193.83544921875,27.585418701171875,193.75390625,27.74895477294922C193.6923828125,27.912490844726562,193.52880859375,28.055587768554688,193.3857421875,28.055587768554688C193.24267578125,28.055587768554688,191.97509765625,28.48487091064453,190.564453125,28.975479125976562C189.17431640625,29.486526489257812,187.90673828125,29.854476928710938,187.763671875,29.8135986328125C187.333984375,29.650062561035156,187.45703125,29.2821044921875,187.98828125,29.077682495117188C188.25439453125,28.975479125976562,188.54052734375,28.79149627685547,188.6220703125,28.689285278320312C188.68359375,28.566635131835938,189.0107421875,28.46442413330078,189.3173828125,28.46442413330078C189.64453125,28.46442413330078,190.01220703125,28.321334838867188,190.15576171875,28.157798767089844C190.298828125,27.9942626953125,190.5849609375,27.851165771484375,190.8095703125,27.851165771484375C191.03466796875,27.851165771484375,191.4638671875,27.728515625,191.75,27.564979553222656C192.05712890625,27.42188262939453,192.64990234375,27.135696411132812,193.05859375,26.95172119140625C194.83740234375,26.1749267578125,195.3486328125,25.86829376220703,196.35009765625,24.968849182128906C196.94287109375,24.457801818847656,197.63818359375,23.57879638671875,197.90380859375,23.02686309814453C198.66064453125,21.452835083007812,198.86474609375,21.309738159179688,200.091796875,21.309738159179688C200.705078125,21.309738159179688,201.625,21.411949157714844,202.15625,21.53459930419922ZM197.39306640625,21.922996520996094C197.63818359375,22.168304443359375,197.33154296875,22.55670166015625,196.94287109375,22.51581573486328C196.2685546875,22.454490661621094,196.08447265625,22.5362548828125,196.08447265625,22.945098876953125C196.08447265625,23.61968231201172,195.77783203125,23.394821166992188,195.73681640625,22.679351806640625C195.67578125,21.636810302734375,195.77783203125,21.51416015625,196.5341796875,21.636810302734375C196.90234375,21.71857452392578,197.29052734375,21.841232299804688,197.39306640625,21.922996520996094ZM192.6904296875,22.84288787841797C192.97705078125,23.251724243164062,192.99755859375,23.251724243164062,193.48779296875,22.78156280517578C194.1015625,22.188743591308594,194.71484375,22.352279663085938,194.53076171875,23.0677490234375C194.42822265625,23.476585388183594,194.48974609375,23.55835723876953,194.83740234375,23.55835723876953C195.08251953125,23.55835723876953,195.2666015625,23.660568237304688,195.2666015625,23.783218383789062C195.2666015625,23.905868530273438,195.021484375,23.987632751464844,194.71484375,23.967193603515625C193.79443359375,23.905868530273438,193.63134765625,23.946754455566406,193.63134765625,24.273826599121094C193.63134765625,24.478240966796875,193.4267578125,24.58045196533203,193.0791015625,24.58045196533203L192.5068359375,24.58045196533203L192.99755859375,24.192054748535156C193.26318359375,23.987632751464844,193.4267578125,23.721893310546875,193.3447265625,23.57879638671875C193.140625,23.272171020507812,192.833984375,23.29261016845703,192.1181640625,23.660568237304688C191.443359375,24.028518676757812,190.8505859375,24.048965454101562,190.66650390625,23.742332458496094C190.5849609375,23.640121459960938,190.298828125,23.456146240234375,190.03271484375,23.35393524169922C188.94921875,22.924652099609375,189.74658203125,22.393165588378906,191.40283203125,22.413604736328125C192.138671875,22.434043884277344,192.4658203125,22.5362548828125,192.6904296875,22.84288787841797ZM178.39990234375,25.316360473632812C178.39990234375,25.561668395996094,178.236328125,25.725204467773438,177.9501953125,25.766090393066406C177.43896484375,25.847854614257812,177.31640625,25.43901824951172,177.72509765625,25.030174255371094C178.07275390625,24.682662963867188,178.39990234375,24.825759887695312,178.39990234375,25.316360473632812ZM171.0810546875,31.3671875C170.7744140625,31.551162719726562,170.0380859375,31.57160186767578,169.85400390625,31.38762664794922C169.7724609375,31.32630157470703,169.95654296875,31.1014404296875,170.28369140625,30.897018432617188C170.7744140625,30.59039306640625,170.85595703125,30.59039306640625,171.0810546875,30.87657928466797C171.28515625,31.14232635498047,171.28515625,31.224090576171875,171.0810546875,31.3671875ZM186.537109375,31.34674072265625C186.29150390625,31.83734893798828,186.1689453125,31.939559936523438,186.107421875,31.694259643554688C186.04638671875,31.38762664794922,186.65966796875,30.426856994628906,186.8232421875,30.59039306640625C186.86376953125,30.61083221435547,186.720703125,30.958343505859375,186.537109375,31.34674072265625ZM169.30224609375,33.12519073486328C168.75,33.20696258544922,168.60693359375,33.084312438964844,168.7705078125,32.63459014892578C168.8935546875,32.32795715332031,168.93408203125,32.32795715332031,169.32275390625,32.67546844482422L169.751953125,33.063865661621094L169.30224609375,33.12519073486328ZM168.791015625,34.39259338378906C168.72998046875,34.49480438232422,168.525390625,34.597015380859375,168.36181640625,34.597015380859375C168.1982421875,34.597015380859375,168.07568359375,34.49480438232422,168.07568359375,34.39259338378906C168.07568359375,34.26994323730469,168.259765625,34.18817901611328,168.5048828125,34.18817901611328C168.72998046875,34.18817901611328,168.8525390625,34.26994323730469,168.791015625,34.39259338378906ZM164.3955078125,45.635677337646484C164.3955078125,45.79921340942383,162.08544921875,48.190921783447266,161.267578125,48.885948181152344C160.9609375,49.13125228881836,160.9404296875,49.09036636352539,161.06298828125,48.477108001708984C161.14501953125,48.047828674316406,161.47216796875,47.53677749633789,161.921875,47.148380279541016C162.33056640625,46.780426025390625,162.94384765625,46.24893569946289,163.27099609375,45.962745666503906C163.88427734375,45.43125534057617,164.3955078125,45.26771926879883,164.3955078125,45.635677337646484ZM163.7822265625,47.90473556518555C163.7822265625,48.00694274902344,163.63916015625,48.08871078491211,163.4755859375,48.08871078491211C163.1689453125,48.08871078491211,163.06689453125,47.843406677246094,163.29150390625,47.61854553222656C163.455078125,47.45500946044922,163.7822265625,47.63898849487305,163.7822265625,47.90473556518555ZM160.53173828125,52.851688385009766C160.265625,53.117435455322266,160,52.91301345825195,160.20458984375,52.60638427734375C160.265625,52.483734130859375,160.42919921875,52.442848205566406,160.5517578125,52.50417709350586C160.6748046875,52.58594512939453,160.6748046875,52.708595275878906,160.53173828125,52.851688385009766ZM159.85693359375,53.64892578125C159.48876953125,54.180416107177734,159.080078125,54.36439514160156,159.080078125,53.97599792480469C159.080078125,53.6080436706543,159.48876953125,53.19920349121094,159.85693359375,53.19920349121094C160.10205078125,53.19920349121094,160.10205078125,53.260528564453125,159.85693359375,53.64892578125ZM163.57763671875,58.677650451660156C163.57763671875,58.77985763549805,163.35302734375,59.06604766845703,163.06689453125,59.331790924072266C162.7802734375,59.597537994384766,162.5556640625,59.90416717529297,162.5556640625,60.026817321777344C162.5556640625,60.27212142944336,161.3291015625,61.028472900390625,161.185546875,60.885379791259766C161.0224609375,60.742286682128906,163.02587890625,58.51411437988281,163.33251953125,58.51411437988281C163.455078125,58.51411437988281,163.57763671875,58.595882415771484,163.57763671875,58.677650451660156ZM165.724609375,60.35388946533203C165.78564453125,60.45610046386719,166.03125,60.55830764770508,166.255859375,60.55830764770508C167.11474609375,60.55830764770508,166.50146484375,61.294219970703125,165.45849609375,61.49863815307617C164.92724609375,61.60084915161133,164.8046875,61.559967041015625,164.8046875,61.294219970703125C164.8046875,60.49698257446289,165.41796875,59.86328125,165.724609375,60.35388946533203ZM160.306640625,62.00968933105469C160.306640625,62.438968658447266,158.998046875,64.033447265625,158.65087890625,64.033447265625C158.466796875,64.033447265625,158.16015625,64.25830078125,157.97607421875,64.54449462890625C157.7919921875,64.83068084716797,157.546875,65.0555419921875,157.423828125,65.0555419921875C157.28076171875,65.0555419921875,157.28076171875,64.93289184570312,157.46484375,64.72846984863281C157.68994140625,64.4422836303711,157.68994140625,64.36051940917969,157.38330078125,64.13565063476562C156.97412109375,63.849464416503906,157.26025390625,63.501953125,157.7509765625,63.68592834472656C157.89404296875,63.747257232666016,158.1806640625,63.60416030883789,158.4052734375,63.37929916381836C158.6708984375,63.072669982910156,158.7119140625,62.9295768737793,158.52783203125,62.86825180053711C158.078125,62.704715728759766,158.24169921875,62.41852951049805,158.93701171875,62.111900329589844C159.734375,61.74394226074219,160.306640625,61.703060150146484,160.306640625,62.00968933105469ZM164.31396484375,62.90913391113281C164.02734375,63.29753112792969,163.37353515625,63.890350341796875,162.8623046875,64.25830078125C162.35107421875,64.62625885009766,161.921875,65.07598876953125,161.921875,65.23951721191406C161.9013671875,65.42349243164062,161.880859375,65.75056457519531,161.8603515625,65.97543334960938C161.83984375,66.50691986083984,160.388671875,67.2223892211914,160.0205078125,66.89531707763672C159.6318359375,66.58868408203125,158.4873046875,67.12017822265625,157.87353515625,67.89697265625C157.30126953125,68.59200286865234,157.03564453125,68.55111694335938,157.03564453125,67.77432250976562C157.03564453125,67.2837142944336,157.01513671875,67.26327514648438,156.68798828125,67.5494613647461C156.4833984375,67.71299743652344,155.849609375,68.20360565185547,155.2568359375,68.59200286865234L154.19384765625,69.32791137695312L153.96875,68.61244201660156C153.82568359375,68.22404479980469,153.7646484375,67.87653350830078,153.80517578125,67.83564758300781C153.82568359375,67.8152084350586,154.357421875,67.59034729003906,154.9296875,67.32460021972656C155.5224609375,67.03840637207031,156.197265625,66.62957763671875,156.44287109375,66.36383056640625C156.7900390625,65.9958724975586,157.01513671875,65.9345474243164,157.68994140625,66.01631164550781C158.384765625,66.11852264404297,158.56884765625,66.05719757080078,158.998046875,65.5870361328125C159.28466796875,65.30084228515625,159.693359375,65.0555419921875,159.89794921875,65.0555419921875C160.12255859375,65.0555419921875,160.306640625,64.93289184570312,160.306640625,64.76935577392578C160.306640625,64.58537292480469,160.44970703125,64.5240478515625,160.6748046875,64.58537292480469C160.9404296875,64.64669799804688,161.2880859375,64.42184448242188,161.73779296875,63.95167541503906C162.12646484375,63.56327819824219,162.759765625,63.09311294555664,163.1484375,62.9295768737793C163.55712890625,62.76604080200195,164.068359375,62.45941162109375,164.29345703125,62.23455047607422C164.90673828125,61.6417350769043,164.92724609375,62.111900329589844,164.31396484375,62.90913391113281ZM165.376953125,64.36051940917969C165.19287109375,64.54449462890625,164.94775390625,64.62625885009766,164.8046875,64.54449462890625C164.62060546875,64.42184448242188,164.681640625,64.2991943359375,165.029296875,64.1152114868164C165.6220703125,63.8085823059082,165.80615234375,63.93123245239258,165.376953125,64.36051940917969ZM156.97412109375,64.31962585449219C157.19921875,64.5240478515625,155.931640625,64.87156677246094,155.37939453125,64.74891662597656C154.888671875,64.64669799804688,154.76611328125,64.70802307128906,154.47998046875,65.23951721191406C154.31640625,65.5870361328125,154.0302734375,65.87321472167969,153.86669921875,65.87321472167969C153.4580078125,65.87321472167969,153.47802734375,65.34172821044922,153.86669921875,65.17819213867188C154.0302734375,65.11686706542969,154.17333984375,64.85111999511719,154.17333984375,64.60581970214844C154.17333984375,64.15609741210938,154.23486328125,64.13565063476562,155.5224609375,64.1765365600586C156.2587890625,64.19697570800781,156.9130859375,64.25830078125,156.97412109375,64.31962585449219ZM167.17578125,66.24118041992188C166.951171875,66.44559478759766,166.8896484375,66.17984771728516,167.03271484375,65.46438598632812L167.15576171875,64.74891662597656L167.216796875,65.42349243164062C167.2578125,65.8118896484375,167.2373046875,66.15940856933594,167.17578125,66.24118041992188ZM165.0087890625,66.609130859375C165.0087890625,66.95664978027344,164.53857421875,67.50857543945312,164.23193359375,67.50857543945312C164.0478515625,67.50857543945312,163.65966796875,67.83564758300781,163.3935546875,68.22404479980469C163.1279296875,68.61244201660156,162.841796875,68.93951416015625,162.73974609375,68.93951416015625C162.63720703125,68.93951416015625,162.10595703125,69.20526123046875,161.57421875,69.55277252197266C161.0224609375,69.87984466552734,160.51123046875,70.16603088378906,160.42919921875,70.16603088378906C160.08154296875,70.16603088378906,160.40869140625,69.63453674316406,161.2470703125,68.81686401367188C161.9423828125,68.1627197265625,162.31005859375,67.93785858154297,162.5966796875,68.04006958007812C162.96435546875,68.14227294921875,163.27099609375,67.91741943359375,164.21142578125,66.73178100585938C164.416015625,66.48648071289062,165.0087890625,66.38426971435547,165.0087890625,66.609130859375ZM173.595703125,178.61065673828125C173.595703125,181.61561584472656,174.2294921875,191.2437744140625,174.43359375,191.46864318847656C174.5361328125,191.57086181640625,174.69970703125,191.57086181640625,174.86328125,191.46864318847656C175.00634765625,191.3459930419922,175.4765625,191.14157104492188,175.92626953125,190.99847412109375C176.62109375,190.753173828125,176.7646484375,190.77362060546875,177.23486328125,191.12112426757812C177.970703125,191.67306518554688,178.01171875,191.95925903320312,177.3779296875,192.20455932617188C176.60107421875,192.5111846923828,175.84423828125,192.44985961914062,175.7216796875,192.10235595703125C175.57861328125,191.75482177734375,174.90380859375,191.69351196289062,174.69970703125,192.02056884765625C174.63818359375,192.14321899414062,174.35205078125,192.18411254882812,174.1064453125,192.12278747558594C173.63623046875,192.00013732910156,172.36865234375,192.18411254882812,170.52880859375,192.65428161621094C170.017578125,192.7769317626953,169.404296875,193.10400390625,169.1796875,193.34930419921875C168.8525390625,193.67637634277344,168.40283203125,193.83990478515625,167.44189453125,193.94212341308594C165.49951171875,194.14654541015625,164.90673828125,194.04434204101562,164.94775390625,193.49240112304688C164.9677734375,193.26754760742188,164.86572265625,192.94046020507812,164.7021484375,192.81781005859375C164.31396484375,192.49075317382812,164.29345703125,190.99847412109375,164.681640625,190.11947631835938C164.84521484375,189.75152587890625,165.13134765625,189.03604125976562,165.3359375,188.52499389648438C165.54052734375,188.01394653320312,165.82666015625,187.46202087402344,165.9697265625,187.27804565429688C166.11279296875,187.114501953125,166.2353515625,186.86920166015625,166.2353515625,186.76699829101562C166.2353515625,186.0310821533203,171.591796875,177.54766845703125,172.9208984375,176.19850158691406C173.45263671875,175.64657592773438,173.595703125,176.09628295898438,173.595703125,178.61065673828125ZM211.41796875,183.06700134277344C211.41796875,183.43495178222656,211.376953125,183.4553985595703,211.21337890625,183.2100830078125C210.94775390625,182.80125427246094,210.94775390625,182.33108520507812,211.21337890625,182.49462890625C211.3359375,182.55593872070312,211.41796875,182.82168579101562,211.41796875,183.06700134277344ZM211.43798828125,184.4979248046875C211.41796875,184.7432403564453,211.13134765625,184.68191528320312,211.0498046875,184.41616821289062C210.98828125,184.29351806640625,211.0703125,184.2117462158203,211.21337890625,184.25262451171875C211.3359375,184.31396484375,211.43798828125,184.41616821289062,211.43798828125,184.4979248046875ZM182.18212890625,188.83163452148438C182.18212890625,188.99517822265625,181.28271484375,189.30178833007812,181.0986328125,189.1995849609375C180.8125,189.03604125976562,181.1806640625,188.72943115234375,181.69140625,188.72943115234375C181.95751953125,188.72943115234375,182.18212890625,188.7703094482422,182.18212890625,188.83163452148438ZM172.16455078125,193.81947326660156C172.16455078125,194.24874877929688,171.55126953125,194.51449584960938,171.0400390625,194.28964233398438C170.28369140625,193.94212341308594,170.4267578125,193.635498046875,171.3466796875,193.635498046875C171.79638671875,193.635498046875,172.16455078125,193.71725463867188,172.16455078125,193.81947326660156ZM162.41259765625,195.57748413085938C162.33056640625,195.8841094970703,161.267578125,195.82278442382812,161.16552734375,195.51614379882812C161.10400390625,195.31173706054688,161.267578125,195.2504119873047,161.75830078125,195.31173706054688C162.146484375,195.3526153564453,162.43310546875,195.454833984375,162.41259765625,195.57748413085938ZM163.7822265625,195.57748413085938C163.7822265625,195.7410125732422,163.65966796875,195.8841094970703,163.49609375,195.8841094970703C163.1484375,195.8841094970703,162.92333984375,195.59793090820312,163.107421875,195.39349365234375C163.35302734375,195.148193359375,163.7822265625,195.27084350585938,163.7822265625,195.57748413085938ZM145.38232421875,196.59957885742188C145.38232421875,197.21282958984375,145.09619140625,197.39682006835938,144.76904296875,197.02886962890625C144.60546875,196.8040008544922,144.5849609375,196.62002563476562,144.76904296875,196.29293823242188C145.05517578125,195.78189086914062,145.38232421875,195.9454345703125,145.38232421875,196.59957885742188ZM156.4833984375,197.33547973632812C156.23828125,197.58079528808594,155.9521484375,197.7034454345703,155.80908203125,197.62167358398438C155.6455078125,197.51947021484375,155.76806640625,197.35592651367188,156.15625,197.11062622070312C156.8720703125,196.66090393066406,157.03564453125,196.78355407714844,156.4833984375,197.33547973632812ZM154.58203125,198.05096435546875C154.58203125,198.31671142578125,154.43896484375,198.3575897216797,153.9482421875,198.25537109375C153.60107421875,198.19406127929688,153.0693359375,198.11227416992188,152.7626953125,198.0918426513672C152.31298828125,198.0714111328125,153.08984375,197.90786743164062,154.3369140625,197.7647705078125C154.45947265625,197.74432373046875,154.58203125,197.86697387695312,154.58203125,198.05096435546875ZM155.27734375,200.6675262451172C155.1953125,201.15814208984375,155.236328125,201.7305145263672,155.37939453125,201.97581481933594C155.70654296875,202.56863403320312,155.2978515625,202.7526092529297,154.9091796875,202.18023681640625C154.50048828125,201.58741760253906,154.50048828125,200.50399780273438,154.9091796875,200.09515380859375C155.37939453125,199.625,155.39990234375,199.66586303710938,155.27734375,200.6675262451172ZM155.54296875,203.938232421875C155.8701171875,204.63327026367188,155.80908203125,205.28741455078125,155.39990234375,205.28741455078125C155.27734375,205.28741455078125,155.15478515625,205.16476440429688,155.11376953125,205.02166748046875C155.07275390625,204.89901733398438,154.9501953125,204.49017333984375,154.84814453125,204.12222290039062C154.47998046875,203.0183563232422,155.0322265625,202.87525939941406,155.54296875,203.938232421875ZM155.5634765625,206.24818420410156C155.6455078125,206.98410034179688,154.72509765625,208.639892578125,154.31640625,208.49679565429688C153.96875,208.3741455078125,154.05078125,207.0863037109375,154.45947265625,206.20730590820312C154.9091796875,205.28741455078125,155.48193359375,205.307861328125,155.5634765625,206.24818420410156ZM180.1787109375,215.3448486328125C179.9130859375,215.610595703125,179.64697265625,215.1813201904297,179.8310546875,214.73159790039062C179.95361328125,214.40452575683594,179.97412109375,214.40452575683594,180.1787109375,214.75204467773438C180.32177734375,215.01779174804688,180.32177734375,215.20176696777344,180.1787109375,215.3448486328125ZM161.9423828125,240.5702362060547C161.9423828125,240.91775512695312,161.49267578125,240.85643005371094,161.36962890625,240.4884796142578C161.3291015625,240.3453826904297,161.43115234375,240.2431640625,161.615234375,240.2431640625C161.79931640625,240.2431640625,161.9423828125,240.38626098632812,161.9423828125,240.5702362060547ZM164.375,241.44924926757812C164.60009765625,241.59234619140625,164.55908203125,241.71499633789062,164.21142578125,242.0625C163.7822265625,242.49179077148438,163.1689453125,242.45089721679688,163.1689453125,241.96029663085938C163.1689453125,241.81719970703125,163.33251953125,241.59234619140625,163.537109375,241.49012756347656C163.96630859375,241.22438049316406,164.02734375,241.22438049316406,164.375,241.44924926757812Z"/></g></g></g></g></g></g></g><g id="strokes-d35f8cf1-db90-80e2-8007-0a23521a07da-0b9f7566-f66f-80f0-8006-2f6fe4635ed3" class="strokes"><g class="inner-stroke-shape" transform="matrix(1.000000, 0.000000, 0.000000, 1.000000, 0.000000, 0.000000)"><defs><clipPath id="inner-stroke-render-232-0b9f7566-f66f-80f0-8006-2f6fe4635ed3-0"><use href="#stroke-shape-render-232-0b9f7566-f66f-80f0-8006-2f6fe4635ed3-0"/></clipPath><rect width="231" height="269.0000000000001" class="frame-background" x="0" id="stroke-shape-render-232-0b9f7566-f66f-80f0-8006-2f6fe4635ed3-0" style="fill: none; stroke-width: 8; stroke: rgb(0, 0, 0); stroke-opacity: 1;" ry="0" rx="0" y="0"/></defs><use href="#stroke-shape-render-232-0b9f7566-f66f-80f0-8006-2f6fe4635ed3-0" clip-path="url('#inner-stroke-render-232-0b9f7566-f66f-80f0-8006-2f6fe4635ed3-0')"/></g></g></g></g></g></svg>