<svg  height="225px" width="225px" xmlns="http://www.w3.org/2000/svg" fill="none" viewBox="-6 -6 237 237"><g class="prefix__frame-container-wrapper"><g class="prefix__frame-container-blur"><g class="prefix__frame-container-shadows"><g class="prefix__fills"><rect width="225" height="225" class="prefix__frame-background" rx="0" ry="0"/></g><g class="prefix__frame-children"><g fill="#000"><path d="M25.879 4.2c-.2 9.798-1.899 14.598-7.494 20.897-4.197 4.8-9.692 13.799-7.494 12.399.6-.3 1.099-.1 1.099.5s-.699 1.3-1.499 1.6c-.799.4-1.498 1.2-1.498 1.999s-.4 1.4-.9 1.4c-1.299 0-2.897 5-2.997 9.499-.1 4.9 3.897 21.498 5.595 23.298.7.7 1.299 2 1.299 2.7 0 .799.7 1.799 1.599 2.299 1.499.8 1.499 1.1-.4 3-1.099 1.1-1.798 2.2-1.599 2.5.3.3.5 2.299.6 4.599 0 3.9.999 5.3 2.098 3.1.3-.6.4-.5.3.2s-1.599 1.4-3.197 1.5-2.998.7-3.198 1.3c-.2.499-.799.799-1.299.499s-1.898 0-3.097.7c-1.299.7-2.498 1.2-2.798 1.1s-.699 1.1-.799 2.7l-.2 3 3.597-2.5c1.998-1.3 4.996-2.7 6.794-3 2.698-.4 4.597-.4 11.591.4 1.199.1 1.199.3.2 1-.9.5.299 1.5 3.896 2.9 2.798 1.2 5.896 2.2 6.795 2.2.899-.1-.6-.9-3.297-2-2.598-1-4.996-2.1-5.196-2.3s2.498-.3 5.995-.3c6.894 0 11.39-2 12.29-5.499.3-1 .899-1.6 1.399-1.3.499.3.699 1 .399 1.5-.399.5.1.9 1.099.9 1.199 0 1.499.499 1 2.199-.4 1.3-.8 3-1 3.8-.399 2.1-6.694 6.199-8.792 5.599-1-.2-1.599 0-1.199.5 1.199 2-6.095.7-12.59-2.1-7.494-3.299-15.587-3.999-19.884-1.599-2.697 1.499-3.896 4.799-1.398 3.899 1.099-.4 1.199-.8.299-1.3q-1.348-.75.9-1.5c1.099-.299 2.597-.299 3.197.1.799.4.899.3.5-.399-1.699-2.8 11.99-.4 19.084 3.299 2.797 1.5 2.698 1.5-3.297 1.5-3.298 0-8.094.7-10.492 1.5-5.196 1.8-11.89 6.899-11.89 9.099 0 1 .999.4 2.598-1.5 1.399-1.7 2.997-2.9 3.497-2.5.5.3 1.199-.2 1.499-1 .299-.9.999-1.599 1.598-1.599.5 0 .6.4.3.999-.4.6.1.7 1.199.4.999-.4 0 .9-2.198 2.7-2.198 1.9-4.296 3.3-4.796 3.1-.5-.1-.6.2-.2.8.3.6-.3 2.199-1.399 3.599-1.199 1.5-2.098 3.1-2.098 3.7s1.399-1 3.097-3.6c1.699-2.599 5.596-6.499 8.693-8.699 3.098-2.2 5.196-3.999 4.497-3.999-.6 0-1.499.4-1.799 1-.899 1.499-2.198 1.199-2.198-.5 0-.8.599-1.5 1.199-1.5.699 0 2.698-.3 4.496-.7 2.398-.4 3.098-.3 2.598.6-.4.6-1.199.8-1.799.5-.599-.4-.799-.2-.399.4.3.6-.5 1.899-1.899 2.999-1.398 1.1-2.498 2.3-2.498 2.6 0 1.3-6.794 10.699-7.593 10.699-.5-.1-.9.7-.999 1.8-.1 1-1.299 4.299-2.798 7.199-1.399 2.9-2.598 5.999-2.598 6.799s1.799-2.2 3.997-6.799c2.598-5.399 4.396-7.999 5.095-7.499.8.5.9.3.5-.5-.899-1.3 4.097-9.399 9.492-15.499 2.798-3.299 3.597-3.599 8.293-3.599 2.798 0 7.194-.7 9.792-1.7 4.696-1.6 4.696-1.6 8.693 1 6.595 4.399 16.786 20.398 15.487 24.397-.399 1.3-.299 1.4.3.5.699-.9 1.899.3 4.596 4.6 1.999 3.299 5.696 8.199 8.194 10.999 2.897 3.199 4.096 5.299 3.397 5.699-.6.4-1.599.2-2.198-.4-.6-.6-.8-1.1-.4-1.1.3 0-.4-1-1.599-2.2a309 309 0 0 1-5.595-6.299c-1.799-2.2-2.998-3.3-2.498-2.5 1.898 3.6 6.894 9.899 11.49 14.699 2.698 2.799 4.597 5.399 4.197 5.599-1.499.9-1.399 6.899.2 12.399.899 2.899 1.299 5.899.899 6.599-.5.9-.4.9.5.1.899-.8.799-2.4-.4-6.999-1.299-5.1-1.199-12.399.2-12.399.299 0 1.698.9 3.197 1.9 3.597 2.6 14.188 6.099 18.385 6.099 4.896 0 9.692-1.1 9.692-2.199 0-.5-.899-.6-2.098-.3-3.697 1.199-10.292.799-14.888-1-2.498-.9-6.095-2.3-7.993-3-4.297-1.6-11.191-7.299-10.492-8.499.3-.5 2.798.6 5.396 2.5 11.69 8.399 25.778 8.699 32.073.7 2.998-3.8 5.396-12.899 4.197-15.599-.999-1.9-1.099-1.7-1.199 1.4 0 1.9-.7 4.6-1.399 5.899-.799 1.4-1.099 3.2-.799 4 .299.9.1 1.2-.6.7-.599-.3-1.299.3-1.699 1.4-.399 1.1-1.099 1.7-1.698 1.4-.7-.4-.799-.2-.4.4.999 1.699-5.295 5.199-9.192 5.199-1.799 0-5.296-.5-7.794-1.1-3.897-1-4.296-1.3-3.197-2.8 1.199-1.399 1.099-1.399-.5-.2-1.498 1.2-2.198 1-5.895-1.499-8.892-6-14.488-12.599-21.782-25.398-4.296-7.699-4.596-8.499-2.897-7.399.799.4.699 0-.1-1.5-.6-1.2-1.399-1.899-1.899-1.699-.399.3-1.499-.8-2.398-2.4l-1.798-2.9 2.797 1.4c1.499.8 3.597 1.5 4.597 1.5 2.697 0 4.696-5.9 4.696-14.299v-7.299l9.392 3.1c5.096 1.6 9.192 3.199 9.092 3.499-.199.3 2.698.6 6.395.8 5.695.3 7.094 0 9.592-1.999 2.398-1.8 2.798-1.9 2.198-.5-1.099 2.999-1.998 20.097-1.299 25.097.9 5.699 5.196 10.999 10.292 12.699 3.097.999 3.997.899 7.594-1.1 3.197-1.8 4.396-2.1 5.795-1.1.999.6 2.498 1.1 3.297 1.1 3.497 0 10.392 4.099 11.291 6.699.599 1.6 2.498 6.799 4.296 11.799 1.799 4.899 7.294 17.098 12.29 26.997 10.292 20.797 11.591 26.197 7.794 33.396-1.699 3.5-1.799 4.1-.5 4.1.799 0 1.299-.4.899-.9-.299-.5-.1-1.3.5-1.6.599-.4.899-.1.799.6-.2.6.3 1.4 1 1.6.899.4.999-.1.199-2.2-.699-2-.699-3.1.1-4.1.6-.8.9-1.999.6-2.799s.1-2 .899-2.6c.999-.9 1.399-.9 1.399-.1 0 .6-.5 1.1-1.099 1.1-.5 0-.7.4-.4 1 .7 1.2 2.598 1.4 2.398.2-.699-4 5.795.8 8.193 6.199 1 2.3 1.899 3.4 1.799 2.6 0-.8-.6-2.6-1.399-4-1.898-3.399-1.798-3.999.6-3.999 1.099 0 1.798.4 1.498.9-.299.499.1 1.199.999 1.499.8.3 1.199 1 .9 1.6-.3.5-.1 1 .599 1 .8 0 .7.5-.2 1.7-1.199 1.4-1.199 1.5 0 .9.8-.5 1.699-.3 2.199.5.699 1.1.899 1 .899-.5 0-3.2-3.997-8.599-6.295-8.599-3.397 0-12.39-4.6-13.589-6.9-1.399-2.599-1.399-3.399.2-2.599.6.4.5.1-.4-.7-2.098-1.8-2.997-4.6-1.698-5.4.699-.5.799-.2.3.6-.6.9-.4 1.1.499.5.8-.5 1.099-.4.6.3-.3.5.899 2 2.697 3.1 5.396 3.3 14.289 5.099 25.479 5.099 10.791 0 18.285 1.5 25.579 5.2 2.698 1.4 3.697 1.6 3.397.6-.999-3-12.889-6-28.076-6.899-11.291-.7-15.687-1.3-18.885-2.9-2.198-1.1-4.496-1.7-5.096-1.3-.599.3-.699.2-.399-.4.399-.5-.5-1.6-1.999-2.4-2.797-1.5-10.591-9.899-9.791-10.699.199-.3 1.298.1 2.198.9 1.598 1.2 1.498 1.1-.1-.8-.999-1.299-2.398-1.999-2.998-1.599-.799.4-.799.3 0-.6.8-.9 2.398-.5 6.595 1.4 4.096 1.899 8.793 2.799 19.384 3.899 19.484 2.1 27.077 4.7 35.371 12.299 2.198 1.9 3.996 3.099 3.996 2.599 0-1.499-4.396-6.299-5.695-6.299-.6 0-1.799-.7-2.698-1.5-.799-.9-4.296-2.599-7.793-3.999-3.497-1.3-5.496-2.4-4.597-2.5 2.998 0 11.791 2.3 11.791 3.2 0 .5.399.7.899.4s2.598.1 4.596 1c1.999.799 3.397 1.099 3.098.499-1.899-2.899-24.58-8.199-24.58-5.699 0 .7-.3.7-.799 0-.4-.7-5.296-1.4-12.69-1.7-19.884-.8-28.277-4.899-34.172-16.698-3.197-6.499-4.096-9.999-2.398-9.999.5 0 .7 1 .4 2.3-.3 1.7-.2 1.8.5.7 1.598-2.6 2.098-11.699.599-11.699-.699 0-1.099.4-.899.8.699 1.1-.6 4-1.499 3.4-.5-.3-.599.4-.3 1.499.8 3-1.199 2.4-2.298-.799-.899-2.2-.599-3.6 1.399-7.6 1.299-2.699 2.698-7.899 3.097-11.498.6-5.6.9-6.2 1.499-3.8.899 2.9.4 11.799-.799 15.198-.7 1.8-.6 1.8.4.2.599-.9 1.498-4.199 1.998-7.299.799-4.999.699-6.099-1.499-10.299-3.397-6.799-9.492-12.298-21.182-19.098-14.189-8.399-19.384-15.298-19.185-25.397l.1-4.099 1.199 4.999c1.299 5.099 3.897 10.999 5.396 11.899.5.3-.2-1.6-1.499-4.2-1.199-2.6-2.498-7.199-2.698-10.199-.399-4.699-.299-5.099.6-2.999 3.697 8.199 4.896 10.198 8.393 14.498 2.098 2.6 8.493 8.299 14.188 12.699 15.987 12.398 21.982 22.097 19.584 31.996l-.799 3.3-.7-3.5c-.599-3.199-.599-3.099-.799 1.6 0 2.7-.5 5.399-1.099 5.999-1.099 1.1.899 10.399 3.297 14.999 1.699 3.299 8.093 9.399 9.792 9.399 1.399 0 .5-2.5-.899-2.6-.7-.1-1.599-.2-2.098-.3-.4 0-.8-1-.7-2.1 0-1.1-.3-1.999-.899-2.099-4.197-.5-5.496-4-3.497-9.299 1.099-3.1 3.996-3.5 3.996-.5 0 3.299 4.896 12.598 7.994 15.198l2.897 2.4h-2.497c-1.499 0-2.099-.4-1.699-1.1.4-.6-.1-.5-.999.2-2.598 2.2-10.192-1.2-13.689-6-1.499-1.999-2.997-3.399-3.397-3.099-.999 1-.7 2.499.4 1.8.599-.4.699.1.299 1.099-.399 1.2-.299 1.5.5 1 .699-.4.999-.2.699.6-.299.8.6 2.5 1.899 3.7 1.399 1.3 2.298 2.9 1.898 3.499-.3.6-.3.8.2.4.4-.4 1.998.1 3.397 1.1 7.394 5.1 15.288 5.6 29.975 2.1 12.79-3 22.282-2.4 29.176 1.8 4.497 2.9 4.796 2.9 4.597 1-.2-2.2-7.794-7.799-10.592-7.799-.899 0 .4.9 2.798 1.999s4.197 2.3 3.897 2.5c-.3.3-2.198-.2-4.397-1.2-5.595-2.399-17.885-2.199-27.377.5-4.097 1.2-9.892 2.2-12.989 2.1-6.195 0-14.588-2.9-14.189-4.799q.15-1.05-.899-.6c-.599.4-2.398-.5-3.997-2.1-3.397-3.2-3.996-5.8-.599-2.7 6.195 5.799 15.587 6.699 31.474 2.8 16.287-4 28.876-3 34.871 2.7l2.298 2.099v-2.199c0-1.2-.699-2.4-1.598-2.8-.9-.3-1.999-1.5-2.498-2.7-.9-2-.9-1.9-.5.3.3 1.4.1 2-.4 1.5-.499-.5-.999-2.7-1.199-4.9-.199-2.399-.899-4.299-1.798-4.599-.999-.5 0-1.4 3.197-2.8 4.596-2.1 6.295-4.999 3.897-6.599-.599-.3-.799.3-.599 1.4.199 1.4-.7 2.3-3.597 3.699l-3.997 1.8-2.698-2.699c-2.398-2.5-2.498-2.7-.699-2.7 1.798 0 12.489-4.5 12.489-5.2 0-.2-.899-.4-1.998-.5s-1.998.3-1.998 1c0 .8-.3.8-1.199-.1-1.699-1.699-2.798-1.5-2.798.6 0 1.9-3.197 2.4-4.696.7-.5-.4-.3-.5.399-.1.6.3 1.499.1 1.899-.6s.4-1-.1-.6c-.4.4-1.399.3-2.098-.3-.9-.8-1.199-.4-.9 1.7.2 2.6.2 2.7-1.099.9-.799-1-1.399-1.5-1.399-1.1 0 .5-.699.2-1.598-.5-.899-.8-2.798-1.2-4.197-1.1-1.798.3-2.198 0-1.598-1 .599-.999.399-.999-.9.1-.899.7-1.698.9-1.698.4s-1.699-.799-3.697-.6c-3.497.3-3.597.2-1.299-.799 1.399-.6 3.297-1.2 4.296-1.4.9-.2 2.199-.7 2.898-1.1 1.399-.9 15.887-1.4 15.387-.5-.2.3.999.6 2.698.5 5.995-.2 6.195-.3 4.796-1.6-1.499-1.6-17.386-1.5-21.582.1-2.798 1-2.798 1-1.099-.4 1.099-.8 2.897-1.5 3.996-1.5 1 0 1.599-.3 1.299-.7-1.299-1.2 6.695-3.299 12.59-3.299 3.597 0 5.695-.4 5.695-1.1 0-.8-1.798-1-5.695-.7l-5.795.6 4.396-1.4c2.398-.7 4.696-1.1 5.096-.9.4.3.999-.2 1.399-1 .399-1.2-.3-1.5-3.198-1.5-2.897 0-3.397.3-2.198 1.1s.999.9-.699.4c-2.598-.7-6.095 1-14.688 6.999-11.391 7.9-17.386 9.599-24.78 7.1-4.995-1.8-5.995-1.4-2.498.9 1.699 1.099 4.397 1.599 8.394 1.499 3.197-.1 7.194.1 8.792.3 1.699.3 5.196.9 7.894 1.2 3.996.5 5.595 1.4 9.192 5.2 2.898 2.899 4.896 6.199 5.895 9.499.8 2.799 1.299 5.299 1.099 5.499-.999 1-3.397-1.2-4.496-4.3-.699-1.999-1.698-3.199-2.298-2.799-.699.5-.899.1-.5-.9.3-.9 0-1.8-.899-2.1s-1.299-1-.899-1.5c.3-.6-.4-.8-1.599-.6s-1.898.2-1.499-.2c.5-.5-4.995-5.299-6.094-5.299-.2 0 1.498 2.3 3.696 5.099s4.297 6.2 4.597 7.5c.299 1.299.999 2.099 1.498 1.799.5-.3.2-1.599-.699-2.999-1.998-2.9-1.099-3.1 1.599-.4 1.099 1.1 1.698 2 1.399 2-.4 0-.1.699.599 1.499 1.099 1.3.799 1.5-2.198 1.5-2.998 0-3.597-.4-4.596-3.399-1.599-4.3-7.494-12.099-9.892-12.999-1.099-.4-.7.3 1.099 2 3.297 3.099 8.593 11.199 8.593 13.098 0 .7-1.099 1.3-2.498 1.3-1.998 0-2.598-.7-3.497-3.999-.7-2.4-2.898-5.9-5.396-8.599-3.597-3.7-4.796-4.4-6.894-3.9-1.399.4-3.397.2-4.396-.4-1.499-.9-1.299-1 1.199-.6 2.597.5 2.697.5 1.199-.5-1.1-.7-2.998-1-4.297-.7-1.299.2-2.398.1-2.398-.2s-1.399-1.4-3.097-2.4c-4.297-2.399-2.998-3.199 4.396-2.899 8.493.4 12.69-2.1 21.382-12.699 4.397-5.499 8.393-9.299 11.191-10.799 5.396-2.799 6.495-3.799 2.798-2.399-1.499.6-2.698.7-2.698.2 0-1.4 3.397-1.9 8.393-1.4l4.596.6v-6.5c0-7.199-2.198-15.898-4.496-17.798-.799-.7-1.499-2.199-1.499-3.399 0-2-.1-1.9-1.299.4-.899 1.799-1.998 2.399-3.697 2.199-1.398-.1-2.797.6-3.697 1.8-2.697 3.8-12.19 4.8-16.186 1.6-1.099-.9-1.299-.6-.6 1.4.9 3 3.098 4.999 5.895 5.099 4.697.3 7.294-.4 10.092-2.499 4.496-3.4 10.491-5.2 11.591-3.5q2.248 3.45-1.499 2.7c-1.899-.4-2.198-.1-1.799 1.4.6 2.399-2.398 6.799-4.596 6.799-.999 0-2.298-.5-2.997-1.2-.9-.9-1.2-.9-1.2.1 0 .6-1.598 1.9-3.497 2.7-8.692 3.599-18.684-.7-15.787-6.8 2.398-4.999 4.297-10.998 3.797-11.898-.399-.5-.1-.9.5-.9.599 0 .899-.4.599-.9-.399-.5.2-.8 1.099-.6 1 .2 2.199.4 2.598.4 1.199.1-.2 2.1-1.399 2.1-.599 0-.699-.5-.299-1.2q.749-1.05-.6-.3c-.999.6-.899 1.1.5 2.2 1.099.699 2.698 1.299 3.697 1.299 2.398 0 8.992-3.399 10.691-5.399.699-.9 1.699-1.3 2.298-1 .5.3 1.599 0 2.498-.8 1.299-1 1.699-1 1.998-.1.3.7 1.499 1.3 2.698 1.3s2.698.5 3.397 1.2c.9.9 1.199-.5 1.199-6.499 0-7.4-.399-8.299-3.197-7.8-.4 0-1.199-.799-1.799-1.899s-1.498-1.8-2.098-1.5c-.499.4-.899.3-.799-.2.1-.4.1-1-.1-1.3-.1-.3-.4-1.6-.6-3-.299-1.4-.899-2.699-1.398-2.799-1.199-.4-1.299-3.2-.2-3.2 1.399 0 .699-5.299-1.099-8.699-1.099-2-1.299-3.4-.7-3.8.6-.4.899-2.599.7-5.099-.2-2.6.1-4.4.699-4.4.799 0 .799-.3.1-.8-.6-.4-.999-1.199-.999-1.699.3-3.2 1.998-8.199 3.697-11.199 1.299-2.1 2.098-5.2 2.098-8.199 0-5.7-2.098-15.099-3.397-15.099-.5 0-.899-1.3-.899-2.799 0-2.4-.4-2.8-3.098-3-3.097-.2-3.097-.2-1.599 2.1 1.999 3.099 5.696 15.198 5.696 18.798 0 1.7-1.399 5.599-3.098 8.899-2.398 4.699-2.997 6.899-2.697 10.699.299 4.399.099 4.799-2.099 5.099-4.296.6-10.091-1.8-10.091-4.2 0-1.199.299-1.599.799-.999.4.6 2.098 1.399 3.697 1.699l2.997.6-3.197-1.399c-1.699-.8-3.397-1.9-3.797-2.5-.3-.5-1.099-1-1.698-1-1.399 0 0 11.099 2.298 18.198 2.498 7.599 2.398 8.999-.8 12.999-1.798 2.099-2.098 2.799-.799 1.799 1.099-.8 2.298-1.999 2.698-2.499.499-.6.799-.5.799.3 0 .699.5.999.999.699.6-.299.999-.1.999.5 0 .7-.599 1-1.298.7-.6-.2-2.099 0-3.198.6s-2.798 1.2-3.897 1.4c-1.598.3-1.698.1-.499-1.4 1.299-1.6 1.199-1.7-.4-.4-.899.8-1.599 1.6-1.299 1.8 1.699 1.7-11.29 14.699-18.385 18.298-1.998 1-3.697 2.5-3.697 3.2s-.399 2-.699 2.899c-.5 1.2 0 1.9 2.098 2.7 1.499.5 3.597 1.3 4.596 1.7 1.299.6 1.699.2 1.699-1.7 0-2.3 2.698-6.699 5.995-9.899 2.798-2.699 8.893-5.799 9.492-4.799 1.599 2.6 10.092.2 13.789-3.9 1.099-1.2 2.498-1.8 3.397-1.5.899.4 1.899-.1 2.498-1 .5-.999 1.299-1.699 1.699-1.699 1.299 0 3.097 4.899 2.398 6.699-.6 1.4-.2 1.3 2.398-.5 3.197-2.2 4.296-2 4.296.8 0 1.1-1.798 2.5-4.896 3.899-6.095 2.6-6.295 2.6-7.893 0-1.299-1.999-1.199-2.099 1.099-1.499 1.399.3 2.797.2 3.097-.2.3-.5-.899-.9-2.698-1-2.497-.1-3.497.4-4.196 2.1-.6 1.199-2.698 2.999-4.696 3.999-3.397 1.6-3.897 1.7-7.294.3-2.598-1.1-3.497-2-3.098-3.1.3-.799.1-1.499-.499-1.499-.6 0-.7 1.299-.4 3.199.5 2.9.2 3.5-2.298 4.9-1.499.9-3.597 3.299-4.596 5.499-.899 2.1-2.098 4.6-2.498 5.5-.6.999-.2 2.399.999 3.999 1.898 2.4 4.296 8.999 4.396 11.899 0 .8.4 1.4.8 1.2.499-.2 1.499.5 2.298 1.5 1.599 2.099 1.798 3.699.4 2.799-.5-.3-1-.3-1 0 0 1.1 6.895 3.5 9.992 3.5h3.098l-2.698 3.399c-2.398 2.9-3.198 3.3-6.795 3.2-6.294-.4-12.589-2.5-12.589-4.199 0-.8-.4-1.3-.8-1-.499.3-.599-.8-.399-2.5.2-1.6.899-3.2 1.399-3.5 1.199-.7 3.796 2.7 3.097 4-.4.5-.1.6.6.2.699-.5 1.998-.1 2.897.7s2.798 1.8 4.197 2.2c1.498.4.799-.4-1.999-2.1-5.495-3.4-7.493-5.7-5.395-6.2.799-.2 2.098.2 2.897.8.8.7 1.499.8 1.499.4 0-.5-.899-1.5-2.098-2.199-1.699-1.1-2.498-1-4.696.5-1.499.899-2.898 1.699-3.198 1.599s-.699 1.3-.799 3c-.4 4.999-.999 5.999-4.696 8.399-1.898 1.3-4.097 3.6-4.996 5.3-1.399 2.699-1.399 3.299 0 5.999 2.198 4.299 5.396 6.899 9.692 8.099 4.297 1.1 5.196 4.1 1.799 5.899-2.998 1.6-11.791-2.199-15.588-6.699-2.997-3.6-3.097-3.7-4.296-1.6-.999 1.9-.899 2.1.799 1.8 1.099-.2 2.398.2 2.998.9.799 1 .4 1.1-1.899.8-2.398-.3-3.197.1-4.895 2.9-1.2 1.899-2.099 2.799-2.199 1.899-.2-2.299-.599-5.399-.899-6.499-.5-2 0-3.5 1.099-3.3 1.299.3 1.599-1.299 2.498-11.698.6-6.2.999-7.4 4.097-10.699 2.697-2.7 3.397-4.2 2.997-5.9-.899-3.399.899-5.699 5.296-6.899 3.297-.9 4.196-.8 5.895.6 1.099 1 3.297 2.3 4.996 3 2.698 1.1 3.097 1.1 3.097-.2 0-.8-.399-1.3-.899-1-.5.4-1.699-1.9-2.698-4.899-.899-3.1-2.098-5.8-2.498-6.1-.499-.3-.899-1-.899-1.6s.7-.5 1.799.3c1.498 1.3 1.598 1.2.299-.4-.799-.9-1.598-1.499-1.898-1.2-.799.8-3.197-1.599-2.598-2.699.3-.5-.3-.4-1.399.3-1.798 1.1-1.898 1.5-.599 3.299 1.598 2.3 1.998 9.599.499 8-.599-.5-1.199-2.2-1.498-3.7-.3-1.6-.9-3.4-1.399-4-1.699-2.199-.999-4.499 1.099-3.899 1.399.3 1.798.1 1.299-.6-1.199-1.9-4.596-1.4-4.596.6 0 1.1-1.299 2.3-3.498 3.099-1.898.7-3.497 1.7-3.497 2.2s-.499.9-1.099.9c-.799 0-.899-1.5-.399-4.699.599-4.3.599-4.5-1-3-.899 1-2.997 1.7-4.696 1.7-3.996 0-3.197.9.999 1.2 1.999.1 2.798.6 2.199 1.199s-2.498.5-5.096-.299c-3.098-1-3.897-1.5-2.798-2.2 1.199-.7 1.199-.9-.1-1-.799-.1-1.898-.1-2.398 0-.499.1-1.599-.4-2.498-1.1-.999-.7.1.4 2.298 2.4s4.297 3.499 4.696 3.199c.4-.2 1.1.1 1.499.7.5.8.3.9-.599.4-.7-.4-1.099-.4-.8.1 3.198 6.6 4.197 9.799 4.497 14.399l.499 5.499-1.898-3c-2.498-3.899-4.596-11.198-3.697-12.698.4-.6.3-.8-.3-.5-.599.4-2.298-1.1-3.797-3.3s-4.396-5.099-6.394-6.599c-1.999-1.4-5.096-4.3-6.895-6.299s-2.897-2.8-2.598-1.7c.5 1.3.4 1.7-.399 1.2-.7-.4-1.199-.3-1.199.3 0 .5.499 1.299.999 1.599.599.4.699 1.1.4 1.7-.4.7-.2.8.399.4.7-.4 1.199-.4 1.199.1 0 .4 1.299 2.2 2.998 3.9 1.598 1.8 2.698 3.499 2.398 3.799-.2.3-.1.4.3.1.299-.3 1.598.3 2.697 1.2 1.099 1-.499-1.1-3.697-4.599-6.694-7.599-7.493-9.899-1.398-4.6 6.894 6.1 9.592 9.199 8.892 10.099-.4.5-.599.8-.3.7 1.199-.7 3.997 2.1 4.896 4.7 1.399 3.799.5 3.799-3.197 0-1.599-1.7-3.397-3-3.997-3-.599 0-3.297-1.9-5.995-4.2-6.894-5.899-10.691-14.198-10.191-22.297.2-3.4.1-4.2-.2-2l-.6 4-.699-4.5c-.5-3.5-.6-3-.3 2.4.2 4.199 1.099 8.399 2.298 10.899 1.099 2.299 1.899 4.199 1.699 4.399-.4.4-6.795-8.099-8.393-11.299-.7-1.2-1.399-4.599-1.799-7.599-.499-4.399-.2-6.399 1.999-11.499 1.498-3.599 2.597-8.299 2.697-10.998.1-4.6.1-4.7 1.099-1.9.7 2 .7 3.899 0 6.399-1.298 4.3-.699 5.599.8 1.8 1.399-3.8 1.299-5.899-.6-10.699-1.199-2.8-1.898-3.7-2.498-2.7-.399.7-.599 2.3-.199 3.5.299 1.5.099 2.3-.7 2.3-.699 0-.999-.7-.599-1.5.299-.8.1-1.5-.4-1.5-.6 0-.5-.8.2-1.9.899-1.5.699-2.399-1.099-4.899-2.798-4-1.099-4.9 3.097-1.6l3.297 2.6-3.397-3.2c-2.198-2.1-3.697-2.8-4.296-2.2-1.199 1.2-4.097.4-3.298-.8.3-.4-.899-1.3-2.497-1.999-1.699-.7-2.998-1.6-2.998-2.1 0-1.4 1.099-1.1 3.197.8 1 .9 1.999 1.4 2.298 1.1.3-.2-2.098-2.4-5.295-4.7-3.098-2.3-7.094-5.399-8.793-6.699-5.595-4.7-19.484-4-22.781 1.1-1.898 2.899-.999 3.099 2.997 1 4.097-2.1 14.788-2 16.887.2 1.598 1.499 9.592 7.699 14.887 11.498 1.899 1.4 2.498 3.1 3.497 9.999.7 4.6 1.399 9.499 1.599 10.899.799 5.1-2.498 16.498-7.893 27.597-8.394 17.098-10.592 17.898-32.274 10.899-5.995-2-12.889-5-15.187-6.599-3.697-2.7-4.497-2.9-4.197-.8.1.9-2.897-.1-4.596-1.5-.699-.5-.999-1.4-.599-2 .299-.5.199-.8-.3-.5-.5.3-1.499 0-2.198-.8-.7-.8-1-1.4-.7-1.4.999 0 6.495 3 6.495 3.6 0 .3-.6.2-1.199-.2-.999-.6-.999-.4 0 .7.899 1 1.499 1 2.398.1s.699-1.7-.8-3.4c-5.395-6.099-12.189-17.398-11.09-18.498.399-.3.699.1.699 1 0 2.1.3 2.1 4.097.1 3.697-1.9 4.296-1.5 2.997 2-1.499 3.8-.499 3.2 1.799-1.2 1.898-3.4 1.998-3.5 2.098-1.2.2 2.5.2 2.5 1.399-.4.899-2 1.499-2.499 1.898-1.5.3.9.6.6.6-.799.1-1.2.899-2.4 2.098-2.8 1.099-.3 2.898-1.8 4.097-3.3s1.898-1.9 1.598-1c-.399 1-.2 1.8.4 1.8.599 0 .899-.8.699-1.8-.199-1.1.4-2.699 1.199-3.799 1.099-1.5 1.099-1.6 0-.7-1.798 1.6-3.397 1.7-2.398.1.4-.7.3-.8-.499-.4-.6.4-.899 1.1-.6 1.5 1.199 2.099-9.892 8.099-14.887 8.099-2.099 0-3.498.4-3.098.9.6 1.1-1.299 2.599-2.198 1.699-.799-.799 1.599-5.499 4.097-8.099.999-1.1 1.498-1.4 1.099-.6-.5.9-.4 1.2.299.8.5-.4.9-1.5.8-2.499-.2-.9.1-2 .699-2.3.5-.4 1.099-2.5 1.299-4.6.4-4.599 2.698-9.599 3.897-8.499.499.4.499.1.1-.6-.4-.6-1.899-1.2-3.198-1.2-2.398 0-2.497-.3-1.898-3.299.4-1.7.999-3.6 1.299-4.2.4-.5.699-2.999.799-5.499l.3-4.5-.999 3.5c-.5 1.9-1.199 5.099-1.499 6.999-.599 4.2-6.395 10.599-6.395 7.099 0-2.699 1.699-6.899 3.497-8.699 1.699-1.699 1.999-3.399.6-3.399-2.298 0-5.595 8.499-5.196 13.698.2 3.7-.499 4.1-2.897 1.5-1.499-1.6-1.499-2 .799-6.999 1.299-2.9 2.498-6.099 2.598-6.999.2-1 1.599-1.9 3.397-2.3 2.198-.4 2.998-.3 2.498.5-.3.6-.2.7.2.3.499-.4.799-2.6.599-4.7-.1-2.199.2-3.999.7-3.999.599 0 .899-1.1.799-2.5 0-1.4-.599-2.5-1.099-2.5-1.099 0-1.299 1-1.699 7.399-.099 2.4-.799 3.6-1.998 3.9-2.598.7-3.097-.8-1.499-4 2.398-4.699 2.998-8.499 1.499-9.498-.999-.8-.899-.9.3-.5 2.198.699 3.297-3.9 1.199-4.7s-2.298-.8-2.298.6c0 .7-1.199 3.5-2.498 6.299-1.399 2.7-2.498 5.7-2.498 6.6 0 1.199-.7 1.499-2.698 1.099-2.098-.399-2.398-.699-1.199-1.599.799-.6 2.098-3.1 2.898-5.6.799-2.499 1.898-4.799 2.498-5.199.599-.5.499-.8-.4-.8-1.199 0-1.199-.3.1-1.8.799-.9 2.198-3.1 2.897-4.699l1.499-3-3.297-.2c-2.598-.1-3.697.4-4.896 2.3-.899 1.3-2.498 2.399-3.597 2.399s-1.599.4-1.299 1.1c.4.6-.3 2.1-1.599 3.5-1.698 1.8-2.498 2.1-3.097 1.2-.5-.8-.799-.2-.799 1.7l.1 2.999 2.897-3.299c1.599-1.7 3.297-3.2 3.797-3.2 1.099 0 3.997 7.299 3.397 8.799-.3 1-.699 1-1.199.2-.4-.6-1.299 1.5-1.998 4.7-1.199 4.899-1.499 5.399-2.098 3.299-1.299-4.499-.9-6.999 1.199-9.099 1.099-1.1 1.798-2.7 1.498-3.599-.599-1.3-.899-1.4-2.897-.1-1.199.799-2.898 2.899-3.897 4.699-.899 1.8-1.899 2.8-2.298 2.2-.3-.6-1.099-1.1-1.799-1.1-.599 0-.2.6.8 1.4 1.898 1.3 1.898 1.5.299 3.299-2.398 2.6-4.995 9.299-4.396 10.999.4 1.1.1 1.3-1.499.8l-2.098-.7 2.098 2.1c1.999 2 1.999 2.3.6 4.5-2.198 3.299-4.596 15.898-4.696 24.397-.1 6.799-.2 7.199-2.199 6.799-1.199-.3-.799 0 .7.7 2.398 1 2.798 1.6 2.298 3.9-.3 1.499-.2 2.699.2 2.499.4-.1 1.798.6 3.197 1.5 1.799 1.3 2.098 2.1 1.299 2.9-1.798 1.8-5.196 0-8.093-4.4-1.499-2.299-3.198-4.699-3.797-5.199-.6-.6-2.198-5.199-3.397-10.299-2.198-8.899-2.198-9.399-.5-11.199.999-1.1 2.098-2 2.498-2s.7 2.6.7 5.7c0 3.499.599 6.999 1.598 8.799l1.599 3 .1-3.5c0-2.9.799-8.099 3.597-24.497.599-4 1.299-6.2 4.196-13.999C29.975 9.999 31.374 0 27.477 0c-1.099 0-1.498 1.2-1.598 4.2m21.582-2.1c.399.6.399 1.3 0 1.7-.3.3-.999 0-1.499-.8-.599-.8-.999-1-.999-.5 0 .6.599 1.7 1.299 2.399.999 1.1.799 1.3-.999.8-1.599-.3-2.398 0-2.798 1.4-.6 1.9-1.699 2.4-2.798 1.3-.799-.9 4.397-7.199 5.995-7.299.6-.1 1.499.4 1.799 1m-12.09 25.097c-.3 1 0 1.8.599 1.8.6 0 .8.5.3 1.2-.4.7-.599 2.1-.5 2.999.4 2.5-.699 2.2-1.898-.5-.899-1.999-.899-1.999-.5.7.2 1.5-.299 4-.999 5.5-.999 1.8-1.399 2.1-1.399.8 0-.9-.299-1.6-.699-1.6-3.097.5-3.897-.3-3.797-3.6.2-3.499 1.399-6.099 1.699-3.399 0 .8.2 1.799.299 2.399.2.5.3 1.7.4 2.5.1 1.3.3 1.2 1.099-.1.7-1.2.5-2.5-.399-4.399-1.599-3.1-1-6.6.899-5.8.799.2 1.599 1.2 1.798 2.1.3 1 .3.1.1-1.8s-.1-4.599.3-5.899c.6-2.3.699-2.3 1.998 1.4.7 2.099 1.099 4.699.7 5.699m14.588-7.499c0 .5-.9 2.1-1.999 3.799l-1.998 3v-2.6c0-1.399.5-2.999 1.199-3.699 1.299-1.3 2.798-1.6 2.798-.5m-6.195 4.999c-4.297 8.399-5.895 13.099-5.396 15.799.3 1.599.3 2.499-.2 1.899-.399-.6-1.698-1.399-2.997-1.799l-2.198-.7 1.998-2.9c1.199-1.6 2.598-5.199 3.297-7.999 1-4.2 1.499-5 3.497-5 1.299 0 2.199.3 1.999.7m-21.782 2.1c0 2.3-3.297 10.099-4.097 9.599-.499-.3-.599.1-.3.9.3.8-.399 3-1.498 4.799-1.199 1.9-2.099 4.4-2.099 5.5 0 2.6-4.396 3.899-6.095 1.8-.599-.8-.799-1.4-.299-1.4 1.399 0 6.095-8.099 6.894-11.799.4-1.8 1.299-3.6 1.998-3.8.7-.299 1.899-1.899 2.498-3.499 1.199-2.7 2.998-4 2.998-2.1m23.081 7.199c-.899 2.4-.999 2.4-.999-.8-.1-2.299-.5-3.099-1.299-2.699-.7.4-.4-.1.699-1 1.899-1.5 1.998-1.5 2.298.2.2 1.1-.2 2.999-.699 4.299m53.955-4.299c1.199 1 3.098 2.699 4.297 3.799s2.398 1.9 2.797 1.8c.3-.1 1.199.4 1.799 1.2 2.098 2.5-.7 1.8-3.697-.9-1.599-1.4-4.097-3.599-5.795-4.999-3.298-2.8-2.798-3.6.599-.9M41.865 41.695c-1.099 2-.899 2.6 1.1 4.8 1.598 1.7 1.998 2.9 1.498 4.2-.499.999-.699 3.999-.699 6.799.1 2.799-.4 6.099-1.199 7.499-1.399 2.4-1.399 2.4-1.299-2.2.1-2.5.499-4.099.899-3.499.4.7.8-.4.8-2.3 0-2-.4-3-.9-2.5-1.099 1.3-4.896 12.299-5.295 15.398-.2 1.8-1.099 2.7-3.198 3.2-1.698.5-3.097.7-3.197.6-.2-.1 1.199-3.2 2.997-6.699 5.896-11.999 6.795-14.999 6.995-23.998 0-4.699.599-9.199 1.099-9.999 1.499-2.299 1.898 5.8.399 8.699m-12.19 1.4c.1 1.9-.099 4.3-.399 5.4-.5 1.5-.899.8-1.899-2.9-.699-2.8-.999-5.399-.799-5.799 1.199-1.9 2.898 0 3.097 3.299m6.695.3c.799 1.4.799 2-.2 2.3-2.798 1-10.092 19.598-8.893 22.598.3.6.6.2.6-1.1.1-2.1.3-2.2 1.599-.8 1.498 1.4.999 4.999-.5 4.099-.5-.3-1.099.3-1.499 1.4-.499 1.7-2.697 2.1-6.294 1.2-.1-.1.499-1.8 1.398-3.899 4.597-10.699 9.093-25.298 8.094-25.898-.6-.4-.3-.9.899-1.4 2.498-.999 3.497-.699 4.796 1.5m-9.692 3.9c.999 4.499.1 10.499-.899 6.199-.3-1.1-.4-.2-.2 2 .3 2.9.2 3.6-.6 2.5-1.199-1.8-1.299-14.999-.199-14.999.499 0 1.298 1.9 1.898 4.3m30.075-3.1c-.2.7-.699 1.6-1.099 1.9s-.899 1.9-.999 3.5c-.2 2.399-.7 2.999-2.998 3.199-3.697.5-4.696-2.299-1.698-5.099l2.198-2.2-1.699 3.5-1.598 3.499 1.998-2.499c1.898-2.3 2.498-4.2 2.198-6.3 0-.4.8-.7 1.899-.7s1.898.6 1.798 1.2m-18.185 4.7c-.3 2.799-.899 5.799-1.499 6.799-.499 1-1.698 3.7-2.597 5.999-1 2.4-2.099 4.3-2.498 4.3-1 0-1.799-6.899-1.199-9.299.699-2.8 1.998-2 2.498 1.5.199 1.8.299.9.199-1.9-.1-4.4.2-5.599 2.199-7.499 1.298-1.2 2.298-2.7 2.298-3.5 0-.7.199-1.3.499-1.3s.3 2.2.1 4.9m170.859-.5c.999 2.599-1.499 5.599-4.596 5.599-3.397 0-4.796 1.5-2.298 2.4 1.498.6 1.498.8.299 1.6-.799.6-1.298 1-.999 1.1.3 0 1.599.3 2.998.5 1.598.3 2.897-.2 3.797-1.3 1.299-1.7 1.399-1.7 2.797.1 1.799 2.499 1.799 2.899-.499 5.699-1.599 2-2.198 2.2-4.397 1.2-1.698-.8-2.897-.9-3.197-.3-.4.6-.1 1 .5 1 .699 0 .999.6.699 1.4-.799 1.999 3.097 2.799 4.197.9.399-.9 1.299-1.3 1.798-1 1.799 1.1 2.198 4.499.799 6.399-1.099 1.5-1.698 1.6-3.297.6-1.599-.9-2.098-.7-3.597 2.1-1.998 3.799-4.196 5.299-9.592 6.499-3.797.8-4.097.7-4.596-1.6-.5-1.7-.1-2.999 1.099-4.099 1.599-1.6 1.699-1.6.999.8l-.699 2.499 1.698-2.299c.9-1.2 2.298-2.2 3.098-2.2 1.998 0 6.095-2.8 6.794-4.6.7-1.8-.3-4.599-1.499-3.799-.499.3-.599-1-.299-2.8.399-1.8.699-3.5.699-3.8.1-.3-.599-2.099-1.499-3.999-.899-1.9-1.798-4.2-2.098-5.1-.6-1.799 2.598-4.099 4.696-3.299.799.3 1.699.1 2.098-.5.9-1.6 3.497-1.3 4.097.3M23.481 64.693c-.6 1.7-.7 1.7-1.599.1-.6-1-.699-4.5-.2-8.499l.7-6.799.899 6.699c.499 3.7.599 7.599.2 8.499m23.18-11.699c-.299 1.1-.099 2 .4 2 .5 0 .899-.4.899-.9 0-2 3.797.2 4.297 2.5.2 1.3.1 2.1-.4 1.9-.899-.6-7.893 12.298-7.893 14.598 0 2.5-2.498 4.1-5.396 3.3-2.997-.7-3.297-1.6-1.099-3.4.799-.7 1.499-.9 1.499-.5s.699.2 1.499-.5c.799-.7 1.199-1.6.899-2.1-.2-.5 1.099-3.199 3.097-6.099 1.899-2.9 3.497-5.999 3.497-6.799-.1-.8-.699-.2-1.498 1.5l-1.299 2.999-.1-4.599c-.1-4.1.399-5.9 1.698-5.9.2 0 .2.9-.1 2M28.177 77.092c-.4 3.399-.7 3.999-2.598 3.699-1.099-.2-2.098-1-2.098-1.8 0-.799-.4-2.099-.8-2.799-.599-.8-.1-1.2 1.699-1.2 1.399 0 2.798-.5 3.097-1 .999-1.6 1.099-1.2.7 3.1m6.394-1.6c.4.8 1.499 1.5 2.598 1.5 1.699 0 1.799.2.8 1.5-1.099 1.299-1 1.399.399.899 2.798-1.099 1.799.5-1.399 2.1-2.298 1.2-3.497 1.3-5.095.4-1.099-.6-2.298-.8-2.598-.5s.2.8 1.099 1.2c2.498 1 1.898 3.4-.899 3.4-1.699 0-2.498-.5-2.498-1.8 0-2.4 1.898-4.2 4.596-4.2 1.299 0 2.598-.5 2.898-1 .399-.699-.2-.899-1.699-.499-1.899.499-2.498.199-2.498-1.2 0-3 3.297-4.4 4.296-1.8M48.36 89.89c1.799 3.4 7.194 7 10.891 7.299 1.399.1 2.298.6 1.998 1.1-.199.4-1.299.5-2.298.2s-2.098-.1-2.398.4c-.699 1.1-5.795-.1-9.092-2.299-1.199-.8-2.898-2.9-3.797-4.8l-1.699-3.3v4.1c0 4.699-.699 5.899-2.697 4.2-1.199-1-1.399-.8-1.1.699.1 1-.299 2-.899 2.2-.899.3-1.299-.5-1.299-2.4 0-1.599.6-3.499 1.299-4.199.8-1 .899-1.2 0-.7-1.299.7-3.697-2.7-2.598-3.8.3-.3 1.499-.6 2.498-.6s2.099-.699 2.498-1.599c.6-1.5.8-1.5 2.098.2 1.399 1.799 1.399 1.799.7-.1-.3-1.1-.899-3.4-1.199-5.1-.4-2.5-.1-3.199 1.898-4.099 2.199-1 2.298-.8 2.998 4.299.4 2.9 1.399 6.699 2.198 8.299m159.468-11.498c0 1.799-1.598 2.899-2.997 2.099-1.299-.8-.1-3.499 1.598-3.499.8 0 1.399.6 1.399 1.4m-168.76 5.399c-.6 1.1-.7 2.3-.3 2.7s-.4.2-1.699-.5c-1.498-.8-2.098-.8-1.698-.1.399.6.3 1.1-.3 1.1-2.298 0-1.499-2.6 1.299-4.2 3.597-1.9 4.196-1.7 2.698 1m78.835 1.3c0 4.299 9.092 17.598 11.19 16.298.6-.4.8-.2.5.3-.799 1.3 5.395 7.099 11.49 10.899 2.398 1.5 5.396 3.599 6.695 4.799 2.698 2.5 9.092 12.099 9.092 13.799 0 .7-1.299-.9-2.897-3.4-1.699-2.7-6.195-7.099-10.691-10.399-13.189-9.999-19.784-16.798-23.781-24.497-3.497-6.799-4.696-11.699-2.598-10.399.6.3 1 1.5 1 2.6m-99.318.4c1.099.8 4.096 1.5 7.094 1.5 6.694 0 9.192 1.999 6.794 5.599-.799 1.3-1.499 3.7-1.499 5.399 0 3.4 0 3.4-5.495 1.9-4.296-1.2-6.695-3.599-5.895-5.899.3-.8.2-1.1-.2-.7-1.199 1.1-5.396-3.4-5.396-5.799 0-3.7 1.499-4.4 4.597-2m90.725 12.698c-.5.8-.2.9.899.5 1.998-.8 2.198.4.5 2.2-1.1 1-.9 1.1.599.5 1.599-.6 1.799-.4 1.299 1-.4 1-.3 1.5.3 1.1.599-.3.999 0 .999.7s.899 1.9 1.998 2.599c1.199.7 1.899 1.6 1.599 2-.2.4.5 1.9 1.599 3.2 1.099 1.4 1.698 1.8 1.299 1-.4-.8.199-.4 1.298.9 4.397 5.499 5.696 19.398 2.199 23.797-2.199 2.8-2.598 2.4-.9-1 .7-1.5.3-1.3-1.299.7-1.498 1.7-2.997 2.6-3.597 2.2-.699-.4-1.199-.1-1.199.9 0 1.2-.599 1.5-2.198.9-3.197-.9-3.197-.9-3.097-6.7 0-4.299-.1-4.799-.899-2.699-.5 1.4-.7 3.499-.5 4.699.3 1.5 0 2-.999 1.6-1.499-.6-3.597-4-3.797-6.299-.1-.8-.3-3.1-.4-5l-.299-3.499-.8 2.999c-.599 2.4-.799 1.7-.899-3.299-.1-4 .3-6.1.899-5.7.6.3.999.4.999.1 0-.2.3-1.3.6-2.299.4-1.3.3-1.5-.4-.4-.699.899-.999-.1-.999-3.3-.1-2.8.3-4.4.799-4.1.6.3 1 1.3 1 2.1 0 1.8 5.895 10.399 7.094 10.399s6.095 8.699 6.894 12.299c.599 2.499.799 2.699.899.9.1-3.2-3.996-10.999-8.393-15.699-4.496-4.699-6.494-9.199-6.395-13.698.1-3 .2-2.9 1 1.1 1.199 6.199 1.598 5.999 1.299-.7-.1-5.5.099-7.199 1.199-7.199.299 0 .199.499-.2 1.199m-58.952 1.4c2.099.8 2.099 7.199 0 10.299l-1.698 2.4-1.299-2.4c-.7-1.3-1.299-1.8-1.399-1 0 1.1-.3 1.1-1.499.1-1.898-1.6-.2-3.999 2.898-4.099 1.099 0 1.499-.3.899-.6-1.399-.5-1.798-3.5-.599-4.6.799-.8.799-.8 2.697-.1m15.188 1.8c1.099 4.5-.2 15.498-2.098 17.598-1.799 1.9-1.799 1.9-4.597-.1-1.598-1.1-3.297-1.8-3.796-1.5-.5.3-1.599-.5-2.398-1.8-1.2-1.799-1.299-2.599-.4-3.599s.899-1.1-.2-.5c-1.099.7-1.299.4-.6-1.1.4-1 1.1-3.7 1.399-5.899.6-3.8.8-4 4.097-4 4.496 0 5.995 1 5.995 4.1 0 1.4.4 2.299.899 1.999 1.099-.699.9-2.399-.699-5.399-1.099-1.8-.999-2.2.2-2.2.899 0 1.798 1.1 2.198 2.4m103.714 6.199c.899.3 1.399 1 1.099 1.5-.299.4-1.299.5-2.198.2-.999-.4-2.098.1-2.997 1.3-.8 1-1.799 2-2.299 2-.599.1-1.598.2-2.198.3-.999.1-.999.3 0 1 1.099.7 1.099.9-.2 1.4-.799.299-2.497-.3-3.796-1.4-1.299-1-1.599-1.7-.7-1.4.799.3 3.497-.8 5.995-2.5 4.796-3.2 4.996-3.3 7.294-2.4m1.899 4.5c-.3.9 0 2 .599 2.3 1.899 1.199 1.199 2.599-1.399 2.599-1.399 0-3.697 1.1-4.996 2.5-1.398 1.3-2.498 2.1-2.498 1.7s-.299-1.8-.699-3.1c-.4-1.8-.3-2.2.6-1.6.999.6 1.099.3.099-1.499-.899-1.6-.899-2-.099-1.5 1.298.7 4.396-1.3 3.696-2.4-.199-.3.8-.6 2.299-.6 2.098 0 2.697.4 2.398 1.6m52.157 2.4c0 1.699-.8 2.099-4.697 2.299-3.796.2-4.796.7-4.796 2.1 0 1.9-4.896 7.099-6.794 7.099-.6 0-1.499-.6-1.898-1.299-.5-.7-3.298-1.3-6.995-1.4-8.193-.1-9.192-.4-8.593-2 .3-.7 0-2-.699-2.8-.6-.8-.899-2.3-.5-3.599l.7-2.1 1.199 2.3c1.499 3.199 7.394 4.599 12.689 3.199 2.099-.5 3.897-.6 3.897-.2 0 1.2 2.698 1.1 3.497 0 .3-.5 0-1.3-.599-1.7-.8-.5-.9-.3-.4.6.5.8.4 1.1-.3.6-1.498-.9-.499-3.299 1.299-3.299.8 0 1.199.4.9.8-.2.4 0 .999.599 1.399.5.3.999 0 .999-.8 0-.899 1.599-1.899 3.797-2.499 4.996-1.4 6.695-1 6.695 1.3m-96.82 1.399c-.2.3 1.099 1.7 2.797 3.1 2.398 1.9 2.698 2 1.599.5-1.399-1.9-1.399-1.9.599-.2 1.099.9 2.398 1.4 2.798 1 .4-.5 1.399.1 2.198 1.1.8 1.1 1.399 1.6 1.399 1 .1-.5 1.199.4 2.598 2.1 1.499 1.599 2.298 2.399 1.998 1.699-.399-.6-.499-1.2-.2-1.2.3 0 1.499 2.3 2.698 5 1.199 2.8 2.398 4.899 2.598 4.599.3-.3-.2-1.999-1.099-3.799l-1.599-3.3 2.598 2.9c2.498 2.8 2.598 3.5 2.198 10.499-.299 4.399-1.299 9.199-2.298 11.299-2.098 4.299-3.996 5.099-3.097 1.199.399-1.499.3-2.299-.3-1.999-.5.3-.699-.3-.4-1.3.3-1.3-.199-2.3-1.598-3-1.199-.7-2.099-1.9-2.099-2.7s-.299-1.299-.699-1.1c-.5.3-.799-2.899-.799-7.099 0-5.599-.5-8.799-1.899-11.598-1.099-2.2-2.198-3.4-2.398-2.8-.2.7-.799 1-1.299.7-.499-.4-.599.1-.2 1 .4 1.2.8 1.299 1.299.5 1.199-1.9 3.997 6.499 3.997 11.798 0 2.6-.499 5.4-.999 6.2-.699 1.2-.999.8-.999-1.4 0-2.3-.3-2.6-1.399-1.7-1.599 1.3-4.896.4-3.897-1.2.4-.6.1-.7-.699-.2-.999.6-.9 1.1.499 2.2 1.099.7 1.399 1.3.8 1.3-.7 0-1.499-.5-1.799-1-.4-.6-1.099-.7-1.698-.4-.7.5-.8.2-.3-.6.599-1 .399-1.2-.899-.7-1.2.5-1.499.3-1-.5 1.099-1.8 2.199-9.799 1.299-9.799-.399 0-.499-.9-.2-2 .3-1-.199-3.999-1.099-6.599-1.898-5.799-1.898-5.499-.1-4.799.8.4 1.299.9 1.1 1.299m32.673 8.8c.399 4.899.199 7.499-.6 8.099-.899.8-1.199-1.1-1.199-7.8 0-10.398.999-10.598 1.799-.299m3.097 1.599-.5 3.2 1.499-3c.899-1.799 1.499-2.299 1.499-1.4.1.9-.799 2.7-1.998 4-1.1 1.3-1.799 1.9-1.499 1.2.399-.6.2-1.4-.4-1.8-.499-.3-.999-3.2-.999-6.299l.1-5.7 1.399 3.3c.799 1.8 1.199 4.7.899 6.499m43.364 1.9c-.499 1.4-6.295 2.2-8.693 1.2-1.099-.6-.499-1 2.398-1.4 6.195-1.1 6.695-1.1 6.295.2m-21.282 11.199c-.5 1.7-.4 1.8.399.6.6-.9 1.099-1 1.099-.3 0 .6.3 1.9.7 2.9.499 1.299.3 1.499-.7.899-.899-.499-1.099-.399-.599.4.4.6 1.099.9 1.599.6.899-.6 2.098 2 1.299 2.9-1.1 1.1-2.998.6-5.296-1.4-1.799-1.6-1.998-2.3-1.099-3.399s.999-2 .1-3.5c-.6-1.2-1.299-2.1-1.599-2.1-.2 0 0 .9.7 2.1.599 1.3.699 2.5.199 3-1.199 1.199-3.797-3.5-2.997-5.5.499-1.3 1.199-1.3 3.697-.5 2.498.9 2.997 1.5 2.498 3.3m4.996 1.6c2.797 4.399 2.997 4.999 1.498 4.999-1.099 0-3.497-3.599-4.496-6.799-.999-3.3.2-2.7 2.998 1.8m-7.095 5.899c1.699 1.9 1.699 2-4.296 1.7-3.397-.1-6.095.2-6.095.7 0 .4-.4.5-.999.2-.5-.3-.999-1.1-.999-1.6 0-.6.499-.7.999-.4 1.399.9 1.199-1.9-.2-3.4-1.099-.999-.899-1.099.699-.5 1.699.7 1.799.6.7-.799-.799-.9-.899-1.9-.4-2.2 1.099-.7 3.397 1.7 2.698 2.699-.3.4-.2.5.1.3.699-.499 4.196 2.7 3.797 3.4-.1.3.499.6 1.399.7 1.199.1.599-1.1-2.099-3.9-2.997-3.099-3.597-4.299-2.498-4.899.9-.6 1.899.2 3.398 2.6 1.099 1.899 2.797 4.299 3.796 5.399m11.191-7.999c-.3.5.1 1.2.999 1.5 1.799.7 1.199 1.9-1.099 2.2-.799.1-1.299-.2-.899-.7.3-.5-.2-.9-.999-.9-2.198 0-1.998-1.7.2-2.3.899-.3 1.798-.5 1.998-.6.2 0 .1.3-.2.8m-6.095 20.098c-.3.6.5 1 1.899 1 1.498 0 3.297 1.1 4.596 2.699l2.198 2.8-2.997.3c-1.699.2-4.397-.4-5.996-1.2-1.598-.8-3.297-1.2-3.696-.8-.5.4-.5-.1-.2-1.1.399-.999.699-2.199.699-2.699s.799-1.1 1.799-1.3c.899-.3 1.798-.5 1.998-.6.2 0 0 .3-.3.9m-16.286 3.699c.999.9 1.798 1.3 1.798.9 0-.3.999 0 2.298.9 1.299.8 2.598 1.2 2.998.9.3-.4 2.598-.3 5.096 0 3.796.6 4.596 1.1 5.495 3.8 1.299 3.799 1.399 6.799.2 6.799-.5 0-1.199-.8-1.399-1.8-.4-1.3-.5-1.1-.599.5 0 1.3-.5 2.3-1 2.3-.499 0-1.598.3-2.498.6-1.199.5-1.598-.1-1.598-2.2 0-3.9-2.198-7.899-4.197-7.899-.999 0-2.398-.9-3.197-2-.899-1.1-1.599-1.5-1.599-.8 0 .6.5 1.5.999 1.8.6.4 1.699 2.1 2.498 3.8.999 2.199 1.399 2.499 1.099.999-.599-3.299.9-3.699 2.299-.699 1.898 4.299 1.398 7.099-1.499 7.799-4.796 1.2-12.19-7.399-13.989-16.199-.699-3.199-.599-3.199 2.198-2.199 1.599.6 3.697 1.899 4.597 2.699m26.877 8.1c.5 2.699.4 2.999-.699 2.099s-1.399-.8-1.399.6-.3 1.5-1.499.5-1.498-1-1.498.1c0 2-1.599-.2-2.798-3.899l-1.099-3.3 4.097.3c3.896.3 4.296.6 4.895 3.6" class="prefix__fills"/><path d="M107.411 121.187c-.299.7.2 3.3.999 5.799 1.299 3.8 1.399 4 1 1-.4-1.9-.7-4.499-.8-5.799-.2-2.5-.599-2.8-1.199-1m39.867 24.297c-.599 3.3-.999 6.2-.799 6.4.6.699 2.498-8.1 2.198-10.199-.2-1.2-.799.5-1.399 3.799M51.957 1.2c0 1 .7 1.6 1.799 1.6.899 0 2.398.2 3.297.6 1.798.8 3.497-1.9 1.898-2.9-.599-.4-.999-.1-.999.5 0 1.3-4.196.9-5.196-.5-.499-.6-.799-.3-.799.7" class="prefix__fills"/><path d="M67.444 2.4c-.799 1.3-1.299 2.999-.999 3.899.4.8.1 1.8-.599 2.3-.8.5-1 .3-.5-.7.4-.8 0-.5-.799.5-.9 1.1-1.599 2.5-1.599 3.2s-.6 1.1-1.199.9c-3.997-1-5.695-1.8-5.196-2.6.3-.5 1.099-.6 1.699-.2.699.4.599-.1-.2-1-.699-1-2.098-1.6-2.997-1.5-.8.2-1.599-.3-1.599-1.1s-.6-1.599-1.199-1.899c-2.298-.7-1.399 2.399.999 3.699 1.898 1 2.198 1.9 1.898 4.4-.499 2.899-.299 3.099 1.199 1.799 1.299-1.099 1.899-1.199 2.898-.2.899 1 .799 1.1-.799.6q-2.248-.75-.6.3c1.599 1.1 6.095-.4 7.394-2.499.4-.7 1.599-1.3 2.498-1.3.999 0 2.498-1.3 3.497-2.9 2.198-3.799 2.198-4.899-.1-2-1.499 1.7-2.098 1.9-2.698.9-.499-.8-.399-1.1.1-.7.5.3 1-.3 1-1.3 0-.999-.4-1.599-.9-1.299-.499.3-.699 0-.499-.8.299-.8 1.099-1.3 1.698-1.1.7.1.999-.2.6-.8-.899-1.4-1.299-1.3-2.998 1.4M77.636.6c-.4.4-.7 1.8-.7 3.1 0 1.299-.399 2.199-.899 1.899-.499-.3-1.598.5-2.498 1.9-1.598 2.4-1.598 2.4.999 1.5 4.697-1.8 5.995-1.2 7.794 3.3 2.298 6.199 8.093 12.698 10.991 12.498 2.198-.2 2.098-.5-1.799-5.299-2.298-2.8-4.796-6.499-5.495-8.299-.899-2.1-1.898-3.1-2.698-2.8-1.399.5-3.197-2-4.296-6.199-.4-1.3-.999-2-1.399-1.6m9.292.4c0 .9.7 2.5 1.499 3.6.799 1.199 1.099 2.399.799 2.799-.299.3-.1.6.6.6.699 0 .899 1 .599 2.7-.399 2.1-.299 2.3.3.9.799-1.8.899-1.8 1.499-.3.3.9.399 2.4.1 3.199-.4.8-.1 1.5.399 1.5.9 0 3.298 3 8.393 10.399.4.6 1 .7 1.399.3.4-.4-.2-1.7-1.399-3-1.199-1.199-4.796-7.199-8.193-13.198C89.626 4.4 86.928.2 86.928 1m16.886 1.7c4.197 2.099 6.095 3.899 8.893 8.199 1.898 3.099 4.896 7.299 6.495 9.399 2.198 2.8 2.697 4.099 1.898 4.899-1.199 1.2-2.398.1-8.893-8.899-2.098-2.899-4.196-5.299-4.596-5.299-1.099 0 7.994 12.398 12.09 16.598.7.8.999 2 .6 2.6-.4.7-.4 1 .1.6 1.598-1.5 3.497 1.5 3.497 5.699 0 3 .599 4.7 2.098 6.099 1.199 1 2.798 3.2 3.597 4.9l1.399 3-.5-3.3c-.3-1.8-1.698-4.5-3.097-5.999-2.698-2.9-3.298-7-1.299-8.999.999-1 .999-1.4 0-2.1-1.899-1.1-3.198-6.9-3.198-14.099 0-4.999.6-7.599 2.498-11.299C127.794.2 127.894 0 125.996 0c-1.998 0-5.096 2.5-5.096 4.1 0 .5-.499.899-1.199.899-.599 0-.899-.3-.499-.599.299-.3-.2-1.4-1.1-2.5-1.298-1.4-2.897-1.9-7.194-1.9h-5.495l3.997 1.9c3.497 1.6 11.29 8.799 11.59 10.899.1.4.3 2.399.4 4.399l.2 3.8-2.398-2.8c-1.399-1.5-3.098-4.1-3.797-5.699C113.107 7.299 103.714-.1 99.718.1c-.7 0 1.099 1.2 4.096 2.6m34.272-.1c-.799 1.7-.899 3.099-.2 4.199.899 1.5.899 1.5.7-.3-.1-1.1.299-1.999.799-1.999.599 0 .899.599.899 1.199-.1.7.2 1.1.6.8s1.099.2 1.398 1.1c.4.9.9 1.5 1.1 1.2.299-.3-.5-2.4-1.799-4.699L139.185 0z" class="prefix__fills"/><path d="M100.517 12.699c1.499 2.699 5.396 8.799 8.593 13.698s5.695 8.999 5.495 9.299c-.2.2-2.697-1.7-5.595-4.299q-5.096-4.65-5.096-3c0 .9.5 1.6 1.099 1.6.6 0 2.898 1.5 5.096 3.399 2.398 2.1 4.596 3.2 5.595 2.9.9-.4 1.299-.2.9.4-.4.6.499 1.9 1.998 2.8 5.895 3.899 11.291 11.998 11.291 16.998 0 1.5.399 2.4.999 2 1.898-1.2.999 4.599-1.299 7.999-2.098 3.099-2.298 4.099-1.599 9.599.9 7.699 5.296 16.598 9.692 19.598 1.799 1.2 3.198 2.499 3.198 2.799-.1.4.199 1 .599 1.3.4.4.3.1-.1-.7-.599-1.1-.399-1.3.8-.8 1.099.4 2.198-.4 3.696-2.799 2.099-3.4 6.795-7.899 9.193-8.799.899-.3.2-1.6-2.098-4.1-1.899-1.9-3.298-3.8-2.998-4 .2-.199 2.398-1.099 4.896-1.899l4.496-1.5 1.699 2.9q3.148 5.099 2.098.899c-.3-1.099-.899-1.999-1.399-1.999-.499 0-.899-.6-.899-1.3 0-.6 2.798-2.5 6.195-4 4.796-2.1 6.295-2.499 6.894-1.5.5.8.2 1.9-.699 2.8-1.299 1.3-1.599 1.3-2.498 0s-.999-1.2-.5.2c.7 2.4-.999 3.2-2.398 1.1-.999-1.5-1.099-1.5-.599-.1.699 2.3-.4 3-2.298 1.5-1.399-1-1.399-1-.3.5 1.499 1.8 4.396 1.7 6.694-.4 3.298-3 4.497-3.8 5.396-3.8.5 0 1.199-.4 1.499-.9.399-.5-.2-.7-1.299-.4-2.298.6-3.497-2.099-1.499-3.799 1.199-1 1.699-.8 2.798.6 1.798 2.499 3.397 1.1 4.796-4.3 1.199-4.699 1.199-4.699 1.998-1.7.5 2.1.6 1.7.2-1.499-.2-2.5-1.199-6.5-2.098-8.8-.999-2.799-1.299-4.599-.6-4.999.5-.4 1.199-1.5 1.599-2.5.499-1.4 1.099-1.6 2.598-.8 2.298 1.3 4.796-1.1 5.695-5.699q1.05-5.4 3.297-1.5c.6 1 1.099 1.3 1.099.7 0-.5-.599-1.7-1.199-2.6-1.199-1.4-1.698-1.3-4.696.8-2.098 1.5-2.797 2.4-1.698 2.4.899 0 1.598.7 1.598 1.5 0 1.2-.499 1.3-1.698.7-1.399-.7-2.398-.2-4.297 2-1.399 1.599-3.497 3.999-4.696 5.299-1.299 1.5-1.898 3.2-1.598 4.399.399 1.7.099 1.9-3.398 1.4-4.396-.6-5.795.5-6.694 5.2l-.6 2.999 1.199-2.999 1.199-3 .7 2.5c.599 2.2.699 2.1.799-1l.1-3.5 2.398 3.5c3.197 4.799 4.097 8.099 2.498 9.099-1.898 1.1-2.998.1-2.498-2.4.1-1.2.1-1.7-.1-1s-.999 1-1.798.7c-1.499-.6-3.997 3.2-2.598 4 .499.3 1.099-.4 1.499-1.7.499-1.8.799-2 1.598-.7.999 1.6 1.399 3.7.4 2.7-.3-.3-1.399.3-2.498 1.4-2.898 2.899-4.197 2.399-3.497-1.4.499-3.1.499-3.2-.8-.8-.799 1.4-1.099 3.1-.799 3.899.3 1 0 1.3-.899 1-.799-.3-1.199-1.2-.999-1.899.2-.8.599-3.2.699-5.4l.2-3.999-.6 3.999c-.599 3.5-.999 3.9-3.597 4-2.398 0-3.097.5-3.697 2.899-.499 1.6-.399 2.5 0 2 .5-.5 1.1-1.8 1.299-2.8.3-1.699.5-1.599 1.699.7 1.599 3.1 1.599 3.2-2.198 4.1-3.597.8-4.596-1.6-2.298-5.399.899-1.6 1.598-3.6 1.498-4.7 0-1-.499-.3-.999 1.4-1.199 3.999-3.197 4.399-2.298.5.4-2.1.3-2.4-.499-1.2-.6.8-1.099 2.3-1.099 3.2 0 1-.7 1.799-1.599 1.799-1.099 0-1.399-.6-.899-2.299.499-1.8.399-1.9-.5-.5-.599 1.1-.699 2.999-.1 5.499.7 3.1.899 3.3.999 1.2.1-1.5.8-2.9 1.599-3.3 1.099-.4 1.499.2 1.499 2.8 0 3.1-.3 3.4-3.597 4.1-3.897.7-5.396-.3-5.396-3.7 0-.9-.599-1.8-1.199-2-.799-.3-1.199-1.9-.999-4.099.4-4.1-1.699-5.9-4.296-3.7-1.199 1-1.499 1-1.499-.1 0-.8-.9-2.5-1.999-3.899s-1.998-3.8-1.998-5.3c0-1.6-.4-2.6-.899-2.2-.5.3-1.399-1-2.098-2.899-.6-1.9-2.998-5.2-5.296-7.4-10.491-9.898-14.588-15.598-4.896-6.999 4.896 4.4 3.397 2.5-4.996-6.599-2.598-2.8-6.894-8.599-9.692-12.899-5.595-8.499-7.893-10.499-3.497-2.999m80.833 42.295c-.399.6-1.199.8-1.798.4-.7-.3-.5 0 .299.8 2.698 2.3 2.299 3.899-.499 2.6-1.899-.8-2.198-1.4-1.299-2 .699-.4.899-.8.5-.8-1.499 0 .399-2 1.898-2 .799 0 1.199.5.899 1m-.1 8.599c.8 2.1-1.399 5-2.398 3.3-.899-1.3-.1-4.9.999-4.9.4 0 1.1.7 1.399 1.6m-41.266 9.799c.1.6.1 1.4 0 1.8 0 .5.4.8.9.8.599 0 .999.5.999 1.1 0 1.499 3.897 4.899 5.695 4.899.7 0 1.299.5 1.299 1.1 0 .5.5.7.999.4 1.799-1.1.999.4-1.898 3.7-1.599 1.799-2.898 3.599-2.998 3.999 0 .5-.399.8-.799.9-.5.1-1.599.5-2.598 1-2.198 1.2-4.596.1-2.598-1.2 1.099-.7.999-.9-.3-.9-.999 0-1.798-.7-1.798-1.5s-.4-1.5-.899-1.5c-.5 0-1.199-1.199-1.599-2.699-.3-1.5-1.399-3.3-2.298-4.1-.899-.7-1.099-1.1-.4-.7 1.499.8 1.599-1.1.1-1.999-1.299-.9-.699-7.2.999-10.399l1.299-2.3 2.898 3.3c1.599 1.799 2.997 3.699 2.997 4.299m28.777-62.293c-.7 1.3-.9 3.999-.5 6.599l.6 4.3-3.697-1.5c-1.999-.8-3.797-1.4-3.997-1.1-.4.4 4.696 2.6 6.794 2.9.8.2 1.999.6 2.698.999 1.599 1 1.499.6-.3-2.899-1.299-2.6-1.299-2.9 0-3.2.8-.2 1.499-.7 1.499-1.2s-.699-.7-1.499-.4c-2.098.9-1.898-1.2.5-3.599s2.498-3 .499-3c-.799 0-1.898 1-2.597 2.1M64.047 21.598c-.1 6.199.799 11.398 2.098 11.398.5 0 .6-.5.2-1.099-.3-.6-.999-4.3-1.399-8.2-.699-6.699-.699-6.799-.899-2.099m134.689-1c-.7.8-1.799 1.3-2.598 1-1.699-.7-4.296.3-4.296 1.699 0 .7.399.7 1.199-.1 1.898-1.899 3.297-1.399 1.598.5-3.297 3.9-2.997 4.6.5 1.5 3.697-3.099 6.694-4.199 6.694-2.299 0 .599-.499 1.299-.999 1.599-.599.4-.699 1.1-.4 1.7.9 1.4 2.398-1 2.398-3.799 0-2.7-2.398-3.8-4.096-1.8" class="prefix__fills"/><path d="M151.175 24.197c-3.197 1-3.297 1.2-2.698 5.2 1 6.299 3.098 9.999 6.795 11.999 3.397 1.799 3.497 1.799 6.994-.4 4.596-2.8 5.895-5.3 5.196-9.499-1.299-6.9-8.094-9.899-16.287-7.3m9.492 3c-.2.7.3 1.2.999 1 .8-.1 1.1.2.7.8-.3.5-.1 1 .599 1 .7 0 .9.9.6 2.2-.4 1.199-.1 2.899.599 3.699.6.9.7 1.3.2.8-.399-.4-1.898 0-3.297.9-3.297 2.1-6.695.6-8.493-3.8-1.898-4.399-.6-6.599 4.097-7.099 1.998-.2 3.796-.4 3.996-.5.1-.1.1.4 0 1m12.19-3.3c0 .5.4 1.1.899 1.3 1.499.5 1.799 6.3.4 6-.699-.1-1.299.3-1.299.9 0 .599.899.799 1.999.399 1.199-.399 2.597-.199 3.297.3.799.6 3.297.5 7.194-.4l5.995-1.399-6.195.5-6.195.6-1.998-4c-2.098-4-4.097-6.099-4.097-4.2m-32.473 1.7c2.098 1.6 5.895 1.9 5.096.5-.4-.5-.1-1.1.399-1.3.6-.2-.799-.4-3.097-.4-3.897-.1-4.097 0-2.398 1.2m68.244.9c-1.999 1.4-4.197 2.5-4.696 2.5-1.599 0-1.299 2 .299 2.6.8.3 2.298.1 3.298-.5 1.498-.9 1.298-1-1.199-.5-2.698.6-2.498.3 1.798-2.6 4.097-2.8 5.396-4 4.396-4-.099 0-1.898 1.1-3.896 2.5m-150.576 3.9c-.1 2.999.3 4.599.799 3.999.5-.5.6-2.699.1-4.899l-.799-4zm112.207 1.6c.2 1.899 0 4.399-.399 5.499-.4 1.2 0 3.6 1.099 5.999.899 2.2 1.798 3.3 1.798 2.5s-.599-2.6-1.399-4c-.899-1.699-.999-2.899-.299-3.699.599-.8.599-2.6-.1-5.5-.899-3.699-.999-3.799-.7-.799m-42.664 2.799c-1 1-1.699 2.2-1.699 2.7s.6.1 1.299-.9c1.299-1.8 1.499-1.7 3.497 1.2 1.199 1.6 2.198 3.7 2.198 4.599 0 .9.7 3.2 1.399 5.1.799 1.9 1.099 3.499.6 3.499-.4 0-1.1-.599-1.299-1.299-.3-.7-.6-.4-.6.6-.1 1.199.5 1.699 1.499 1.499 1.199-.2 1.699-1.499 1.798-4.299.1-2.2.6-5.2 1-6.699.599-2.2.299-3.2-1.799-5.2-2.997-3.1-5.695-3.299-7.893-.8m-70.642 2.4c0 2.9 1.399 3.5 4.996 2.3 3.797-1.3 3.997-1.1-3.198-3.1-1.099-.3-1.798 0-1.798.8m134.189 6.899c-.499.5-1.898 1.1-3.097 1.2-1.099 0-1.899.4-1.599.8.2.4 1.199.5 2.298.2s2.098.2 2.398 1.1c.899 2.4 2.698 1.9 2.598-.7 0-1.2-.3-1.6-.6-.9-.199.6-.899.9-1.398.6-.6-.3-.5-1.1.199-2 1.299-1.6.8-1.9-.799-.3m-85.329 2.5c-1.899 2.4-7.394 4.499-12.59 4.999-3.097.2-4.197 0-3.697-.799q.75-1.05-.599-.3c-2.498 1.499 2.098 3.699 6.694 3.199 2.898-.3 4.596 0 5.795 1.2 1.599 1.5 1.699 1.4.999-.9-.699-2.3-.699-2.3.9-.7.999.9 2.198 1.7 2.697 1.7.6 0 .3-.7-.499-1.6-2.298-2.2-1.999-2.799.599-1 1.199.9 3.198 1.6 4.297 1.5 1.898 0 1.898-.1-.1-.9-3.697-1.4-3.597-2.699.2-3.399 2.897-.6 3.297-1 2.398-2.1-.6-.8-1.799-1.1-2.698-.8-.799.3-1.799.1-2.198-.6-.6-.9-1.199-.7-2.198.5m31.474.8c-.4 1 .199 2.6 1.398 3.899 1.1 1.2 2.299 3.3 2.698 4.7.5 1.9.4 2.1-.399 1-.7-1-1.1-1.1-1.1-.3 0 .7-.399 1.3-.999 1.3-.499 0-.999-.7-.999-1.5 0-1.6-1.499-2.1-2.298-.8-.3.5.6 1.6 1.898 2.6s2.398 1.4 2.398.8c0-.5.8-.8 1.799-.6.899.1 1.599.8 1.399 1.5-.1.599.2.899.699.599.5-.3 1.199.1 1.499 1 .4 1 .2 1.3-.699.8-.8-.5-.7-.2.199.9 1.799 2.2 3.298 2.2 2.898-.1-.2-1.2.3-1.6 1.898-1.4 2.498.4 5.896-3.899 4.896-6.299-.299-.8-1.998-2.1-3.796-2.9-7.195-2.999-8.394-3.599-10.492-5.199-2.098-1.5-2.298-1.5-2.897 0m15.687 10.899c-.5 1.2-1.599 2.399-2.498 2.499-1.599.4-1.599.2-.1-2.699 1.798-3.5 3.897-3.3 2.598.2m6.195-11.299c-1.699.7-2.199 1.6-1.999 3.999.2 2.6.4 2.9 1.199 1.4.6-1 1.999-2.799 3.198-4.099 2.298-2.4 1.398-2.8-2.398-1.3M73.14 56.294c.1 4.699.499 8.199.799 7.699s1.199 1.6 1.798 4.8c1.299 5.899 2.598 7.799 5.196 7.699 2.098-.1 4.097 1.8 2.798 2.599-.6.4-.6.9-.1 1.2s2.098-1.899 3.397-4.899c2.398-5.1 2.498-5.4.6-5.4-1.299 0-1.699.5-1.299 1.6.299.8.2 1.2-.3.9s-2.198 0-3.597.7c-2.398 1.1-2.898 1-4.197-.7-.699-1.1-1.199-2.8-.999-3.699.3-.9.1-1.8-.399-2-.4-.2-1.299-4.3-1.799-9.199-.599-4.9-1.299-9.099-1.599-9.399-.299-.3-.499 3.299-.299 8.099m5.495-5.699c-.999.999 2.198 2.999 6.195 3.899 1.798.4 4.896 1.6 6.794 2.7 1.799 1.1 3.697 1.7 3.997 1.4.4-.4-.2-.9-1.399-1.2s-2.398-1.2-2.698-2-1.898-1.4-3.497-1.4-3.297-.5-3.597-1c-.299-.6-1.499-1-2.498-1s-1.998-.5-2.198-1.1c-.2-.499-.699-.699-1.099-.299m118.302 9.898c-.2 3.3-1.798 5.8-4.096 6.3-1.699.4-2.998 2.1-2.998 3.999 0 2 6.795-3.799 7.494-6.399.4-1.2.5-3.3.2-4.499-.4-2-.5-1.9-.6.599m-14.688 12.499c-.099 3.7-3.097 8.299-4.696 7.399-.699-.4-.899-.3-.399.1.399.5 0 1.7-1 2.7-2.697 3-.799 3.1 2.498 0 3.198-3 6.195-10.699 4.597-12.199-.5-.5-.9.3-1 2m-59.55.7c-2.099 2.4-3.797 5.899-3.797 7.499.1.7.699.2 1.399-1.1.999-1.799 1.498-1.999 1.898-1 .3.8.6.2.6-1.299.099-1.5.799-3.4 1.698-4.2.799-.9 1.099-1.6.6-1.6-.5 0-1.599.8-2.398 1.7m-34.572 7.799-2.298 1.2 2.298.7c1.899.5 1.999.8.8 1.6-.8.5-1 1-.5 1 1.299-.1 4.496-2.5 4.496-3.5 0-.4-.699-.1-1.598.6-1.499 1.2-1.599 1.1-1-.9.4-1.2.6-2.2.4-2.1s-1.299.7-2.598 1.4m5.496 3.5c-1.399 1.1-3.398 2-4.397 2s-2.598.899-3.597 1.999c-2.198 2.6-2.198 3.3.2 2.1.999-.6 3.697-1.2 5.895-1.3 2.198-.2 3.797-.7 3.497-1.1-.299-.5.5-1.899 1.799-3.299 2.897-3.1.4-3.4-3.397-.4m68.443 1.9c-.1 2.299.5 4.199 1.998 5.799l2.099 2.3h-2.998c-3.797 0-5.295-1.7-5.495-6.5-.1-2.799-.3-3.299-.999-1.999-.6.9-.7 2.299-.4 3.199.4.9-.2 2.5-1.199 3.7s-2.598 3.3-3.497 4.799c-1.699 2.8-1.699 2.8.699 2.8 4.896 0 8.393-1.2 8.893-3.1.3-1.199 1.399-1.899 2.897-1.899 1.899 0 1.999.2.8 1.099-.999.7-1.099.9-.2.7.799-.2 1.299-.799 1.199-1.299s.699-1.2 1.699-1.6c1.299-.6 1.398-.8.299-.8-2.298-.1-4.796-3.6-5.295-7.299l-.4-3.3zm7.094.6c-1.498 1.299-2.298 2.499-1.598 2.499.699 0 2.498-1.1 3.996-2.499 1.499-1.3 2.298-2.5 1.599-2.5s-2.498 1.1-3.997 2.5M96.92 92.49c-.699.8-2.698 1.9-4.396 2.4-2.398.7-2.598.9-.9 1 1.199.1 2.498.6 2.898 1.199.4.7 1.399-.099 2.698-1.999 2.098-3.4 1.898-5.2-.3-2.6m-26.778 13.099c.699.799 2.098 2.299 3.197 3.199 1 .9 2.998 2.7 4.297 3.9 1.399 1.2 3.397 2.5 4.496 2.899 1.599.5 1.699.8.6 2.1-1.199 1.5-1.099 1.5.899.3 2.098-1.3 1.998-1.4-2.198-4.199-2.298-1.5-5.795-4.4-7.594-6.3-3.397-3.499-6.095-4.899-3.697-1.899m-18.385 17.098c.5 1 1.599 3.099 2.398 4.799.9 1.6 2.598 6.1 3.797 9.899 1.199 3.8 6.295 14.799 11.291 24.497 8.693 16.899 9.092 17.899 9.092 24.098-.1 4.499-.999 9.599-3.297 16.798-3.297 10.499-5.096 12.799-5.096 6.799 0-1.899-.499-3.799-.999-4.099-.599-.4-.799-1.1-.4-1.6.3-.5 0-1.7-.799-2.6-.799-1-1.199-3.699-.899-7.999.1-3.5-.3-8.699-.999-11.599-1.199-5.099-7.894-20.897-14.488-33.796-3.697-7.399-6.395-9.599-6.395-5.099 0 3.099 3.697 18.997 7.893 33.696 1.599 5.499 3.198 11.299 3.497 12.999.6 2.799.5 2.899-.899 1.099-.799-1.099-1.698-1.699-1.998-1.399-.6.599 8.593 9.698 11.291 11.198 2.198 1.2 3.197 2.8 2.497 3.8-.199.5 0 1.4.5 2.1.6.7 1.199 2.699 1.399 4.499l.3 3.3 6.994.3c3.897.2 8.093.9 9.492 1.4 1.998.9.699 1.1-6.694 1.1-9.992.1-10.292.3-8.294 5.499.5 1.4 1.499 2.6 2.199 2.5.999 0 .999-.2.1-.6-1.399-.5-1.799-3.9-.5-4.6.4-.2.1-.2-.5-.1-.699.2-1.299-.1-1.299-.6 0-1.5 14.788-1.2 20.683.3 2.798.8 6.395 2.2 7.994 3.2 2.997 2.1 5.595 2.8 4.796 1.5-.8-1.3-11.491-6.999-16.487-8.699-2.498-.9-6.794-1.9-9.692-2.2l-5.095-.6 2.198-6.799c1.199-3.7 2.398-6.6 2.598-6.3.299.2.699-1.499.899-3.699.899-7.899.3-22.198-.799-21.098-1 .9-10.092-16.898-11.891-23.197-1.099-3.8-2.498-8.499-3.097-10.399l-1.099-3.5.499 4 .5 3.999-1.499-2.799c-.899-1.5-1.299-3.3-.899-3.9s.3-.8-.4-.4c-.599.4-.999-.1-.899-1.2 0-.9-.899-3.799-2.098-6.199-1.099-2.5-2.598-5.7-3.098-7.299-.599-1.5-1.498-2.7-2.098-2.7s-.699.7-.2 1.7m-.399 27.697c2.298 4.399 3.497 7.899 3.097 8.699-.5.7-.4 1 .2.6 1.299-.8 7.793 13.698 6.794 15.298-.3.6-.1.9.6.8 1.698-.4 3.797 8.999 3.797 16.398-.1 4.9-.3 5.8-1.799 5.8-2.098 0-4.996-2.9-5.595-5.6-.2-1.1-1.099-4.399-1.899-7.399-.899-3-1.299-6.399-.999-7.499.3-1.3.2-1.6-.3-.8-1.099 1.6-4.496-10.799-3.697-13.399.5-1.5.4-1.599-.599-.3-.899 1.3-1.099 1.2-.799-.5.099-1.099-.4-3.699-1.1-5.799-.699-2.1-1.099-4.699-.799-5.799.3-1 .2-1.7-.3-1.4-.699.5-1.998-2.7-1.998-5.3 0-2.899 1.799-.7 5.396 6.2m11.59-24.598c0 .6 3.597 4.3 7.893 8.299 4.397 4 7.694 7.7 7.394 8.2-.299.6-.199.8.3.4.5-.3 1.699.1 2.698.799 1.199.8 1.399 1.5.799 2-.599.3-1.099 1.1-1.099 1.8 0 .6.6.3 1.299-.7 1.199-1.7 1.699-1.5 5.496 3 4.296 4.999 5.495 7.699 2.497 5.299-1.598-1.2-1.698-1.2-.599.2.999 1.2.999 1.8 0 2.9q-.9 1.2.899-.3c1.599-1.3 2.298-1.4 3.397-.4 1 1 1.1.9.5-.3-1.699-3.1-6.095-8.499-8.493-10.599-2.998-2.6-12.689-11.699-18.685-17.598-2.398-2.3-4.296-3.6-4.296-3m-46.362 3.2c.4 2.6.3 3.1-.499 2-.6-.8-1.099-1.2-1.099-.8 0 .3-.3 1.4-.7 2.4-.399 1.2-.3 1.499.5 1 .699-.4 1.199-.1 1.299.599 0 .7.499.1.999-1.299.599-1.7.599-3.4-.1-5-.899-2.1-.899-2-.4 1.1" class="prefix__fills"/><path d="M25.779 129.686c-6.095 6.699-11.291 24.097-10.492 34.796 1 11.599 5.496 22.998 9.692 24.298.8.3.3-.8-1.199-2.3-1.598-1.5-2.797-3.6-2.797-4.6 0-1.1-.5-1.899-1.099-1.899-.6 0-.9-.9-.6-2s.1-1.8-.3-1.5c-.499.3-1.099-1.4-1.498-3.7-.4-2.399-.9-5.399-1.199-6.799-.6-3.2.699-15.098 1.498-14.598.4.2.8-1.1.9-2.9.099-1.9.799-4.9 1.598-6.699.8-1.8 1.799-4.1 2.099-5.2.399-1.1 1.199-1.6 2.098-1.2.799.3 1.698.1 1.998-.5.4-.5 1.099-.7 1.599-.3.499.3.799.2.699-.3-.2-.399.2-.799.7-.799.599 0 .999 7.099 1.099 19.197.1 16.299-.1 18.998-1.299 18.598-1.199-.499-1.199-.699-.1-1.399.999-.7.999-.9-.2-.9-1.798 0-4.996-3.4-4.996-5.3 0-.8-.399-.7-.999.3-.699 1.1-.3 2.1 1.799 3.8 2.198 1.8 2.398 2.4 1.199 3.1-1.599 1.099-3.298.399-2.498-1 .399-.5.199-.9-.4-.9-.6 0-1.799-1.4-2.698-3.1-1.499-3-1.499-3.2.2-2.5 1.499.5 1.599.4.699-.4-.799-.9-1.598-.9-2.997-.1-1.099.6-1.299 1.1-.4 1.1.8 0 1.099.6.7 1.6-.3.8-.2 1.3.199 1 .5-.3 1.599 1 2.498 2.9s2.099 3.499 2.698 3.499c.5 0 .999.7.999 1.5s.3 1.5.8 1.5c.399 0 1.798 1.7 3.197 3.8 1.399 1.999 2.898 3.999 3.397 4.399.5.3.9 3.4.999 6.699 0 3.4.3 5.6.7 5 .3-.6 1.099.2 1.698 2 1.399 3.899 1.699 3.899 1.799 0 .1-1.7-.2-2.5-.6-1.9-.899 1.5-1.898-1-2.697-6.499l-.5-4 2.698 2.5c1.499 1.4 3.397 3.999 4.096 5.699.8 1.8 1.899 3.3 2.399 3.3.599 0 .999.7.999 1.6 0 .799 1.498 2.999 3.297 4.699 1.699 1.8 4.696 4.999 6.495 7.199l3.197 4-3.097-5.2c-1.699-2.899-3.498-5.499-3.997-5.899-.5-.3-.7-1-.4-1.5.4-.5-.3-.9-1.499-.9-1.099 0-2.298-.7-2.597-1.5-.6-1.499 1.199-4.499 2.697-4.499.4 0 2.498 3 4.497 6.699 5.195 9.499 11.09 17.298 13.189 17.298 1.199 0 1.399.3.399.8-.899.6-.499 1.5 1.499 3.3 1.399 1.3 2.298 1.8 1.899 1.2-.4-.7-.9-2.3-1.199-3.5-1.599-7.499-2.199-11.299-1.899-11.699.2-.2-.3-1-1.099-1.899-1.299-1.2-1.299-1.6-.2-2.3.899-.6.899-.9.1-.9-.699 0-3.897-2.7-7.294-5.999-3.297-3.3-5.995-5.8-5.995-5.4s-1.099-1-2.498-3c-3.097-4.599-3.197-5.599-.2-2.799 1.799 1.7 2.398 1.9 2.398.8 0-.8-.399-1.3-.799-1.1-.3.3-1.199-.2-1.898-1-1.299-1.6-3.997-2-3.997-.7 0 .5.899 1.7 1.998 2.7 2.198 2 2.698 3.999.8 2.999-.7-.4-.5 0 .499.8 1.099.9 1.399 1.8.799 2.1-.599.4-2.098-.3-3.497-1.5-1.698-1.5-2.298-2.899-1.998-4.799.4-2.2.3-2.4-.699-.8-1 1.8-1.1 1.8-2.498 0-1.399-1.7-1.499-1.7-.5.2.5 1.1 2.298 3.299 3.997 4.899 2.298 2.2 2.797 3.2 1.898 3.8-1.798 1.1-2.797 1-2.797-.2 0-1.7-5.396-8.899-7.195-9.499-.999-.4-1.798-1.3-1.798-2 0-2.2 2.198-2.9 3.497-1.2 1.499 2.1 2.198 2.1 2.198.2 0-.8-.2-1.3-.499-1.1-1 1-5.296-4.099-6.195-7.299-.5-2-.999-11.999-.999-22.197 0-25.698-.7-28.097-6.195-22.198m3.896-1c-.399.3-.099 1.3.6 2.1.999 1.3.899 1.4-.999.3-1.799-.9-2.198-.9-1.699.2.7 1.9-2.098 4.199-3.197 2.6-.4-.7.4-2.2 1.998-3.6 2.398-2 4.996-3.4 3.297-1.6m.3 45.895c0 .7.4 1.5.899 1.8.4.3.6-.7.3-2.2s-.2-2.5.1-2.2.7 1.7.899 3.2c.2 1.4 1 3.3 1.699 4.2 1.199 1.399 1.099 1.599-.799 1.599-1.099 0-2.099-.4-2.099-.999 0-.5-1.199-2.1-2.597-3.5-2.798-2.8-2.698-6.799.099-4.5.8.7 1.499 1.8 1.499 2.6m22.582 20.598c.999 1.2 1.299 1.8.499 1.3-.999-.6-1.199-.4-.699.4.499.7 1.399 1 2.098.7 1.499-.5 3.797 1.699 4.097 4.199.599 4 2.198 10.299 2.597 10.799 1.1 1-.099-7.799-1.298-9.199-.6-.8-.8-1.4-.3-1.4 1.299 0 4.896 5.999 5.795 9.199.6 2.5.4 2.8-1.898 2.8-2.598 0-4.297-2.2-10.092-12.999-1.599-2.999-3.197-5.699-3.697-5.799-.6-.3 0-2.2.699-2.2.2 0 1.099 1 2.199 2.2m163.864-64.193c-2.698 1.1-5.395 2.4-5.995 3-.499.499-1.499.999-1.998.999-.6-.1 0-.999 1.299-1.999 1.299-1.1 1.898-2 1.399-2-.6 0-1.799.9-2.798 2-.999 1.099-1.399 1.999-.999 1.999.499 0-.2 1.1-1.499 2.5-1.199 1.3-2.698 2.2-3.297 1.8-.6-.3-.7-.2-.4.4.699 1.2-1.998 3.899-7.694 7.699-2.098 1.4-3.397 2.6-2.797 2.6s3.197-1.8 5.895-4c11.69-9.699 15.687-12.398 21.582-14.598 3.397-1.3 5.296-2.3 4.197-2.3s-4.197.9-6.895 1.9m-49.959 2.7c-.399.499-1.199.899-1.698.899-.5.1-1.299.2-1.699.3-1.299.2-.799 5.8.5 5.8.699 0 .999-.4.699-.9-.299-.4.4-2.2 1.599-3.8 1.998-2.799 2.298-3.999.599-2.299m-65.545 5.999c0 1.2.499 2.5 1.099 2.8.599.4 1.399 1.599 1.798 2.799.4 1.1.999 1.6 1.299 1.1s-.599-2.7-1.798-4.899c-1.899-3.2-2.398-3.6-2.398-1.8" class="prefix__fills"/><path d="M10.991 155.983c.2 21.898.1 24.198-.999 23.498-.6-.4-.7-1.1-.4-1.7.4-.7.2-.8-.4-.4-.799.5-.1 2.3 2.199 5.699 2.797 4.2 3.297 5.9 3.497 11.699.2 7.999.999 11.299 2.697 12.699 1.499 1.199 3.098 9.499 1.799 9.499-1.699 0-10.292-6.7-9.592-7.5.4-.5.2-.5-.4-.2-1.099.6-6.295-4.199-8.193-7.799-.899-1.5-1.099-1.6-1.199-.4 0 2 9.992 11.599 15.487 14.899 2.198 1.299 4.097 2.399 4.297 2.599.199.1.499 1.3.799 2.8.3 2 .1 2.4-1.099 1.9-.899-.3-1.399-1.2-.999-2.1.399-1.2.299-1.2-.8-.3-1.698 1.3-4.296-.4-12.389-8.299-2.898-2.8-5.296-4.6-5.296-4 0 2.9 17.785 16.399 21.582 16.399.6 0-.399-11.899-1.199-13.099-.3-.5-.1-.9.5-.9.599 0 1.299 1.1 1.698 2.5.3 1.4.9 2.3 1.299 2 .4-.2 1.499.5 2.398 1.6 1.299 1.499 1.399 1.899.3 1.899-.799 0-1.599-.5-1.798-1.2-.3-.899-.6-.899-1.199 0-1 1.6 7.993 7.2 11.69 7.2 1.599 0 2.598-.4 2.198-1-.3-.6-1.798-.8-3.297-.5-1.699.3-2.098.3-.999-.2s1.398-1.3.899-2.1c-.7-1.2-1.199-1.2-2.898-.1-1.798 1.1-2.398 1.1-3.397 0-1.099-1.1-.899-1.2.999-.6 2.098.6 2.298.5 1.299-1.3-1.099-2.099-.599-5.199.899-5.199.4 0 2.299 1.7 4.097 3.699 3.397 3.9 8.793 8.6 7.594 6.6-1.499-2.4 5.295-3.2 7.294-.8.699.8 1.698 1.5 2.298 1.5.599 0 0-1.1-1.299-2.5s-2.998-2.3-3.697-2.1c-.699.3-1.499 0-1.898-.6-.5-.7-1.199-.5-2.099.7-.899 1.4-1.299 1.5-1.299.4 0-1-.2-1.1-.799-.2-.5.8-1.299.9-2.198.3-1.299-.8-1.199-1 .3-1.1 2.997-.3 3.497-.4 4.296-1.1.4-.4 1.299-.3 2.098.3.7.6 1.299.8 1.299.4s-1.099-1.6-2.398-2.599-2.598-2.9-2.997-4.2c-.5-2-1.099-2.3-3.098-1.9-2.098.4-2.498.1-2.498-2 0-3.299 4.596-3.799 5.596-.6.699 2.4 9.392 11.999 13.588 14.899 1.899 1.4 2.898 1.6 3.398.8q.599-1.05-.3-.6c-.6.4-1.799-.2-2.798-1.3-1.798-2-1.698-2 1.999-2 2.897 0 3.597.3 3.097 1.6-.4 1-.2 1.3.599.8.8-.5.9-.2.5.9-.5 1.2-.1 1.7 1.299 1.7.999 0 2.198-.4 2.498-1 .3-.5 0-.7-.699-.5-.8.3-2.099-.9-3.198-3-2.698-4.999-3.497-5.399-8.393-4.499-3.997.7-4.396.5-6.994-2.5-1.499-1.8-3.797-5.1-5.096-7.299s-3.397-4.3-4.696-4.6c-2.998-.8-9.492-6.699-8.693-7.999.3-.6.2-.8-.2-.3-.499.4-2.697-1-4.896-3-2.298-2.099-2.997-2.499-1.598-.999 2.098 2.399 2.198 2.999.999 3.699-2.298 1.5-2.898 1.2-4.496-2.3-.8-1.699-2.398-4.799-3.498-6.699-2.098-3.6-2.797-11.999-.999-11.999.7 0 .7-.7 0-1.999-.699-1.3-.999-7-.899-14.599.1-6.799-.1-12.698-.5-13.098-.399-.4-.699 5.699-.599 13.698m7.494 41.696c0 1.299-.3 2.299-.7 2.299s-.1.8.7 1.7c.799 1 3.097 3.7 5.096 6 1.998 2.399 4.296 4.299 4.995 4.299 1.699 0 1.699 1 0 3.2-.999 1.3-1.498 1.5-2.398.6-.699-.7-1.199-1.7-1.199-2.4 0-.6-.699-1.5-1.598-1.8-.8-.3-1.199-1.1-.8-1.7q.6-1.05-.299-.6c-.5.4-1.999-.5-3.198-1.899-1.698-2-2.298-4.2-2.598-9.699-.399-6-.299-6.8.7-4.7.599 1.4 1.199 3.5 1.299 4.7m15.787 3.999 3.797 1.9-2.598 2.2c-1.799 1.6-2.498 1.8-2.498.8 0-.8-2.698-3.4-5.995-5.8-3.298-2.299-5.995-4.799-5.995-5.499 0-2.4 2.697-1.9 5.995 1.2 1.898 1.8 5.195 4.099 7.294 5.199m-9.492-1c1.798 1.2 5.595 4.5 8.293 7.399 3.197 3.4 5.395 4.9 6.394 4.5 1-.3 1.399-.2.9.5-.3.6.399 1.8 1.698 2.7l2.298 1.599-3.297.7c-2.898.6-3.697.3-7.194-3.199-3.797-3.8-4.996-5.7-2.798-4.3 1.599 1-.399-2.4-3.597-6.099l-2.598-3 2.498 4c1.799 2.699 2.298 4.199 1.499 4.999-1.299 1.3-7.294-5.099-6.295-6.699.4-.6.3-.8-.299-.5-.6.4-1.599-.7-2.199-2.5-1.598-4.699-1.898-4.599 4.697-.1m104.114-56.794c0 .7.699 1.9 1.498 2.7 2.798 2.9 3.797 9.399 2.898 19.898-1.099 14.498-.899 18.198 2.098 26.297l2.598 7.299-4.296 7.4c-6.395 10.998-11.991 12.898-22.482 7.899-2.997-1.4-5.795-2.3-6.095-2-.3.4-1.798-.6-3.397-2.1-3.397-3.3-3.797-2.2-.4 1.2 1.499 1.5 3.098 2.2 4.097 1.9.999-.4 1.499-.2 1.299.7-.2.7.599 1.5 1.698 1.7 1.1.2 2.299.799 2.598 1.299.3.5 2.898 1.2 5.796 1.6 3.996.4 5.995.2 8.892-1.3 1.999-1 3.897-2.199 3.997-2.699.2-.4.699-.5 1.199-.2.4.3.699-.3.599-1.3 0-.9.4-1.6 1.099-1.5.6.1 1.399-1.1 1.799-2.7.4-1.7.999-2.999 1.399-2.999.499 0 1.199-1.5 1.698-3.2l1-3.2 2.298 5.4c1.299 2.999 2.897 8.599 3.597 12.498 1.199 6.4 1.299 6.6 1.399 2.5 0-2.5-1.1-7.599-2.498-11.499-1.499-3.899-2.698-7.799-2.698-8.699-.1-.9-.5-1.4-.899-1.2-.8.5-1.199-1.699-1-5.099.2-1.5 0-1.7-.699-.6-.599 1-1.099.5-1.898-2-.6-1.9-1.299-4.599-1.499-6.099-.1-1.5-.6-3-.899-3.4-.4-.3-.3-1.6.099-2.799 1.599-4.4 1.299-24.498-.399-29.597-1.599-4.7-4.496-8.699-4.496-6.1m-22.582 3.2c-.3.5-.2.9.3.8 3.097-.5 3.397.3.799 2-1.598 1-4.296 3.299-5.895 4.999-1.698 1.7-3.597 3.1-4.496 3.1-.799 0-1.099.3-.799.6.999 1 6.694-1.7 6.694-3.2 0-.8 1.699-2.4 3.797-3.799 1.998-1.3 4.296-3 4.896-3.7.899-1.2.599-1.4-1.799-1.5-1.598-.1-3.197.2-3.497.7" class="prefix__fills"/><path d="M122.099 148.984c-.1 1.9-.599 5.099-1.199 6.899-.499 1.9-.799 3.7-.499 3.9.799.8 2.597-7.999 2.198-11.099l-.4-3.2zM5.495 158.183c-.999 3.999-1.998 10.799-2.298 14.998-.399 6.9-.199 8.299 2.099 13.099 1.498 2.9 3.996 6.599 5.695 8.199 3.897 3.7 3.897 2.7 0-1.6-7.194-7.899-8.393-15.498-5.096-31.396 2.398-11.599 2.098-13.999-.4-3.3m162.466-5.4c-.1 1.2.6 2.5 1.399 2.8.799.4 1.299 1 .999 1.4-.299.5-.1 1.1.4 1.4 1.699 1.1 2.098-1.1.5-2.5-.9-.7-1.999-2.2-2.398-3.399-.8-1.9-.9-1.9-.9.299m-28.077 5.9c0 1-1.099 4.899-2.398 8.799-2.897 7.999-2.697 9.799.3 3.1 1.999-4.7 3.797-13.599 2.698-13.599-.3 0-.6.8-.6 1.7m2.099 12.698c-.8 1.9-1.799 3.3-2.298 3-1.399-.9-.9 1.3.699 2.6 1.299 1 1.499.9 1.499-.9 0-1.2.499-3.1 1.099-4.2.599-1.099.899-2.499.699-2.999-.2-.6-.999.5-1.698 2.499m-20.383 6.1c-2.598 6.199-9.493 14.998-13.789 17.398-5.296 3-10.192 2.7-15.287-.9-2.299-1.7-4.996-4.499-6.095-6.199-2.298-3.9-3.198-2.3-1 1.799.8 1.6 1.499 2.6 1.499 2.1 0-.4 1.299.5 2.998 1.9 1.598 1.5 2.697 3.1 2.398 3.5-.3.5.2.6.999.3s2.798.2 4.496 1c3.397 1.799 5.496 2.099 4.596.599-.799-1.299 1.099-1.299 3.797.1 2.099 1 2.099 1 .3-.499-2.598-2.1-.3-2 3.197 0l2.698 1.599-2.498-2.099c-1.399-1.1-1.998-2.1-1.399-2.1 1.399 0 10.492-9.299 10.292-10.499 0-.3.899-1.8 2.098-3.3 1.699-2.199 1.998-2.299 1.599-.7-.2 1.1-.8 4-1.199 6.5-.4 2.499-.8 5.199-.999 5.999-.1.8-.9 3.2-1.599 5.199-1.299 3.4-1.599 3.6-2.998 2.2-1.199-1.2-1.698-1.3-2.298-.3-.499.7-.399 1 .2.6 2.198-1.4 3.198 1.7 1.299 4-.899 1.2-1.998 1.9-2.398 1.6-.3-.4-.599-.1-.599.6 0 .899-.9 1.199-2.398.899-1.399-.3-3.098-.1-3.797.3-.8.6.2.9 2.797.9 4.696 0 7.394-2.099 10.392-7.999 2.698-5.299 5.195-17.598 4.796-23.897l-.3-5.1zm24.279-.7c0 2.2 1.1 8.899 2.498 14.998s2.498 13.999 2.498 17.598c0 3.6.3 6.7.8 7 .399.2.599-1.4.399-3.6-.299-2.2.1-4.5.7-5.099.599-.6 1.099-1.8.999-2.7 0-1-.3-.9-.899.5-.6 1.4-.8.5-.8-3.3 0-2.9-.399-5.799-.999-6.399-.799-.8-.799-1.7-.1-3.1.8-1.4.8-1.8 0-1.3-.699.5-1.099-.3-1.099-2.299 0-1.6-.599-3.1-1.199-3.4-.999-.3-.999-.8-.2-1.6.8-.9 2.199 1.2 5.396 8.399 2.298 5.3 3.997 10.499 3.697 11.599-.3 1-.1 1.7.4 1.3.499-.3.899 2.2.899 5.599 0 4.4-.3 5.9-1.199 5.4-.7-.4-.8-.3-.4.4.4.599-.1 2.599-.999 4.299-1.299 2.5-1.799 2.9-2.598 1.8-.699-1.1-.899-1.1-.599-.1.599 2.4 2.298 1.6 4.596-2.4 3.397-5.699 2.698-16.298-1.699-25.897-1.698-3.8-2.897-7.499-2.598-8.299.2-.7.1-1.1-.299-.8-.9.6-5.196-7.599-5.196-9.899 0-.7-.4-1.7-.999-2-.6-.4-1 .9-1 3.3m-9.991 2.4c-2.898 3.199-1.399 3.699 1.798.5 1.399-1.5 2.099-2.7 1.499-2.7-.699 0-2.098 1-3.297 2.2m4.596.7c-.4.499-.1 2.199.5 3.799.599 1.5.899 2.8.799 2.8s.1 1 .499 2.3c1.399 4.399 1.499 1.599.2-3.5-.799-2.9-1.099-5.399-.799-5.699s.3-.6-.1-.6c-.3 0-.799.4-1.099.9m48.76-.3c-.6.3-3.997 1.099-7.494 1.899-3.497.7-5.296 1.4-3.897 1.4 2.698.1 12.79-2.4 13.789-3.299.599-.7-.8-.7-2.398 0m-51.658 5.699c-.999 2.5.2 6.699 1.699 6.099 1.599-.6 4.896 8.899 4.097 11.799-.5 1.7-.4 1.9.299.9.8-1.2 1.099-1.1 1.499.5.2 1 .2.3-.1-1.6s-.499-5.099-.499-6.999-.2-2.9-.5-2.1-1.599-1.1-3.097-4.499c-2.099-4.6-2.898-5.5-3.398-4.1m55.255 2c-4.097.5-6.995 1.2-6.295 1.4.599.2 4.196 0 7.993-.5 8.194-1.2 16.287-.1 24.48 3.199 3.197 1.3 5.795 2 5.795 1.6 0-1.9-20.583-7.699-23.98-6.899-.3.1-3.897.6-7.993 1.2m-26.079 6.599c3.198 2.5 8.993 4.2 15.987 4.6l5.595.399-6.095-.899c-3.397-.6-8.792-2.1-11.99-3.5-4.796-2.1-5.395-2.2-3.497-.6m-75.338 7.799c1.799 2.2 1.799 2.4-.099 4.5l-1.899 2.299 2.298-1.899c1.999-1.8 2.698-1.5 2.198.9-.1.499.4.499 1.1-.2.899-.9.399-1.9-2.199-4.5-1.798-1.8-2.398-2.3-1.399-1.1m110.409 2.9c7.594 1.1 13.989 2.9 18.285 4.999 2.598 1.4 4.696 2.1 4.696 1.6 0-2.4-15.287-7.299-21.982-6.999-2.497 0-2.797.2-.999.4m-158.069 1c.599.3 1.199 1.1 1.199 1.8 0 1.599 5.795 7.099 6.594 6.299.4-.4-.1-.9-.999-1.3-.899-.3-1.598-1-1.598-1.6 0-.5.499-.6 1.199-.2.699.4.799.3.399-.5-.399-.6-1.199-.9-1.698-.6-.5.4-1 .1-1-.4-.099-.6-.199-1.699-.299-2.399 0-.6-1.199-1.3-2.598-1.4s-1.899 0-1.199.3M0 213.077c0 1.1 4.596 5.399 9.692 8.999 5.396 3.8 6.794 3.8 1.699 0-2.099-1.6-5.596-4.4-7.594-6.399-2.098-1.9-3.797-3.1-3.797-2.6m189.543.6c1.799.2 4.996.2 6.995 0 2.098-.2.699-.4-3.198-.4-3.797 0-5.495.2-3.797.4m22.082 2.3c1.699.4 5.396 1.899 8.193 3.199 2.698 1.3 4.597 2 4.297 1.5-.899-1.5-11.091-5.699-13.589-5.599-1.599.1-1.299.3 1.099.9m-19.184 1.799c.6.4 2.098 2.3 3.297 4.2 1.099 1.9 2.099 2.9 2.099 2.1 0-1.1.299-1.1 1.498-.1.8.7 1.499.8 1.499.2 0-1.3-2.698-3.5-3.197-2.5-.3.4-.3.2-.1-.5.1-.7-.1-1.1-.5-.8-.499.3-.899-.1-.899-.9 0-1.1.899-.9 4.097.7 2.298 1.1 4.995 2.8 6.095 3.7 1.998 1.6 1.998 1.6.099-.7-1.099-1.2-1.598-2.3-1.298-2.3 2.398-.5 3.497-.4 6.194.4 1.699.5 4.497 1.6 6.295 2.4 1.899.8 3.597 1.3 3.797 1 .899-.9-9.192-4.6-16.786-6.1-8.093-1.699-14.088-2.099-12.19-.8" class="prefix__fills"/></g><g class="prefix__frame-container-wrapper"><g class="prefix__frame-container-blur"><g class="prefix__frame-container-shadows"><g class="prefix__fills"><rect width="202" height="56" x="21" y="112" fill="#000" class="prefix__frame-background" rx="0" ry="0"/></g><g class="prefix__frame-children"><g class="prefix__text-container"><text x="57" y="163.6" fill="#ff672b" class="prefix__fills" dominant-baseline="ideographic" font-family="JetBrains Mono" font-size="36" font-style="italic" font-weight="800" lengthAdjust="spacingAndGlyphs" style="text-transform:none;white-space:pre" text-decoration="#ff672b" textLength="129.6">Coffin</text></g></g></g></g></g></g></g><g class="prefix__strokes"><g class="prefix__outer-stroke-shape"><defs><rect id="a" width="225" height="225" x="0" y="0" class="prefix__frame-background" rx="0" ry="0"/><mask id="b" width="236.314" height="236.314" x="-5.657" y="-5.657" maskUnits="userSpaceOnUse"><use stroke="#fff" stroke-width="8" href="#a"/><use fill="#000" href="#a"/></mask></defs><use stroke="#000" stroke-width="8" href="#a" mask="url(#b)"/><use stroke-width="4" href="#a"/></g></g></g></g></svg>