<svg width="234" xmlns="http://www.w3.org/2000/svg" height="270" id="screenshot-869a88b6-e825-8004-8006-26614a566077" viewBox="-6 -6 234 270" xmlns:xlink="http://www.w3.org/1999/xlink" fill="none" version="1.1"><g id="shape-869a88b6-e825-8004-8006-26614a566077"><defs><clipPath id="frame-clip-869a88b6-e825-8004-8006-26614a566077-render-1" class="frame-clip frame-clip-def"><rect rx="0" ry="0" x="0" y="0" width="222" height="258" transform="matrix(1.000000, 0.000000, 0.000000, 1.000000, 0.000000, 0.000000)"/></clipPath></defs><g class="frame-container-wrapper"><g class="frame-container-blur"><g class="frame-container-shadows"><g clip-path="url(#frame-clip-869a88b6-e825-8004-8006-26614a566077-render-1)" fill="none"><g class="fills" id="fills-869a88b6-e825-8004-8006-26614a566077"><rect width="222" height="258" class="frame-background" x="0" transform="matrix(1.000000, 0.000000, 0.000000, 1.000000, 0.000000, 0.000000)" style="fill: rgb(27, 154, 170); fill-opacity: 1;" ry="0" rx="0" y="0"/></g><g class="frame-children"><g id="shape-869a88b6-e825-8004-8006-26614053956d" rx="0" ry="0" style="fill: rgb(0, 0, 0);"><g id="shape-869a88b6-e825-8004-8006-26614055f656"><defs><filter id="filter-render-3" x="-0.21617646556871845" y="-0.8980696149232187" width="1.5188235173649243" height="3.155367075815725" filterUnits="objectBoundingBox" color-interpolation-filters="sRGB"><feFlood flood-opacity="0" result="BackgroundImageFix"/><feColorMatrix in="SourceAlpha" type="matrix" values="0 0 0 0 0 0 0 0 0 0 0 0 0 0 0 0 0 0 127 0"/><feOffset dx="4" dy="4"/><feGaussianBlur stdDeviation="2"/><feColorMatrix type="matrix" values="0 0 0 0 0 0 0 0 0 0 0 0 0 0 0 0 0 0 1 0"/><feBlend mode="normal" in2="BackgroundImageFix" result="filter_869a88b6-e825-8004-8006-26678645cf38"/><feBlend mode="normal" in="SourceGraphic" in2="filter_869a88b6-e825-8004-8006-26678645cf38" result="shape"/></filter><filter id="filter-shadow-render-3" x="-0.21617646556871845" y="-0.8980696149232187" width="1.5188235173649243" height="3.155367075815725" filterUnits="objectBoundingBox" color-interpolation-filters="sRGB"><feFlood flood-opacity="0" result="BackgroundImageFix"/><feColorMatrix in="SourceAlpha" type="matrix" values="0 0 0 0 0 0 0 0 0 0 0 0 0 0 0 0 0 0 127 0"/><feOffset dx="4" dy="4"/><feGaussianBlur stdDeviation="2"/><feColorMatrix type="matrix" values="0 0 0 0 0 0 0 0 0 0 0 0 0 0 0 0 0 0 1 0"/><feBlend mode="normal" in2="BackgroundImageFix" result="filter_869a88b6-e825-8004-8006-26678645cf38"/><feBlend mode="normal" in="SourceGraphic" in2="filter_869a88b6-e825-8004-8006-26678645cf38" result="shape"/></filter></defs><g class="fills" id="fills-869a88b6-e825-8004-8006-26614055f656"><path d="M104.492,78.518C101.711,80.927,101.143,82.281,101.714,84.998C102.225,87.354,102.195,87.500,100.592,89.721C96.906,94.808,91.146,99.783,87.775,100.712L86.081,101.144L85.635,99.693C84.816,96.942,85.008,94.666,86.165,93.218C88.361,90.525,87.929,86.641,85.056,84.114C83.736,82.973,82.110,83.010,80.217,84.251C79.480,84.693,78.774,84.990,78.573,84.875C78.373,84.759,77.968,82.681,77.648,80.271C77.183,76.260,77.224,75.632,78.311,73.656C79.765,70.861,79.759,68.741,78.267,66.415C76.492,63.654,76.194,63.428,74.441,63.501C73.045,63.509,72.499,63.899,70.790,65.841L68.788,68.104L66.742,66.923L64.697,65.741L63.559,67.526C62.556,69.171,62.533,69.212,63.525,68.049C64.360,67.066,64.892,66.885,65.661,67.221C66.230,67.440,66.761,67.910,66.861,68.293C66.960,68.676,67.364,69.180,67.765,69.412C68.207,69.667,68.710,70.554,68.943,71.448C69.309,72.853,69.171,73.370,67.916,75.358C66.520,77.590,66.506,77.799,66.872,83.002C67.135,85.974,67.209,89.273,67.141,90.318C67.049,91.404,67.090,92.350,67.211,92.420C67.612,92.651,69.797,86.643,70.922,82.193C72.485,76.152,72.584,74.961,71.376,73.070C69.714,70.483,69.810,69.019,71.786,66.525C73.942,63.809,74.882,63.755,76.621,66.116C78.781,69.045,78.846,69.950,77.169,72.671L75.679,75.066L76.606,82.817C77.652,91.287,78.470,96.262,78.828,96.198C78.956,96.163,79.298,95.384,79.608,94.478C80.041,93.263,80.009,92.485,79.385,91.528C78.177,89.637,78.562,87.581,80.526,85.568C82.088,83.974,82.152,83.957,83.733,84.924C86.798,86.748,87.318,89.923,84.958,92.250C83.822,93.384,83.801,93.698,84.153,97.536C84.360,99.771,84.597,101.861,84.680,102.180C84.809,103.069,88.378,101.982,91.054,100.218C94.143,98.204,97.655,94.807,101.112,90.672L103.781,87.439L103.176,85.245C102.704,83.562,102.735,82.766,103.393,81.627C103.863,80.813,104.587,79.929,105.022,79.638C105.434,79.388,106.091,78.899,106.446,78.561C106.889,78.166,107.487,78.240,108.370,78.750C109.854,79.607,110.795,81.126,109.781,81.029C109.310,80.920,109.232,81.146,109.432,81.913C109.791,83.422,108.225,85.393,107.008,84.907C106.255,84.636,106.132,84.293,106.461,83.724C106.719,83.276,106.697,82.666,106.470,82.318C106.220,82.011,106.150,81.483,106.362,81.116C106.550,80.791,106.995,80.668,107.316,80.854C107.637,81.039,108.035,80.997,108.152,80.794C108.552,80.102,107.368,79.744,106.112,80.159C104.920,80.556,104.897,80.596,105.330,81.606C105.723,82.593,105.676,82.674,104.729,82.832C104.164,82.886,103.631,83.066,103.561,83.189C103.255,83.717,106.095,86.117,107.229,86.283C108.156,86.438,108.504,86.205,109.286,84.758C109.787,83.799,110.133,82.643,110.040,82.155C109.795,80.820,110.624,81.516,110.909,82.874C111.228,84.360,110.046,86.499,108.328,87.623C107.092,88.374,107.038,88.560,107.030,93.112C107.071,104.529,108.024,110.938,110.353,114.778C111.781,117.122,111.901,117.191,113.553,115.812C114.367,115.143,114.505,114.626,114.337,113.064C114.081,110.637,114.973,109.091,117.190,108.309C119.922,107.282,122.077,109.015,121.918,112.070C121.797,114.224,121.177,115.114,119.215,115.826C117.721,116.374,117.517,116.636,117.220,117.983C116.872,119.790,117.089,119.970,119.743,119.820C123.792,119.662,130.318,116.974,138.631,112.117C141.833,110.276,144.674,108.227,143.696,108.531C143.020,108.683,143.296,106.075,144.094,104.692C144.729,103.593,145.713,103.185,148.682,102.675C150.513,102.375,152.938,104.752,151.929,105.851C151.731,106.009,151.556,106.775,151.524,107.571C151.384,109.389,150.074,110.639,147.720,111.288L145.836,111.773L144.215,116.154C142.299,121.233,140.961,127.350,141.089,130.462C141.169,132.733,141.906,136.088,142.347,136.342C142.468,136.412,144.476,135.619,146.794,134.570C150.785,132.751,151.047,132.576,151.793,130.728C152.848,127.974,153.829,127.293,156.232,127.486C159.209,127.795,160.519,128.768,160.001,130.314C159.893,130.685,159.631,131.511,159.456,132.277C158.941,134.096,157.152,135.342,154.990,135.287C153.555,135.272,153.039,135.517,152.475,136.493C152.076,137.185,151.208,138.040,150.501,138.338C148.757,139.229,154.578,137.762,158.016,136.438C159.597,135.831,160.223,135.487,159.507,135.616C157.104,136.073,158.443,135.328,164.722,132.605C170.849,129.958,170.913,129.941,172.038,127.715C173.374,125.123,174.536,124.221,176.031,124.595C176.647,124.734,177.844,124.883,178.778,124.933C181.020,125.034,181.285,126.056,179.932,129.234C178.608,132.268,177.801,132.832,174.682,132.768C172.521,132.714,172.283,132.848,168.801,136.100C165.453,139.212,160.787,144.330,159.941,145.795C159.730,146.161,162.730,144.855,166.521,142.921C173.366,139.495,173.500,139.355,174.601,137.170C176.062,134.270,177.354,133.606,180.495,134.280C183.452,134.902,183.866,135.575,182.838,137.911C182.253,139.201,182.388,139.061,183.414,137.375C184.834,135.102,184.867,135.230,182.002,133.522L180.261,132.462L181.041,130.092C181.986,127.436,181.856,124.975,180.747,124.117C179.363,122.993,172.845,123.352,173.144,124.502C173.234,124.716,173.043,124.769,172.802,124.630C172.482,124.445,171.828,125.207,170.959,126.712C169.502,129.235,168.346,130.032,163.311,131.899C161.325,132.652,160.245,132.299,160.926,131.119C161.091,130.834,161.042,129.993,160.803,129.203C160.257,127.369,158.291,126.234,155.852,126.291C153.222,126.400,151.497,127.628,150.338,130.377C149.380,132.591,149.317,132.608,146.186,133.676C143.207,134.669,142.999,134.657,142.733,133.636C141.736,129.805,142.192,125.402,144.200,119.238C146.016,113.776,146.432,113.148,148.870,112.169C150.410,111.539,151.201,110.910,151.929,109.649C152.469,108.713,152.849,107.685,152.789,107.325C152.706,107.006,152.818,106.256,153.067,105.640C153.510,104.594,153.373,104.461,150.756,102.787L147.979,101.021L145.892,102.041C143.957,102.985,143.776,103.206,142.348,106.234C140.696,109.837,141.574,109.150,131.922,114.102C127.552,116.299,121.465,118.319,120.583,117.809C120.382,117.693,120.845,116.984,121.626,116.187C122.810,114.972,123.004,114.542,123.078,112.468C123.200,109.663,122.096,107.778,119.872,107.091C118.992,106.854,118.193,106.664,118.066,106.699C118.002,106.717,117.011,107.229,115.916,107.736C113.742,108.814,112.776,110.210,112.750,112.202C112.736,113.984,112.532,114.246,111.770,113.806C110.446,113.042,108.887,107.313,108.644,102.453C108.598,101.884,108.527,100.432,108.459,99.254C108.390,98.075,108.345,95.282,108.329,92.994C108.342,88.987,108.373,88.842,109.696,88.033C111.414,86.909,112.409,84.445,112.169,82.082C111.991,80.352,111.854,80.219,109.126,78.644L106.278,77.000L104.492,78.518ZZM173.240,136.655C172.653,137.673,171.625,138.435,169.823,139.239C168.386,139.875,167.067,140.307,166.907,140.214C166.706,140.098,167.320,139.313,168.275,138.400C169.207,137.528,170.320,136.434,170.769,135.934C171.818,134.858,173.566,134.239,173.842,134.779C173.973,135.017,173.710,135.842,173.240,136.655ZZM69.822,79.931C68.902,83.469,68.792,83.567,68.552,81.204C68.228,78.522,68.539,76.965,69.524,75.907C70.305,75.110,70.345,75.133,70.404,76.143C70.450,76.712,70.213,78.420,69.822,79.931ZZ" filter="url(#filter-render-3)" style="fill: rgb(0, 0, 0); fill-opacity: 1;"/></g><g id="strokes-b6df1f5e-b37b-80a2-8006-266a73271474-869a88b6-e825-8004-8006-26614055f656" class="strokes"><g class="outer-stroke-shape"><defs><mask id="outer-stroke-render-3-869a88b6-e825-8004-8006-26614055f656-0" x="51.023858989209444" y="53.666941060146215" width="141.7140385531138" height="103.14574751742472" maskUnits="userSpaceOnUse"><use href="#stroke-shape-render-3-869a88b6-e825-8004-8006-26614055f656-0" style="fill: none; stroke: white; stroke-width: 2;"/><use href="#stroke-shape-render-3-869a88b6-e825-8004-8006-26614055f656-0" style="fill: black; stroke: none;"/></mask><path d="M104.492,78.518C101.711,80.927,101.143,82.281,101.714,84.998C102.225,87.354,102.195,87.500,100.592,89.721C96.906,94.808,91.146,99.783,87.775,100.712L86.081,101.144L85.635,99.693C84.816,96.942,85.008,94.666,86.165,93.218C88.361,90.525,87.929,86.641,85.056,84.114C83.736,82.973,82.110,83.010,80.217,84.251C79.480,84.693,78.774,84.990,78.573,84.875C78.373,84.759,77.968,82.681,77.648,80.271C77.183,76.260,77.224,75.632,78.311,73.656C79.765,70.861,79.759,68.741,78.267,66.415C76.492,63.654,76.194,63.428,74.441,63.501C73.045,63.509,72.499,63.899,70.790,65.841L68.788,68.104L66.742,66.923L64.697,65.741L63.559,67.526C62.556,69.171,62.533,69.212,63.525,68.049C64.360,67.066,64.892,66.885,65.661,67.221C66.230,67.440,66.761,67.910,66.861,68.293C66.960,68.676,67.364,69.180,67.765,69.412C68.207,69.667,68.710,70.554,68.943,71.448C69.309,72.853,69.171,73.370,67.916,75.358C66.520,77.590,66.506,77.799,66.872,83.002C67.135,85.974,67.209,89.273,67.141,90.318C67.049,91.404,67.090,92.350,67.211,92.420C67.612,92.651,69.797,86.643,70.922,82.193C72.485,76.152,72.584,74.961,71.376,73.070C69.714,70.483,69.810,69.019,71.786,66.525C73.942,63.809,74.882,63.755,76.621,66.116C78.781,69.045,78.846,69.950,77.169,72.671L75.679,75.066L76.606,82.817C77.652,91.287,78.470,96.262,78.828,96.198C78.956,96.163,79.298,95.384,79.608,94.478C80.041,93.263,80.009,92.485,79.385,91.528C78.177,89.637,78.562,87.581,80.526,85.568C82.088,83.974,82.152,83.957,83.733,84.924C86.798,86.748,87.318,89.923,84.958,92.250C83.822,93.384,83.801,93.698,84.153,97.536C84.360,99.771,84.597,101.861,84.680,102.180C84.809,103.069,88.378,101.982,91.054,100.218C94.143,98.204,97.655,94.807,101.112,90.672L103.781,87.439L103.176,85.245C102.704,83.562,102.735,82.766,103.393,81.627C103.863,80.813,104.587,79.929,105.022,79.638C105.434,79.388,106.091,78.899,106.446,78.561C106.889,78.166,107.487,78.240,108.370,78.750C109.854,79.607,110.795,81.126,109.781,81.029C109.310,80.920,109.232,81.146,109.432,81.913C109.791,83.422,108.225,85.393,107.008,84.907C106.255,84.636,106.132,84.293,106.461,83.724C106.719,83.276,106.697,82.666,106.470,82.318C106.220,82.011,106.150,81.483,106.362,81.116C106.550,80.791,106.995,80.668,107.316,80.854C107.637,81.039,108.035,80.997,108.152,80.794C108.552,80.102,107.368,79.744,106.112,80.159C104.920,80.556,104.897,80.596,105.330,81.606C105.723,82.593,105.676,82.674,104.729,82.832C104.164,82.886,103.631,83.066,103.561,83.189C103.255,83.717,106.095,86.117,107.229,86.283C108.156,86.438,108.504,86.205,109.286,84.758C109.787,83.799,110.133,82.643,110.040,82.155C109.795,80.820,110.624,81.516,110.909,82.874C111.228,84.360,110.046,86.499,108.328,87.623C107.092,88.374,107.038,88.560,107.030,93.112C107.071,104.529,108.024,110.938,110.353,114.778C111.781,117.122,111.901,117.191,113.553,115.812C114.367,115.143,114.505,114.626,114.337,113.064C114.081,110.637,114.973,109.091,117.190,108.309C119.922,107.282,122.077,109.015,121.918,112.070C121.797,114.224,121.177,115.114,119.215,115.826C117.721,116.374,117.517,116.636,117.220,117.983C116.872,119.790,117.089,119.970,119.743,119.820C123.792,119.662,130.318,116.974,138.631,112.117C141.833,110.276,144.674,108.227,143.696,108.531C143.020,108.683,143.296,106.075,144.094,104.692C144.729,103.593,145.713,103.185,148.682,102.675C150.513,102.375,152.938,104.752,151.929,105.851C151.731,106.009,151.556,106.775,151.524,107.571C151.384,109.389,150.074,110.639,147.720,111.288L145.836,111.773L144.215,116.154C142.299,121.233,140.961,127.350,141.089,130.462C141.169,132.733,141.906,136.088,142.347,136.342C142.468,136.412,144.476,135.619,146.794,134.570C150.785,132.751,151.047,132.576,151.793,130.728C152.848,127.974,153.829,127.293,156.232,127.486C159.209,127.795,160.519,128.768,160.001,130.314C159.893,130.685,159.631,131.511,159.456,132.277C158.941,134.096,157.152,135.342,154.990,135.287C153.555,135.272,153.039,135.517,152.475,136.493C152.076,137.185,151.208,138.040,150.501,138.338C148.757,139.229,154.578,137.762,158.016,136.438C159.597,135.831,160.223,135.487,159.507,135.616C157.104,136.073,158.443,135.328,164.722,132.605C170.849,129.958,170.913,129.941,172.038,127.715C173.374,125.123,174.536,124.221,176.031,124.595C176.647,124.734,177.844,124.883,178.778,124.933C181.020,125.034,181.285,126.056,179.932,129.234C178.608,132.268,177.801,132.832,174.682,132.768C172.521,132.714,172.283,132.848,168.801,136.100C165.453,139.212,160.787,144.330,159.941,145.795C159.730,146.161,162.730,144.855,166.521,142.921C173.366,139.495,173.500,139.355,174.601,137.170C176.062,134.270,177.354,133.606,180.495,134.280C183.452,134.902,183.866,135.575,182.838,137.911C182.253,139.201,182.388,139.061,183.414,137.375C184.834,135.102,184.867,135.230,182.002,133.522L180.261,132.462L181.041,130.092C181.986,127.436,181.856,124.975,180.747,124.117C179.363,122.993,172.845,123.352,173.144,124.502C173.234,124.716,173.043,124.769,172.802,124.630C172.482,124.445,171.828,125.207,170.959,126.712C169.502,129.235,168.346,130.032,163.311,131.899C161.325,132.652,160.245,132.299,160.926,131.119C161.091,130.834,161.042,129.993,160.803,129.203C160.257,127.369,158.291,126.234,155.852,126.291C153.222,126.400,151.497,127.628,150.338,130.377C149.380,132.591,149.317,132.608,146.186,133.676C143.207,134.669,142.999,134.657,142.733,133.636C141.736,129.805,142.192,125.402,144.200,119.238C146.016,113.776,146.432,113.148,148.870,112.169C150.410,111.539,151.201,110.910,151.929,109.649C152.469,108.713,152.849,107.685,152.789,107.325C152.706,107.006,152.818,106.256,153.067,105.640C153.510,104.594,153.373,104.461,150.756,102.787L147.979,101.021L145.892,102.041C143.957,102.985,143.776,103.206,142.348,106.234C140.696,109.837,141.574,109.150,131.922,114.102C127.552,116.299,121.465,118.319,120.583,117.809C120.382,117.693,120.845,116.984,121.626,116.187C122.810,114.972,123.004,114.542,123.078,112.468C123.200,109.663,122.096,107.778,119.872,107.091C118.992,106.854,118.193,106.664,118.066,106.699C118.002,106.717,117.011,107.229,115.916,107.736C113.742,108.814,112.776,110.210,112.750,112.202C112.736,113.984,112.532,114.246,111.770,113.806C110.446,113.042,108.887,107.313,108.644,102.453C108.598,101.884,108.527,100.432,108.459,99.254C108.390,98.075,108.345,95.282,108.329,92.994C108.342,88.987,108.373,88.842,109.696,88.033C111.414,86.909,112.409,84.445,112.169,82.082C111.991,80.352,111.854,80.219,109.126,78.644L106.278,77.000L104.492,78.518ZZM173.240,136.655C172.653,137.673,171.625,138.435,169.823,139.239C168.386,139.875,167.067,140.307,166.907,140.214C166.706,140.098,167.320,139.313,168.275,138.400C169.207,137.528,170.320,136.434,170.769,135.934C171.818,134.858,173.566,134.239,173.842,134.779C173.973,135.017,173.710,135.842,173.240,136.655ZZM69.822,79.931C68.902,83.469,68.792,83.567,68.552,81.204C68.228,78.522,68.539,76.965,69.524,75.907C70.305,75.110,70.345,75.133,70.404,76.143C70.450,76.712,70.213,78.420,69.822,79.931ZZ" id="stroke-shape-render-3-869a88b6-e825-8004-8006-26614055f656-0"/></defs><use href="#stroke-shape-render-3-869a88b6-e825-8004-8006-26614055f656-0" mask="url(#outer-stroke-render-3-869a88b6-e825-8004-8006-26614055f656-0)" style="fill: none; stroke-width: 2; stroke: rgb(0, 0, 0); stroke-opacity: 1;"/><use href="#stroke-shape-render-3-869a88b6-e825-8004-8006-26614055f656-0" style="fill: none; stroke-width: 1; stroke: none; stroke-opacity: 1;"/></g></g></g><g id="shape-869a88b6-e825-8004-8006-26614057defb"><defs><filter id="filter-render-4" x="-0.5283016653561368" y="-0.49957188557816273" width="2.2679239968547282" height="2.1989725253875907" filterUnits="objectBoundingBox" color-interpolation-filters="sRGB"><feFlood flood-opacity="0" result="BackgroundImageFix"/><feColorMatrix in="SourceAlpha" type="matrix" values="0 0 0 0 0 0 0 0 0 0 0 0 0 0 0 0 0 0 127 0"/><feOffset dx="4" dy="4"/><feGaussianBlur stdDeviation="2"/><feColorMatrix type="matrix" values="0 0 0 0 0 0 0 0 0 0 0 0 0 0 0 0 0 0 1 0"/><feBlend mode="normal" in2="BackgroundImageFix" result="filter_869a88b6-e825-8004-8006-26678645cf38"/><feBlend mode="normal" in="SourceGraphic" in2="filter_869a88b6-e825-8004-8006-26678645cf38" result="shape"/></filter><filter id="filter-shadow-render-4" x="-0.5283016653561368" y="-0.49957188557816273" width="2.2679239968547282" height="2.1989725253875907" filterUnits="objectBoundingBox" color-interpolation-filters="sRGB"><feFlood flood-opacity="0" result="BackgroundImageFix"/><feColorMatrix in="SourceAlpha" type="matrix" values="0 0 0 0 0 0 0 0 0 0 0 0 0 0 0 0 0 0 127 0"/><feOffset dx="4" dy="4"/><feGaussianBlur stdDeviation="2"/><feColorMatrix type="matrix" values="0 0 0 0 0 0 0 0 0 0 0 0 0 0 0 0 0 0 1 0"/><feBlend mode="normal" in2="BackgroundImageFix" result="filter_869a88b6-e825-8004-8006-26678645cf38"/><feBlend mode="normal" in="SourceGraphic" in2="filter_869a88b6-e825-8004-8006-26678645cf38" result="shape"/></filter></defs><g class="fills" id="fills-869a88b6-e825-8004-8006-26614057defb"><path d="M60.442,72.833C59.935,73.897,60.077,74.576,61.205,76.421C62.406,78.416,62.569,79.432,62.626,84.890C62.694,88.293,62.429,92.643,62.074,94.554C61.720,96.465,61.343,99.340,61.240,100.908C60.942,105.130,60.173,107.019,58.348,107.864C56.308,108.802,55.261,110.802,55.313,113.490C55.361,116.556,53.694,119.445,51.155,120.692C47.110,122.697,46.614,127.076,49.983,131.245C53.465,135.589,59.581,140.096,70.298,146.175L80.229,151.854L73.999,147.824C59.179,138.291,50.061,130.368,49.415,126.578C49.008,124.226,49.712,123.006,52.080,122.148C53.723,121.524,54.126,121.105,55.606,118.542C57.086,115.978,57.247,115.421,56.966,113.685C56.525,111.206,57.230,109.985,59.470,109.163L61.241,108.504L62.290,105.203C62.869,103.368,63.190,101.329,63.071,100.609C62.928,99.930,63.114,97.107,63.483,94.337C64.155,89.191,64.479,83.627,64.308,79.568C64.268,77.972,63.955,77.031,63.126,76.336C62.538,75.779,61.791,74.480,61.548,73.418L61.050,71.502L60.442,72.833ZZ" filter="url(#filter-render-4)" style="fill: rgb(0, 0, 0); fill-opacity: 1;"/></g><g id="strokes-b6df1f5e-b37b-80a2-8006-266a732955df-869a88b6-e825-8004-8006-26614057defb" class="strokes"><g class="outer-stroke-shape"><defs><mask id="outer-stroke-render-4-869a88b6-e825-8004-8006-26614057defb-0" x="28.609797369793807" y="69.08812646840671" width="84.03202775899419" height="85.22734947835394" maskUnits="userSpaceOnUse"><use href="#stroke-shape-render-4-869a88b6-e825-8004-8006-26614057defb-0" style="fill: none; stroke: white; stroke-width: 2;"/><use href="#stroke-shape-render-4-869a88b6-e825-8004-8006-26614057defb-0" style="fill: black; stroke: none;"/></mask><path d="M60.442,72.833C59.935,73.897,60.077,74.576,61.205,76.421C62.406,78.416,62.569,79.432,62.626,84.890C62.694,88.293,62.429,92.643,62.074,94.554C61.720,96.465,61.343,99.340,61.240,100.908C60.942,105.130,60.173,107.019,58.348,107.864C56.308,108.802,55.261,110.802,55.313,113.490C55.361,116.556,53.694,119.445,51.155,120.692C47.110,122.697,46.614,127.076,49.983,131.245C53.465,135.589,59.581,140.096,70.298,146.175L80.229,151.854L73.999,147.824C59.179,138.291,50.061,130.368,49.415,126.578C49.008,124.226,49.712,123.006,52.080,122.148C53.723,121.524,54.126,121.105,55.606,118.542C57.086,115.978,57.247,115.421,56.966,113.685C56.525,111.206,57.230,109.985,59.470,109.163L61.241,108.504L62.290,105.203C62.869,103.368,63.190,101.329,63.071,100.609C62.928,99.930,63.114,97.107,63.483,94.337C64.155,89.191,64.479,83.627,64.308,79.568C64.268,77.972,63.955,77.031,63.126,76.336C62.538,75.779,61.791,74.480,61.548,73.418L61.050,71.502L60.442,72.833ZZ" id="stroke-shape-render-4-869a88b6-e825-8004-8006-26614057defb-0"/></defs><use href="#stroke-shape-render-4-869a88b6-e825-8004-8006-26614057defb-0" mask="url(#outer-stroke-render-4-869a88b6-e825-8004-8006-26614057defb-0)" style="fill: none; stroke-width: 2; stroke: rgb(0, 0, 0); stroke-opacity: 1;"/><use href="#stroke-shape-render-4-869a88b6-e825-8004-8006-26614057defb-0" style="fill: none; stroke-width: 1; stroke: none; stroke-opacity: 1;"/></g></g></g><g id="shape-869a88b6-e825-8004-8006-266140580b1d"><defs><filter id="filter-render-5" x="-0.5559638126408799" y="-0.49987641821888606" width="2.3343131503381116" height="2.1997034037253265" filterUnits="objectBoundingBox" color-interpolation-filters="sRGB"><feFlood flood-opacity="0" result="BackgroundImageFix"/><feColorMatrix in="SourceAlpha" type="matrix" values="0 0 0 0 0 0 0 0 0 0 0 0 0 0 0 0 0 0 127 0"/><feOffset dx="4" dy="4"/><feGaussianBlur stdDeviation="2"/><feColorMatrix type="matrix" values="0 0 0 0 0 0 0 0 0 0 0 0 0 0 0 0 0 0 1 0"/><feBlend mode="normal" in2="BackgroundImageFix" result="filter_869a88b6-e825-8004-8006-26678645cf38"/><feBlend mode="normal" in="SourceGraphic" in2="filter_869a88b6-e825-8004-8006-26678645cf38" result="shape"/></filter><filter id="filter-shadow-render-5" x="-0.5559638126408799" y="-0.49987641821888606" width="2.3343131503381116" height="2.1997034037253265" filterUnits="objectBoundingBox" color-interpolation-filters="sRGB"><feFlood flood-opacity="0" result="BackgroundImageFix"/><feColorMatrix in="SourceAlpha" type="matrix" values="0 0 0 0 0 0 0 0 0 0 0 0 0 0 0 0 0 0 127 0"/><feOffset dx="4" dy="4"/><feGaussianBlur stdDeviation="2"/><feColorMatrix type="matrix" values="0 0 0 0 0 0 0 0 0 0 0 0 0 0 0 0 0 0 1 0"/><feBlend mode="normal" in2="BackgroundImageFix" result="filter_869a88b6-e825-8004-8006-26678645cf38"/><feBlend mode="normal" in="SourceGraphic" in2="filter_869a88b6-e825-8004-8006-26678645cf38" result="shape"/></filter></defs><g class="fills" id="fills-869a88b6-e825-8004-8006-266140580b1d"><path d="M180.309,141.550C179.739,141.981,178.401,142.076,176.835,141.823C174.463,141.485,173.955,141.625,170.515,143.599C168.398,144.764,164.281,147.541,161.330,149.689C158.355,151.878,155.504,153.758,154.972,153.939C154.439,154.120,152.962,155.383,151.621,156.778L149.248,159.314L149.673,161.079C150.208,163.395,149.144,165.330,146.981,165.926C145.582,166.312,145.203,166.690,143.559,169.538C141.914,172.387,141.760,172.840,142.189,174.227C142.685,175.869,141.939,177.717,140.418,178.684C137.574,180.460,126.117,176.775,110.702,169.014L104.698,165.981L113.796,171.343C121.354,175.761,123.791,177.005,128.001,178.514C135.709,181.282,138.670,181.526,141.560,179.669C143.065,178.639,143.403,178.237,143.754,176.704C143.983,175.751,144.018,174.578,143.862,174.108C143.352,172.675,146.231,168.152,148.207,167.231C150.373,166.257,151.555,164.119,151.338,161.715C151.178,159.398,152.231,157.945,156.104,155.406C157.561,154.457,159.752,152.793,161.008,151.728C162.225,150.640,165.876,148.299,169.031,146.540C174.349,143.535,174.969,143.296,177.331,143.466C179.629,143.653,179.971,143.525,180.652,142.345C181.568,140.758,181.511,140.671,180.309,141.550ZZ" filter="url(#filter-render-5)" style="fill: rgb(0, 0, 0); fill-opacity: 1;"/></g><g id="strokes-b6df1f5e-b37b-80a2-8006-266a732a7d1c-869a88b6-e825-8004-8006-266140580b1d" class="strokes"><g class="outer-stroke-shape"><defs><mask id="outer-stroke-render-5-869a88b6-e825-8004-8006-266140580b1d-0" x="102.23228665335661" y="111.68122425964022" width="81.56687477506827" height="83.78297079791898" maskUnits="userSpaceOnUse"><use href="#stroke-shape-render-5-869a88b6-e825-8004-8006-266140580b1d-0" style="fill: none; stroke: white; stroke-width: 2;"/><use href="#stroke-shape-render-5-869a88b6-e825-8004-8006-266140580b1d-0" style="fill: black; stroke: none;"/></mask><path d="M180.309,141.550C179.739,141.981,178.401,142.076,176.835,141.823C174.463,141.485,173.955,141.625,170.515,143.599C168.398,144.764,164.281,147.541,161.330,149.689C158.355,151.878,155.504,153.758,154.972,153.939C154.439,154.120,152.962,155.383,151.621,156.778L149.248,159.314L149.673,161.079C150.208,163.395,149.144,165.330,146.981,165.926C145.582,166.312,145.203,166.690,143.559,169.538C141.914,172.387,141.760,172.840,142.189,174.227C142.685,175.869,141.939,177.717,140.418,178.684C137.574,180.460,126.117,176.775,110.702,169.014L104.698,165.981L113.796,171.343C121.354,175.761,123.791,177.005,128.001,178.514C135.709,181.282,138.670,181.526,141.560,179.669C143.065,178.639,143.403,178.237,143.754,176.704C143.983,175.751,144.018,174.578,143.862,174.108C143.352,172.675,146.231,168.152,148.207,167.231C150.373,166.257,151.555,164.119,151.338,161.715C151.178,159.398,152.231,157.945,156.104,155.406C157.561,154.457,159.752,152.793,161.008,151.728C162.225,150.640,165.876,148.299,169.031,146.540C174.349,143.535,174.969,143.296,177.331,143.466C179.629,143.653,179.971,143.525,180.652,142.345C181.568,140.758,181.511,140.671,180.309,141.550ZZ" id="stroke-shape-render-5-869a88b6-e825-8004-8006-266140580b1d-0"/></defs><use href="#stroke-shape-render-5-869a88b6-e825-8004-8006-266140580b1d-0" mask="url(#outer-stroke-render-5-869a88b6-e825-8004-8006-266140580b1d-0)" style="fill: none; stroke-width: 2; stroke: rgb(0, 0, 0); stroke-opacity: 1;"/><use href="#stroke-shape-render-5-869a88b6-e825-8004-8006-266140580b1d-0" style="fill: none; stroke-width: 1; stroke: none; stroke-opacity: 1;"/></g></g></g></g></g></g></g><g id="strokes-b6df1f5e-b37b-80a2-8006-266a732a9c91-869a88b6-e825-8004-8006-26614a566077" class="strokes"><g class="outer-stroke-shape"><defs><mask id="outer-stroke-render-1-869a88b6-e825-8004-8006-26614a566077-0" x="-5.656854249492381" y="-5.656854249492381" width="233.31370849898477" height="269.31370849898474" maskUnits="userSpaceOnUse"><use href="#stroke-shape-render-1-869a88b6-e825-8004-8006-26614a566077-0" style="fill: none; stroke: white; stroke-width: 8;"/><use href="#stroke-shape-render-1-869a88b6-e825-8004-8006-26614a566077-0" style="fill: black; stroke: none;"/></mask><rect width="222" height="258" class="frame-background" x="0" id="stroke-shape-render-1-869a88b6-e825-8004-8006-26614a566077-0" transform="matrix(1.000000, 0.000000, 0.000000, 1.000000, 0.000000, 0.000000)" ry="0" rx="0" y="0"/></defs><use href="#stroke-shape-render-1-869a88b6-e825-8004-8006-26614a566077-0" mask="url(#outer-stroke-render-1-869a88b6-e825-8004-8006-26614a566077-0)" style="fill: none; stroke-width: 8; stroke: rgb(0, 0, 0); stroke-opacity: 1;"/><use href="#stroke-shape-render-1-869a88b6-e825-8004-8006-26614a566077-0" style="fill: none; stroke-width: 4; stroke: none; stroke-opacity: 1;"/></g></g></g></g></g></svg>