<svg height="25px" width="25px" xmlns="http://www.w3.org/2000/svg" xml:space="preserve" fill-rule="evenodd" stroke-linejoin="round"
     stroke-miterlimit="2" clip-rule="evenodd" viewBox="0 0 32 32" fill="#fff"><path d="m24.787 19.13 2.122-2.121c3.317-3.317 3.317-8.704 0-12.021s-8.704-3.317-12.021 0L12.766 7.11a1.501 1.501 0 0 0 2.122 2.121l2.121-2.121a5.5 5.5 0 0 1 7.778 0 5.5 5.5 0 0 1 0 7.778l-2.121 2.121a1.5 1.5 0 1 0 2.121 2.121M7.11 12.766l-2.122 2.122c-3.317 3.317-3.317 8.703 0 12.021 3.317 3.317 8.704 3.317 12.021 0l2.121-2.122a1.5 1.5 0 1 0-2.121-2.121l-2.121 2.121a5.5 5.5 0 0 1-7.778 0 5.5 5.5 0 0 1 0-7.778l2.121-2.121a1.501 1.501 0 0 0-2.121-2.122"/>
    <path d="m11.352 22.666 11.314-11.314a1.5 1.5 0 1 0-2.121-2.121L9.231 20.545a1.5 1.5 0 1 0 2.121 2.121"/>
    <g/></svg>