<svg xmlns="http://www.w3.org/2000/svg" fill="none" viewBox="0 0 20 16"><g class="prefix__feather prefix__feather-mail"><path d="M2 0h16c1.1 0 2 .9 2 2v12c0 1.1-.9 2-2 2H2c-1.1 0-2-.9-2-2V2C0 .9.9 0 2 0" class="prefix__fills"/><g stroke-linejoin="round" class="prefix__strokes"><g class="prefix__inner-stroke-shape"><defs><clipPath id="b"><use href="#a"/></clipPath><path id="a" fill="none" stroke="#95c5de" stroke-opacity="1" stroke-width="4" d="M2 0h16c1.1 0 2 .9 2 2v12c0 1.1-.9 2-2 2H2c-1.1 0-2-.9-2-2V2C0 .9.9 0 2 0Z"/></defs><use clip-path="url(#b)" href="#a"/></g></g><path d="M20 2 10 9 0 2" class="prefix__fills"/><g stroke-linejoin="round" class="prefix__strokes"><path stroke="#95c5de" stroke-width="2" d="M20 2 10 9 0 2" class="prefix__stroke-shape"/></g></g></svg>