<svg xmlns="http://www.w3.org/2000/svg" fill="none" viewBox="0 0 25 25" height="25px" width="25px">

        <path fill="none"
              d="M25 0v25H0V0zM13.118 24.227l-.106.043-.015-.004-.074-.037q-.017-.005-.025.005l-.004.012-.018.445.005.021.012.013.107.077.016.004.012-.004.108-.077.013-.017.004-.017zc.015.008.008.001 0 0m.276-.117-.207.098-.01.011-.003.011.019.448.005.013.009.007.209.097q.02.005.03-.008l.004-.015zc.018.009.01.001 0 0m-.745.002c-.01-.005-.022-.002 0 0l-.07.66a.02.02 0 0 0 .018.024l.016-.001.209-.097.01-.008.004-.012.019-.448-.004-.013-.01-.009z"
              class="prefix__fills"/>
        <path fill="#fff"
              d="M11.432 3.127a1.04 1.04 0 0 1-.785 1.246 8.333 8.333 0 1 0 8.798 3.52 1.042 1.042 0 0 1 1.735-1.154 10.4 10.4 0 0 1 1.737 5.761c0 5.753-4.664 10.417-10.417 10.417S2.083 18.253 2.083 12.5c0-4.959 3.464-9.106 8.103-10.159a1.04 1.04 0 0 1 1.246.786m2.11.012c0-.676.623-1.165 1.264-1.03l.121.032 3.111 1.037a1.043 1.043 0 0 1-.542 2.009l-.117-.032-1.754-.585v7.93a3.125 3.125 0 1 1-2.282-3.01l.199.063z"
              class="prefix__fills"/>

</svg>