<svg width="222" xmlns="http://www.w3.org/2000/svg" height="258" id="screenshot-c6483b3d-a634-8074-8006-266b560b3852" viewBox="0 0 222 258" xmlns:xlink="http://www.w3.org/1999/xlink" fill="none" version="1.1"><g id="shape-c6483b3d-a634-8074-8006-266b560b3852"><defs><clipPath id="frame-clip-c6483b3d-a634-8074-8006-266b560b3852-render-1" class="frame-clip frame-clip-def"><rect rx="0" ry="0" x="0" y="0" width="222" height="258" transform="matrix(1.000000, 0.000000, 0.000000, 1.000000, 0.000000, 0.000000)"/></clipPath></defs><g class="frame-container-wrapper"><g class="frame-container-blur"><g class="frame-container-shadows"><g clip-path="url(#frame-clip-c6483b3d-a634-8074-8006-266b560b3852-render-1)" fill="none"><g class="fills" id="fills-c6483b3d-a634-8074-8006-266b560b3852"><rect width="222" height="258" class="frame-background" x="0" transform="matrix(1.000000, 0.000000, 0.000000, 1.000000, 0.000000, 0.000000)" style="fill: rgb(34, 228, 92); fill-opacity: 1;" ry="0" rx="0" y="0"/></g><g class="frame-children"><g id="shape-c6483b3d-a634-8074-8006-26720139063c"><g class="frame-container-wrapper"><g class="frame-container-blur"><g class="frame-container-shadows"><g fill="none"><g class="fills" id="fills-c6483b3d-a634-8074-8006-26720139063c"><rect width="262" height="65" class="frame-background" x="-30" transform="matrix(1.000000, 0.000000, 0.000000, 1.000000, 0.000000, 0.000000)" style="fill: rgb(0, 0, 0); fill-opacity: 1;" ry="0" rx="0" y="71"/></g><g class="frame-children"><g id="shape-c6483b3d-a634-8074-8006-2671d450903f" rx="0" ry="0" style="fill: rgb(0, 0, 0);"><g id="shape-c6483b3d-a634-8074-8006-2671d45162f1"><g class="fills" id="fills-c6483b3d-a634-8074-8006-2671d45162f1"><path d="M38.500,126.268C38.354,126.534,38.188,126.789,38.005,127.030C37.069,128.291,35.589,129.023,34.026,128.999C32.196,128.999,30.569,128.111,29.620,126.268L22.028,111.726L14.368,126.268C13.419,128.111,11.724,128.999,9.962,128.999C8.768,129.027,7.607,128.606,6.705,127.819C6.213,127.377,5.802,126.852,5.488,126.268L-20.000,78.683L-9.696,78.683L10.233,116.846L17.690,103.329L4.878,78.683L15.249,78.683L34.297,116.846L54.362,78.683L63.988,78.683L38.500,126.268ZZ" font-size="12" style="fill: rgb(34, 228, 92); fill-opacity: 1;"/></g><g font-size="12" id="strokes-fc78a4f0-0959-80dc-8006-2672b2815a76-c6483b3d-a634-8074-8006-2671d45162f1" class="strokes"><g class="inner-stroke-shape"><defs><clipPath id="inner-stroke-render-4-c6483b3d-a634-8074-8006-2671d45162f1-0"><use href="#stroke-shape-render-4-c6483b3d-a634-8074-8006-2671d45162f1-0"/></clipPath><path d="M38.500,126.268C38.354,126.534,38.188,126.789,38.005,127.030C37.069,128.291,35.589,129.023,34.026,128.999C32.196,128.999,30.569,128.111,29.620,126.268L22.028,111.726L14.368,126.268C13.419,128.111,11.724,128.999,9.962,128.999C8.768,129.027,7.607,128.606,6.705,127.819C6.213,127.377,5.802,126.852,5.488,126.268L-20.000,78.683L-9.696,78.683L10.233,116.846L17.690,103.329L4.878,78.683L15.249,78.683L34.297,116.846L54.362,78.683L63.988,78.683L38.500,126.268ZZ" id="stroke-shape-render-4-c6483b3d-a634-8074-8006-2671d45162f1-0" style="fill: none; stroke-width: 1.89; stroke: rgb(34, 228, 92); stroke-opacity: 1;"/></defs><use href="#stroke-shape-render-4-c6483b3d-a634-8074-8006-2671d45162f1-0" clip-path="url('#inner-stroke-render-4-c6483b3d-a634-8074-8006-2671d45162f1-0')"/></g></g></g><g id="shape-c6483b3d-a634-8074-8006-2671d4518010"><g class="fills" id="fills-c6483b3d-a634-8074-8006-2671d4518010"><path d="M115.710,128.316L105.338,128.316L97.950,115.822L74.631,115.822L78.698,108.790L93.815,108.790L82.833,90.221L60.463,128.316L50.634,128.316L78.969,80.799C79.121,80.544,79.285,80.296,79.460,80.056C80.397,78.782,81.566,78.000,83.172,78.000C83.211,78.000,83.249,78.001,83.288,78.002C85.120,78.045,86.311,79.128,87.307,80.799L115.710,128.316ZZ" font-size="12" style="fill: rgb(34, 228, 92); fill-opacity: 1;"/></g><g font-size="12" id="strokes-fc78a4f0-0959-80dc-8006-2672b28243f6-c6483b3d-a634-8074-8006-2671d4518010" class="strokes"><g class="inner-stroke-shape"><defs><clipPath id="inner-stroke-render-5-c6483b3d-a634-8074-8006-2671d4518010-0"><use href="#stroke-shape-render-5-c6483b3d-a634-8074-8006-2671d4518010-0"/></clipPath><path d="M115.710,128.316L105.338,128.316L97.950,115.822L74.631,115.822L78.698,108.790L93.815,108.790L82.833,90.221L60.463,128.316L50.634,128.316L78.969,80.799C79.121,80.544,79.285,80.296,79.460,80.056C80.397,78.782,81.566,78.000,83.172,78.000C83.211,78.000,83.249,78.001,83.288,78.002C85.120,78.045,86.311,79.128,87.307,80.799L115.710,128.316ZZ" id="stroke-shape-render-5-c6483b3d-a634-8074-8006-2671d4518010-0" style="fill: none; stroke-width: 1.89; stroke: rgb(34, 228, 92); stroke-opacity: 1;"/></defs><use href="#stroke-shape-render-5-c6483b3d-a634-8074-8006-2671d4518010-0" clip-path="url('#inner-stroke-render-5-c6483b3d-a634-8074-8006-2671d4518010-0')"/></g></g></g><g id="shape-c6483b3d-a634-8074-8006-2671d451f741"><g class="fills" id="fills-c6483b3d-a634-8074-8006-2671d451f741"><path d="M175.498,128.316L164.042,128.316L160.653,125.380C159.357,126.084,157.999,126.667,156.596,127.120C154.117,127.917,151.529,128.321,148.925,128.316L136.927,128.316C128.542,128.316,121.490,124.260,117.261,117.832C114.419,113.414,112.936,108.250,112.998,102.987C112.998,88.377,123.166,78.683,136.927,78.683L148.925,78.683C163.161,78.683,173.058,88.582,173.058,102.987C173.063,105.279,172.794,107.564,172.257,109.791C171.258,114.022,169.173,117.915,166.211,121.079L175.498,128.316ZZM148.925,119.645C149.042,119.646,149.158,119.644,149.274,119.642C150.597,119.610,151.913,119.428,153.196,119.099L138.961,107.835L150.349,107.835L159.500,115.617C162.551,112.682,164.449,108.381,164.449,103.397C164.449,97.549,161.931,92.742,157.824,89.960C155.184,88.214,152.084,87.306,148.925,87.353L136.927,87.353C136.745,87.353,136.563,87.356,136.381,87.362C130.775,87.538,126.159,90.421,123.651,94.995C122.273,97.576,121.570,100.467,121.607,103.397C121.607,108.586,123.589,113.017,126.869,115.936C129.653,118.379,133.235,119.700,136.927,119.645L148.925,119.645ZZ" font-size="12" style="fill: rgb(34, 228, 92); fill-opacity: 1;"/></g><g font-size="12" id="strokes-fc78a4f0-0959-80dc-8006-2672b282ef51-c6483b3d-a634-8074-8006-2671d451f741" class="strokes"><g class="inner-stroke-shape"><defs><clipPath id="inner-stroke-render-6-c6483b3d-a634-8074-8006-2671d451f741-0"><use href="#stroke-shape-render-6-c6483b3d-a634-8074-8006-2671d451f741-0"/></clipPath><path d="M175.498,128.316L164.042,128.316L160.653,125.380C159.357,126.084,157.999,126.667,156.596,127.120C154.117,127.917,151.529,128.321,148.925,128.316L136.927,128.316C128.542,128.316,121.490,124.260,117.261,117.832C114.419,113.414,112.936,108.250,112.998,102.987C112.998,88.377,123.166,78.683,136.927,78.683L148.925,78.683C163.161,78.683,173.058,88.582,173.058,102.987C173.063,105.279,172.794,107.564,172.257,109.791C171.258,114.022,169.173,117.915,166.211,121.079L175.498,128.316ZZM148.925,119.645C149.042,119.646,149.158,119.644,149.274,119.642C150.597,119.610,151.913,119.428,153.196,119.099L138.961,107.835L150.349,107.835L159.500,115.617C162.551,112.682,164.449,108.381,164.449,103.397C164.449,97.549,161.931,92.742,157.824,89.960C155.184,88.214,152.084,87.306,148.925,87.353L136.927,87.353C136.745,87.353,136.563,87.356,136.381,87.362C130.775,87.538,126.159,90.421,123.651,94.995C122.273,97.576,121.570,100.467,121.607,103.397C121.607,108.586,123.589,113.017,126.869,115.936C129.653,118.379,133.235,119.700,136.927,119.645L148.925,119.645ZZ" id="stroke-shape-render-6-c6483b3d-a634-8074-8006-2671d451f741-0" style="fill: none; stroke-width: 1.89; stroke: rgb(34, 228, 92); stroke-opacity: 1;"/></defs><use href="#stroke-shape-render-6-c6483b3d-a634-8074-8006-2671d451f741-0" clip-path="url('#inner-stroke-render-6-c6483b3d-a634-8074-8006-2671d451f741-0')"/></g></g></g><g id="shape-c6483b3d-a634-8074-8006-2671d451f742"><g class="fills" id="fills-c6483b3d-a634-8074-8006-2671d451f742"><path d="M203.291,128.316L194.682,128.316L194.682,87.353L175.973,87.353L175.973,78.683L222.000,78.683L222.000,87.353L203.291,87.353L203.291,128.316ZZ" font-size="12" style="fill: rgb(34, 228, 92); fill-opacity: 1;"/></g><g font-size="12" id="strokes-fc78a4f0-0959-80dc-8006-2672b2837735-c6483b3d-a634-8074-8006-2671d451f742" class="strokes"><g class="inner-stroke-shape"><defs><clipPath id="inner-stroke-render-7-c6483b3d-a634-8074-8006-2671d451f742-0"><use href="#stroke-shape-render-7-c6483b3d-a634-8074-8006-2671d451f742-0"/></clipPath><path d="M203.291,128.316L194.682,128.316L194.682,87.353L175.973,87.353L175.973,78.683L222.000,78.683L222.000,87.353L203.291,87.353L203.291,128.316ZZ" id="stroke-shape-render-7-c6483b3d-a634-8074-8006-2671d451f742-0" style="fill: none; stroke-width: 1.89; stroke: rgb(34, 228, 92); stroke-opacity: 1;"/></defs><use href="#stroke-shape-render-7-c6483b3d-a634-8074-8006-2671d451f742-0" clip-path="url('#inner-stroke-render-7-c6483b3d-a634-8074-8006-2671d451f742-0')"/></g></g></g></g></g></g></g></g></g></g><g id="shape-c6483b3d-a634-8074-8006-266f758c6984" version="1.0" width="1800" height="2700" rx="0" ry="0" style="fill: rgb(0, 0, 0);"><g id="shape-c6483b3d-a634-8074-8006-266f758d53ec" rx="0" ry="0" style="fill: rgb(0, 0, 0);"><g id="shape-c6483b3d-a634-8074-8006-266f75914dc4"><g class="fills" id="fills-c6483b3d-a634-8074-8006-266f75914dc4"><path d="M180.894,15.218C180.751,15.300,180.117,15.422,179.484,15.504C178.829,15.586,178.196,15.770,178.073,15.913C177.950,16.077,177.684,16.199,177.500,16.199C177.316,16.199,176.908,16.342,176.580,16.506C176.274,16.669,175.885,16.813,175.742,16.813C175.599,16.813,175.436,16.956,175.354,17.119C175.292,17.283,175.006,17.426,174.720,17.426C174.291,17.426,174.209,17.528,174.209,18.019C174.209,18.652,173.514,19.266,172.798,19.266C172.573,19.266,172.287,19.450,172.164,19.674C172.042,19.899,171.817,20.083,171.653,20.083C171.510,20.083,171.101,20.308,170.774,20.594C170.427,20.880,170.038,21.105,169.875,21.105C169.364,21.105,168.689,21.739,168.689,22.230C168.689,22.904,167.892,23.722,167.156,23.804C166.665,23.845,166.522,24.008,166.358,24.560C166.195,25.092,165.970,25.337,165.275,25.643C164.334,26.052,164.252,26.195,164.620,26.788C164.825,27.095,164.682,27.524,163.884,29.180C163.046,30.938,162.964,31.204,163.230,31.469C163.496,31.735,163.496,31.837,163.230,32.369C163.067,32.696,162.760,33.064,162.535,33.166C162.085,33.411,162.024,34.004,162.392,34.577C162.576,34.883,162.556,35.149,162.290,35.844C162.044,36.437,162.004,36.784,162.167,36.968C162.310,37.132,162.249,37.418,161.963,37.888C161.738,38.256,161.615,38.645,161.676,38.747C161.983,39.258,161.963,41.138,161.615,41.649C161.431,41.936,161.329,42.345,161.390,42.569C161.452,42.794,161.329,43.183,161.145,43.428C160.920,43.714,160.736,44.409,160.675,45.145C160.613,45.820,160.470,46.556,160.348,46.780C160.245,46.985,160.000,47.496,159.836,47.884C159.652,48.273,159.223,49.213,158.896,49.990C158.548,50.746,158.262,51.523,158.262,51.727C158.262,51.911,158.017,52.443,157.710,52.893C157.424,53.322,157.015,54.303,156.811,55.059C156.606,55.816,156.300,56.715,156.136,57.063C155.952,57.390,155.809,57.942,155.809,58.269C155.809,58.800,155.461,59.782,154.971,60.558C154.337,61.580,153.969,62.439,153.969,62.868C153.969,63.134,153.662,63.625,153.253,64.033C152.824,64.442,152.538,64.912,152.558,65.158C152.579,65.383,152.517,65.730,152.436,65.955C152.231,66.446,152.558,66.977,153.131,67.059C153.356,67.100,153.560,67.263,153.560,67.406C153.560,67.611,153.253,67.693,152.374,67.672C151.086,67.652,150.289,67.958,150.289,68.469C150.289,68.878,151.781,70.370,152.211,70.370C152.395,70.370,152.538,70.207,152.538,69.962C152.538,69.737,152.456,69.553,152.354,69.553C152.272,69.553,151.945,69.348,151.638,69.123C151.148,68.735,151.107,68.653,151.393,68.347C151.618,68.101,151.945,68.040,152.538,68.081C153.315,68.163,153.356,68.204,153.356,68.858C153.356,69.246,153.458,69.553,153.560,69.553C153.867,69.553,153.805,70.166,153.478,70.289C153.315,70.350,153.151,70.657,153.090,70.984C152.967,71.556,152.027,72.619,151.618,72.619C151.495,72.619,151.311,72.537,151.209,72.435C151.086,72.353,150.759,72.210,150.452,72.128C149.962,72.026,149.880,72.067,149.757,72.537C149.676,72.823,149.716,73.151,149.860,73.294C150.207,73.641,150.125,74.050,149.573,74.786L149.062,75.461L149.676,75.890C150.412,76.421,150.452,76.851,149.798,77.137C149.410,77.321,149.205,77.280,148.776,77.014C148.428,76.789,147.979,76.687,147.508,76.748C146.916,76.810,146.732,76.769,146.650,76.462C146.527,75.931,146.220,76.012,145.566,76.728C145.096,77.259,144.932,77.341,144.687,77.137C144.462,76.953,144.196,76.932,143.542,77.116C143.072,77.239,142.643,77.321,142.602,77.280C142.561,77.239,142.949,76.748,143.481,76.217C144.340,75.317,144.380,75.215,144.074,74.909C143.767,74.581,143.706,74.602,143.215,75.236C142.643,75.951,142.316,76.074,142.316,75.563C142.316,75.379,142.172,75.113,141.988,74.990C141.580,74.684,141.825,74.050,142.336,74.050C142.745,74.050,142.868,74.357,142.520,74.561C142.213,74.745,142.275,75.072,142.622,75.072C142.786,75.072,142.929,74.970,142.929,74.868C142.929,74.745,143.052,74.663,143.215,74.663C143.604,74.663,143.747,74.214,143.767,72.967L143.788,71.904L143.972,72.803C144.258,74.234,144.605,74.377,144.810,73.171C144.912,72.599,145.260,72.721,145.505,73.437L145.709,74.070L145.955,73.539C146.384,72.599,146.282,72.047,145.648,71.965C145.198,71.924,145.076,71.801,145.076,71.393C145.076,70.963,145.178,70.861,145.771,70.820C146.445,70.759,146.445,70.738,146.323,69.941C146.220,69.369,146.261,69.144,146.466,69.144C146.609,69.144,146.875,68.960,147.079,68.735C147.263,68.510,147.529,68.326,147.672,68.326C147.815,68.306,148.224,68.081,148.551,67.815C149.124,67.345,149.124,67.304,148.715,67.304C148.469,67.304,148.224,67.386,148.142,67.488C148.081,67.611,147.611,67.897,147.079,68.163C145.525,68.940,142.970,71.393,141.804,73.191C141.252,74.091,139.903,76.135,138.820,77.750C137.756,79.365,136.755,81.021,136.612,81.409C136.121,82.820,135.324,85.825,135.180,86.949C135.078,87.562,134.894,88.298,134.751,88.543C134.628,88.809,134.547,89.259,134.608,89.545C134.669,89.831,134.608,90.240,134.465,90.444C134.281,90.751,134.322,90.956,134.588,91.426C134.915,92.018,134.915,92.039,134.567,92.039C134.056,92.039,133.790,92.407,133.627,93.409C133.545,93.981,133.259,94.492,132.788,94.983C132.134,95.657,132.114,95.698,132.564,95.759C132.952,95.821,133.013,95.964,133.054,96.741C133.218,100.829,133.238,101.790,133.156,102.015C133.116,102.158,132.809,102.403,132.482,102.567C131.746,102.955,131.725,103.241,132.461,103.323L133.013,103.384L133.054,110.846C133.075,117.878,133.136,118.736,133.729,121.986C134.056,123.724,134.690,124.664,136.121,125.462C137.000,125.973,137.307,125.686,137.613,124.031C137.900,122.538,138.145,122.252,138.615,122.825C138.799,123.029,139.208,123.315,139.556,123.417C139.964,123.560,140.230,123.826,140.353,124.235C140.455,124.583,140.639,125.114,140.782,125.462C141.825,127.915,141.804,127.792,141.743,130.695C141.702,132.310,141.764,133.822,141.886,134.313C142.029,134.783,142.193,136.194,142.295,137.481C142.397,138.749,142.581,139.996,142.704,140.241C142.827,140.466,142.929,141.100,142.929,141.611C142.929,142.142,143.052,142.858,143.215,143.205C143.522,143.921,144.074,146.251,144.237,147.559C144.299,148.029,144.585,148.908,144.871,149.501C145.157,150.115,145.382,150.769,145.382,150.973C145.382,151.178,145.668,151.893,145.996,152.588C146.343,153.263,146.609,153.937,146.609,154.080C146.609,154.223,146.895,155.021,147.243,155.838C147.590,156.676,148.020,157.719,148.183,158.169C148.347,158.618,148.612,159.293,148.776,159.661C148.940,160.029,149.062,160.540,149.062,160.806C149.062,161.071,149.205,161.399,149.369,161.542C149.532,161.685,149.676,161.971,149.676,162.155C149.676,162.666,149.880,163.177,150.105,163.177C150.452,163.177,150.309,161.766,149.941,161.582C149.737,161.460,149.655,161.255,149.757,161.031C149.880,160.703,149.941,160.724,150.371,161.153C150.636,161.419,150.984,161.746,151.148,161.889C151.597,162.298,151.924,162.727,152.129,163.218C152.252,163.484,152.538,164.015,152.763,164.403C153.008,164.792,153.417,165.528,153.703,166.039C153.969,166.550,154.378,167.224,154.603,167.572C154.807,167.899,155.093,168.431,155.216,168.737C155.441,169.289,155.809,169.514,155.809,169.105C155.809,168.819,157.076,167.061,157.281,167.061C157.383,167.061,157.404,166.734,157.322,166.345C157.199,165.671,157.220,165.630,157.731,165.630C158.364,165.630,158.364,165.569,157.915,164.792C157.588,164.240,157.588,164.179,157.915,163.852C158.221,163.545,158.303,163.545,158.794,163.811C159.100,163.954,159.428,164.342,159.550,164.669C159.796,165.405,160.082,165.303,160.409,164.322C160.756,163.320,160.900,163.197,161.206,163.647C161.349,163.831,161.574,163.995,161.697,163.995C161.820,163.995,161.942,164.117,162.004,164.240C162.044,164.403,162.167,164.424,162.269,164.322C162.372,164.220,162.351,164.097,162.208,164.056C161.840,163.933,161.881,163.381,162.228,163.381C162.392,163.381,162.658,163.504,162.801,163.647C164.191,164.955,165.009,165.344,165.009,164.649C165.009,163.913,165.295,163.995,166.174,164.955C167.380,166.264,168.014,167.388,168.178,168.492C168.260,169.003,168.484,169.637,168.668,169.923C168.873,170.209,169.220,170.822,169.466,171.313L169.916,172.192L169.302,173.112C168.975,173.623,168.689,174.113,168.689,174.195C168.689,174.277,168.444,174.727,168.116,175.156C167.810,175.585,167.442,176.178,167.319,176.464C167.176,176.750,166.788,177.425,166.460,177.997C166.113,178.549,165.704,179.285,165.540,179.633C165.377,179.960,164.948,180.696,164.620,181.268C164.273,181.820,163.762,182.740,163.476,183.312C163.169,183.864,162.433,184.989,161.820,185.806C161.206,186.624,160.716,187.339,160.716,187.401C160.716,187.687,159.632,188.934,159.264,189.036C159.039,189.118,158.876,189.343,158.876,189.629C158.876,189.895,158.508,190.447,157.956,190.978C157.444,191.469,157.036,191.980,157.036,192.102C157.036,192.245,156.627,192.756,156.116,193.268C155.604,193.779,155.196,194.412,155.196,194.637C155.196,195.455,154.092,195.884,151.986,195.884C150.289,195.884,149.962,195.823,148.919,195.291C146.691,194.167,144.789,193.738,144.421,194.290C144.340,194.433,144.074,195.066,143.849,195.680C143.440,196.804,143.420,196.804,142.622,196.784C140.823,196.702,138.165,197.152,137.388,197.642C136.284,198.337,135.569,199.461,135.569,200.524C135.569,201.485,135.876,201.690,136.182,200.913C136.693,199.564,139.004,198.255,139.903,198.807C140.210,199.012,140.271,199.257,140.230,200.075L140.169,201.097L138.942,201.363C138.268,201.506,137.307,201.771,136.796,201.955C136.284,202.119,135.508,202.282,135.058,202.323C134.056,202.385,133.238,202.610,131.398,203.325C130.642,203.611,129.783,203.856,129.497,203.856C128.884,203.856,126.594,204.592,125.244,205.226C124.672,205.471,123.854,205.696,123.384,205.696C122.934,205.696,121.789,205.962,120.849,206.310C119.888,206.637,118.784,206.923,118.375,206.923C117.946,206.923,116.944,207.209,116.126,207.536C115.288,207.884,113.734,208.354,112.671,208.579C111.608,208.803,110.647,209.069,110.524,209.171C110.422,209.253,109.768,209.376,109.093,209.437C108.419,209.478,107.233,209.764,106.436,210.071C105.659,210.357,104.759,210.602,104.473,210.602C104.166,210.602,103.655,210.745,103.348,210.909C103.021,211.072,102.469,211.216,102.122,211.216C101.774,211.216,101.140,211.359,100.752,211.522C100.343,211.686,99.709,211.829,99.341,211.829C98.973,211.829,98.176,212.115,97.563,212.442C96.888,212.810,96.152,213.055,95.702,213.055C95.293,213.055,94.496,213.198,93.944,213.362C93.392,213.526,92.676,213.669,92.329,213.669C92.002,213.669,91.532,213.812,91.327,213.975C91.102,214.139,90.591,214.282,90.182,214.282C89.773,214.282,89.262,214.425,89.037,214.589C88.833,214.752,88.363,214.895,88.015,214.895C87.668,214.895,87.259,215.018,87.136,215.181C87.013,215.345,86.604,215.508,86.236,215.570C85.868,215.631,85.173,215.774,84.662,215.917C84.151,216.040,83.313,216.142,82.761,216.142C81.718,216.142,78.365,216.755,77.445,217.123C77.118,217.246,76.546,217.348,76.157,217.348C75.769,217.348,75.115,217.491,74.706,217.655C74.317,217.818,73.459,217.961,72.825,217.961C72.150,217.982,71.516,218.105,71.292,218.268C71.067,218.452,70.453,218.575,69.901,218.575C69.349,218.575,68.695,218.718,68.450,218.881C68.143,219.086,67.284,219.208,65.853,219.249C64.034,219.311,63.584,219.392,62.889,219.801C62.460,220.087,61.621,220.374,61.049,220.435C60.497,220.517,59.291,220.701,58.391,220.823C57.348,220.987,55.529,221.028,53.382,220.946C51.522,220.885,44.305,220.701,37.333,220.517C30.362,220.353,24.249,220.128,23.738,220.006C23.227,219.903,22.102,219.822,21.244,219.801C20.385,219.801,19.608,219.699,19.547,219.597C19.485,219.474,19.383,206.759,19.342,191.326C19.301,175.871,19.220,162.870,19.138,162.441C18.913,161.153,18.443,160.417,17.584,160.049C16.909,159.763,15.989,159.702,11.512,159.702C6.626,159.681,3.007,159.518,0.186,159.170L-1.000,159.027L-1.000,231.024L-1.000,303.000L137.000,303.000L275.000,303.000L275.000,270.293L275.000,237.586L272.812,237.565C271.586,237.545,270.052,237.545,269.398,237.565C268.724,237.586,267.252,237.443,266.086,237.279C264.819,237.095,262.508,236.972,260.157,236.972C257.500,236.952,255.905,236.870,255.067,236.666C254.208,236.461,252.634,236.359,249.915,236.359C247.768,236.359,245.764,236.277,245.499,236.175C245.212,236.073,242.943,235.889,240.428,235.766C235.910,235.542,234.295,235.398,229.511,234.806C228.162,234.642,226.526,234.519,225.892,234.519C225.238,234.519,224.707,234.438,224.707,234.335C224.707,233.886,225.361,232.659,226.056,231.842C227.671,229.920,228.550,229.552,232.578,229.184C233.825,229.061,235.665,228.755,236.667,228.469C237.689,228.203,239.161,227.917,239.979,227.835C242.698,227.610,242.882,227.201,242.923,220.619C242.923,218.432,243.004,215.713,243.107,214.589C243.188,213.464,243.188,212.033,243.127,211.420C243.045,210.807,243.066,210.050,243.168,209.744C243.270,209.396,243.270,208.926,243.127,208.517C242.984,208.108,242.964,207.597,243.066,207.229C243.168,206.882,243.168,206.330,243.066,206.003C242.943,205.553,243.004,205.206,243.250,204.735C243.556,204.143,243.577,203.959,243.311,203.100C243.168,202.548,243.045,201.874,243.066,201.547C243.148,200.238,243.148,199.748,243.045,197.356C242.984,195.884,242.841,194.739,242.698,194.576C242.514,194.331,242.555,194.147,242.820,193.717C243.188,193.165,243.188,193.165,242.698,192.838C242.412,192.654,242.003,192.327,241.778,192.082C241.553,191.857,240.960,191.550,240.449,191.407C239.938,191.264,239.202,191.080,238.813,190.958C238.425,190.855,237.648,190.835,237.076,190.896C236.503,190.958,235.644,190.896,235.133,190.753C233.968,190.447,230.820,190.324,230.513,190.590C230.370,190.712,230.104,190.610,229.756,190.283C229.286,189.833,229.020,189.792,227.467,189.772C226.301,189.772,225.565,189.670,225.300,189.465C225.075,189.322,224.727,189.220,224.523,189.281C224.339,189.322,224.052,189.240,223.909,189.056C223.541,188.627,222.580,185.990,221.742,183.108C221.538,182.433,221.272,181.554,221.129,181.166C220.475,179.326,220.209,178.365,220.209,177.895C220.209,177.609,220.086,177.200,219.923,176.975C219.780,176.750,219.596,176.280,219.534,175.953C219.391,175.197,218.962,173.745,218.308,171.865C217.244,168.758,217.265,168.901,217.817,167.633C218.103,167.000,218.389,166.223,218.471,165.875L218.594,165.262L219.105,165.732C219.371,165.978,219.596,166.284,219.596,166.407C219.596,166.734,219.964,166.897,220.413,166.754C220.638,166.673,220.822,166.448,220.822,166.243C220.822,165.671,221.047,165.201,221.252,165.344C221.354,165.405,221.436,165.671,221.436,165.957C221.436,166.345,221.538,166.448,221.967,166.448C222.478,166.448,222.499,166.489,222.376,167.286C222.233,168.144,222.233,168.144,222.703,167.838C222.948,167.674,223.214,167.265,223.296,166.938C223.357,166.611,223.582,165.978,223.766,165.548C224.134,164.669,224.420,164.731,224.543,165.712C224.645,166.693,225.075,166.591,225.218,165.548C225.300,165.037,225.484,164.506,225.647,164.383C225.811,164.260,225.933,163.995,225.913,163.811C225.913,163.606,225.872,163.586,225.790,163.729C225.749,163.872,225.606,163.995,225.484,163.995C225.340,163.995,225.320,163.647,225.402,163.013C225.688,161.071,225.892,160.908,226.485,162.094C226.731,162.605,226.996,162.870,227.262,162.870C227.671,162.870,227.671,162.870,228.121,160.622C228.346,159.477,228.673,159.681,228.796,161.031C228.857,161.644,229.000,162.155,229.102,162.155C229.225,162.155,229.368,161.501,229.450,160.683C229.654,158.332,230.043,155.981,230.349,155.143C230.513,154.734,230.636,153.958,230.636,153.447C230.636,152.936,230.779,152.241,230.963,151.913C231.208,151.402,231.228,151.157,231.044,150.646C230.901,150.237,230.758,148.111,230.717,145.188C230.656,141.836,230.533,140.098,230.349,139.464C230.063,138.606,229.818,137.277,229.409,134.558C229.123,132.759,228.775,131.247,228.428,130.429C228.203,129.836,228.141,129.162,228.244,127.465C228.305,126.238,228.448,124.991,228.571,124.685C228.693,124.358,228.796,123.376,228.796,122.477C228.796,120.453,229.164,118.000,229.532,117.612C229.777,117.346,229.859,117.428,230.124,118.082C230.308,118.511,230.513,119.329,230.574,119.922C230.636,120.494,230.881,121.271,231.106,121.639L231.515,122.334L231.985,121.741C232.394,121.230,232.455,120.944,232.476,119.329C232.476,117.612,232.292,116.304,231.535,113.155C231.372,112.460,231.249,110.846,231.228,109.476C231.228,105.776,230.717,100.502,230.268,99.091C230.145,98.744,229.961,98.151,229.818,97.763C229.675,97.374,229.491,96.720,229.409,96.332C229.245,95.637,228.959,94.758,228.550,93.674C228.428,93.388,228.203,92.652,228.039,92.039C227.876,91.426,227.569,90.506,227.324,89.995C226.772,88.789,226.465,88.053,226.036,86.928C225.852,86.417,225.565,85.743,225.402,85.436C225.238,85.109,225.116,84.700,225.116,84.516C225.116,84.332,224.972,83.985,224.809,83.780C224.645,83.556,224.502,83.188,224.502,82.963C224.502,82.717,224.359,82.349,224.196,82.145C224.032,81.920,223.889,81.552,223.889,81.307C223.889,81.062,223.766,80.469,223.603,79.958C223.439,79.467,223.112,78.425,222.887,77.648C222.335,75.869,220.924,72.946,220.168,71.985C219.861,71.577,219.596,71.147,219.596,71.065C219.596,70.493,213.748,65.260,213.115,65.260C212.767,65.260,211.438,63.809,211.029,62.950C210.804,62.480,210.334,61.621,209.987,61.069C209.660,60.497,209.292,59.863,209.169,59.638C209.067,59.414,208.883,59.086,208.760,58.923C208.249,58.146,207.329,55.857,207.329,55.386C207.329,55.100,207.247,54.814,207.145,54.753C207.022,54.671,207.043,54.405,207.165,54.058C207.349,53.588,207.288,53.322,206.736,52.300C205.959,50.848,205.939,50.542,206.613,50.542C206.940,50.542,207.124,50.419,207.124,50.235C207.124,50.072,207.043,49.928,206.920,49.928C206.818,49.928,206.716,49.540,206.716,49.090C206.716,48.518,206.593,48.130,206.368,47.946C206.102,47.741,206.061,47.619,206.266,47.557C206.900,47.271,206.961,46.658,206.409,45.717C206.061,45.145,205.918,44.654,206.000,44.409C206.082,44.143,205.959,43.714,205.693,43.285C205.448,42.896,205.223,42.161,205.203,41.629C205.162,41.077,204.957,40.443,204.692,40.116C204.467,39.789,204.262,39.380,204.262,39.217C204.262,39.053,204.160,38.849,204.058,38.788C203.915,38.706,203.976,38.440,204.201,38.052C204.528,37.479,204.528,37.418,204.201,36.784C204.017,36.437,203.853,35.946,203.853,35.721C203.853,35.496,203.792,34.965,203.731,34.536C203.649,34.106,203.690,33.657,203.812,33.514C203.935,33.370,204.017,32.941,204.017,32.553C203.996,31.919,204.180,31.674,205.816,30.141C206.818,29.200,207.840,28.342,208.106,28.260C208.658,28.035,208.678,27.667,208.208,26.318C207.533,24.315,205.366,21.800,204.262,21.719C204.099,21.719,203.772,21.575,203.567,21.412C203.342,21.248,202.974,21.105,202.729,21.105C202.484,21.105,201.686,20.492,200.787,19.613C199.948,18.775,198.926,17.937,198.538,17.712C198.149,17.508,197.556,17.119,197.250,16.853C196.923,16.608,196.473,16.404,196.228,16.404C195.982,16.383,195.410,16.220,194.960,15.995C194.510,15.770,193.876,15.606,193.570,15.586C193.263,15.586,192.670,15.443,192.261,15.279C191.648,15.014,190.605,14.973,186.312,15.014C183.470,15.054,181.017,15.136,180.894,15.218ZZM179.116,17.119C178.870,17.426,178.502,17.364,178.502,16.996C178.502,16.894,178.707,16.813,178.932,16.813C179.300,16.813,179.320,16.853,179.116,17.119ZZM172.328,21.535C171.960,21.780,171.142,21.759,171.142,21.535C171.142,21.310,171.919,21.146,172.328,21.269C172.553,21.351,172.553,21.392,172.328,21.535ZZM202.156,21.535C203.465,21.862,203.751,21.984,204.794,22.741C205.509,23.252,206.491,25.500,206.164,25.827C206.061,25.909,205.530,25.766,204.937,25.500C204.344,25.214,203.158,24.908,202.279,24.805C200.766,24.621,200.623,24.642,199.356,25.194C198.620,25.500,197.700,25.827,197.311,25.909C196.330,26.114,195.144,26.747,195.001,27.136C194.919,27.299,194.653,27.442,194.367,27.442C194.101,27.442,193.836,27.585,193.754,27.749C193.692,27.912,193.529,28.056,193.386,28.056C193.243,28.056,191.975,28.485,190.564,28.975C189.174,29.487,187.907,29.854,187.764,29.814C187.334,29.650,187.457,29.282,187.988,29.078C188.254,28.975,188.540,28.791,188.622,28.689C188.684,28.567,189.011,28.464,189.317,28.464C189.644,28.464,190.012,28.321,190.156,28.158C190.299,27.994,190.585,27.851,190.810,27.851C191.035,27.851,191.464,27.729,191.750,27.565C192.057,27.422,192.650,27.136,193.059,26.952C194.837,26.175,195.348,25.868,196.350,24.969C196.943,24.458,197.638,23.579,197.904,23.027C198.660,21.453,198.865,21.310,200.092,21.310C200.705,21.310,201.625,21.412,202.156,21.535ZZM197.393,21.923C197.638,22.168,197.332,22.557,196.943,22.516C196.268,22.454,196.084,22.536,196.084,22.945C196.084,23.620,195.778,23.395,195.737,22.679C195.676,21.637,195.778,21.514,196.534,21.637C196.902,21.719,197.291,21.841,197.393,21.923ZZM192.691,22.843C192.977,23.252,192.997,23.252,193.488,22.782C194.101,22.189,194.715,22.352,194.531,23.068C194.428,23.477,194.490,23.558,194.837,23.558C195.083,23.558,195.267,23.661,195.267,23.783C195.267,23.906,195.021,23.988,194.715,23.967C193.795,23.906,193.631,23.947,193.631,24.274C193.631,24.478,193.427,24.580,193.079,24.580L192.507,24.580L192.997,24.192C193.263,23.988,193.427,23.722,193.345,23.579C193.140,23.272,192.834,23.293,192.118,23.661C191.444,24.029,190.851,24.049,190.667,23.742C190.585,23.640,190.299,23.456,190.033,23.354C188.949,22.925,189.747,22.393,191.403,22.414C192.139,22.434,192.466,22.536,192.691,22.843ZZM178.400,25.316C178.400,25.562,178.236,25.725,177.950,25.766C177.439,25.848,177.316,25.439,177.725,25.030C178.073,24.683,178.400,24.826,178.400,25.316ZZM171.081,31.367C170.774,31.551,170.038,31.572,169.854,31.388C169.772,31.326,169.956,31.101,170.284,30.897C170.774,30.590,170.856,30.590,171.081,30.877C171.285,31.142,171.285,31.224,171.081,31.367ZZM186.537,31.347C186.292,31.837,186.169,31.940,186.108,31.694C186.046,31.388,186.660,30.427,186.823,30.590C186.864,30.611,186.721,30.958,186.537,31.347ZZM169.302,33.125C168.750,33.207,168.607,33.084,168.771,32.635C168.893,32.328,168.934,32.328,169.323,32.675L169.752,33.064L169.302,33.125ZZM168.791,34.393C168.730,34.495,168.525,34.597,168.362,34.597C168.198,34.597,168.076,34.495,168.076,34.393C168.076,34.270,168.260,34.188,168.505,34.188C168.730,34.188,168.852,34.270,168.791,34.393ZZM164.396,45.636C164.396,45.799,162.085,48.191,161.268,48.886C160.961,49.131,160.940,49.090,161.063,48.477C161.145,48.048,161.472,47.537,161.922,47.148C162.331,46.780,162.944,46.249,163.271,45.963C163.884,45.431,164.396,45.268,164.396,45.636ZZM163.782,47.905C163.782,48.007,163.639,48.089,163.476,48.089C163.169,48.089,163.067,47.843,163.292,47.619C163.455,47.455,163.782,47.639,163.782,47.905ZZM160.532,52.852C160.266,53.117,160.000,52.913,160.204,52.606C160.266,52.484,160.429,52.443,160.552,52.504C160.675,52.586,160.675,52.709,160.532,52.852ZZM159.857,53.649C159.489,54.180,159.080,54.364,159.080,53.976C159.080,53.608,159.489,53.199,159.857,53.199C160.102,53.199,160.102,53.261,159.857,53.649ZZM163.578,58.678C163.578,58.780,163.353,59.066,163.067,59.332C162.780,59.598,162.556,59.904,162.556,60.027C162.556,60.272,161.329,61.028,161.186,60.885C161.022,60.742,163.026,58.514,163.332,58.514C163.455,58.514,163.578,58.596,163.578,58.678ZZM165.724,60.354C165.786,60.456,166.031,60.558,166.256,60.558C167.115,60.558,166.501,61.294,165.459,61.499C164.927,61.601,164.804,61.560,164.804,61.294C164.804,60.497,165.418,59.863,165.724,60.354ZZM160.307,62.010C160.307,62.439,158.998,64.033,158.651,64.033C158.467,64.033,158.160,64.258,157.976,64.544C157.792,64.831,157.547,65.056,157.424,65.056C157.281,65.056,157.281,64.933,157.465,64.728C157.690,64.442,157.690,64.361,157.383,64.136C156.974,63.849,157.260,63.502,157.751,63.686C157.894,63.747,158.180,63.604,158.405,63.379C158.671,63.073,158.712,62.930,158.528,62.868C158.078,62.705,158.242,62.419,158.937,62.112C159.734,61.744,160.307,61.703,160.307,62.010ZZM164.314,62.909C164.028,63.298,163.373,63.890,162.862,64.258C162.351,64.626,161.922,65.076,161.922,65.240C161.901,65.423,161.881,65.751,161.860,65.975C161.840,66.507,160.388,67.222,160.020,66.895C159.632,66.589,158.487,67.120,157.874,67.897C157.301,68.592,157.036,68.551,157.036,67.774C157.036,67.284,157.015,67.263,156.688,67.549C156.484,67.713,155.850,68.204,155.257,68.592L154.194,69.328L153.969,68.612C153.826,68.224,153.764,67.877,153.805,67.836C153.826,67.815,154.357,67.590,154.930,67.325C155.523,67.038,156.197,66.630,156.443,66.364C156.790,65.996,157.015,65.935,157.690,66.016C158.385,66.119,158.569,66.057,158.998,65.587C159.284,65.301,159.693,65.056,159.898,65.056C160.123,65.056,160.307,64.933,160.307,64.769C160.307,64.585,160.450,64.524,160.675,64.585C160.940,64.647,161.288,64.422,161.738,63.952C162.126,63.563,162.760,63.093,163.148,62.930C163.557,62.766,164.068,62.459,164.293,62.235C164.907,61.642,164.927,62.112,164.314,62.909ZZM165.377,64.361C165.193,64.544,164.948,64.626,164.804,64.544C164.620,64.422,164.682,64.299,165.029,64.115C165.622,63.809,165.806,63.931,165.377,64.361ZZM156.974,64.320C157.199,64.524,155.932,64.872,155.380,64.749C154.889,64.647,154.766,64.708,154.480,65.240C154.316,65.587,154.030,65.873,153.867,65.873C153.458,65.873,153.478,65.342,153.867,65.178C154.030,65.117,154.173,64.851,154.173,64.606C154.173,64.156,154.235,64.136,155.523,64.177C156.259,64.197,156.913,64.258,156.974,64.320ZZM167.176,66.241C166.951,66.446,166.890,66.180,167.033,65.464L167.156,64.749L167.217,65.423C167.258,65.812,167.237,66.159,167.176,66.241ZZM165.009,66.609C165.009,66.957,164.539,67.509,164.232,67.509C164.048,67.509,163.660,67.836,163.394,68.224C163.128,68.612,162.842,68.940,162.740,68.940C162.637,68.940,162.106,69.205,161.574,69.553C161.022,69.880,160.511,70.166,160.429,70.166C160.082,70.166,160.409,69.635,161.247,68.817C161.942,68.163,162.310,67.938,162.596,68.040C162.964,68.142,163.271,67.917,164.212,66.732C164.416,66.486,165.009,66.384,165.009,66.609ZZM173.596,178.611C173.596,181.616,174.229,191.244,174.434,191.469C174.536,191.571,174.700,191.571,174.863,191.469C175.006,191.346,175.476,191.142,175.926,190.998C176.621,190.753,176.764,190.774,177.235,191.121C177.971,191.673,178.012,191.959,177.378,192.205C176.601,192.511,175.844,192.450,175.722,192.102C175.579,191.755,174.904,191.694,174.700,192.021C174.638,192.143,174.352,192.184,174.107,192.123C173.636,192.000,172.369,192.184,170.529,192.654C170.018,192.777,169.404,193.104,169.180,193.349C168.852,193.676,168.403,193.840,167.442,193.942C165.500,194.147,164.907,194.044,164.948,193.492C164.968,193.268,164.866,192.940,164.702,192.818C164.314,192.491,164.293,190.998,164.682,190.119C164.845,189.752,165.132,189.036,165.336,188.525C165.540,188.014,165.827,187.462,165.970,187.278C166.113,187.115,166.236,186.869,166.236,186.767C166.236,186.031,171.592,177.548,172.921,176.198C173.452,175.647,173.596,176.096,173.596,178.611ZZM211.418,183.067C211.418,183.435,211.377,183.455,211.213,183.210C210.948,182.801,210.948,182.331,211.213,182.495C211.336,182.556,211.418,182.822,211.418,183.067ZZM211.438,184.498C211.418,184.743,211.132,184.682,211.050,184.416C210.988,184.294,211.070,184.212,211.213,184.253C211.336,184.314,211.438,184.416,211.438,184.498ZZM182.182,188.832C182.182,188.995,181.283,189.302,181.099,189.200C180.812,189.036,181.180,188.729,181.692,188.729C181.957,188.729,182.182,188.770,182.182,188.832ZZM172.164,193.819C172.164,194.249,171.551,194.514,171.040,194.290C170.284,193.942,170.427,193.635,171.347,193.635C171.796,193.635,172.164,193.717,172.164,193.819ZZM162.412,195.577C162.331,195.884,161.268,195.823,161.165,195.516C161.104,195.312,161.268,195.250,161.758,195.312C162.147,195.353,162.433,195.455,162.412,195.577ZZM163.782,195.577C163.782,195.741,163.660,195.884,163.496,195.884C163.148,195.884,162.924,195.598,163.108,195.394C163.353,195.148,163.782,195.271,163.782,195.577ZZM145.382,196.600C145.382,197.213,145.096,197.397,144.769,197.029C144.605,196.804,144.585,196.620,144.769,196.293C145.055,195.782,145.382,195.945,145.382,196.600ZZM156.484,197.335C156.238,197.581,155.952,197.703,155.809,197.622C155.645,197.519,155.768,197.356,156.156,197.111C156.872,196.661,157.036,196.784,156.484,197.335ZZM154.582,198.051C154.582,198.317,154.439,198.358,153.948,198.255C153.601,198.194,153.069,198.112,152.763,198.092C152.313,198.071,153.090,197.908,154.337,197.765C154.460,197.744,154.582,197.867,154.582,198.051ZZM155.277,200.668C155.196,201.158,155.236,201.731,155.380,201.976C155.707,202.569,155.298,202.753,154.909,202.180C154.500,201.587,154.500,200.504,154.909,200.095C155.380,199.625,155.400,199.666,155.277,200.668ZZM155.543,203.938C155.870,204.633,155.809,205.287,155.400,205.287C155.277,205.287,155.155,205.165,155.114,205.022C155.073,204.899,154.950,204.490,154.848,204.122C154.480,203.018,155.032,202.875,155.543,203.938ZZM155.564,206.248C155.645,206.984,154.725,208.640,154.316,208.497C153.969,208.374,154.051,207.086,154.460,206.207C154.909,205.287,155.482,205.308,155.564,206.248ZZM180.179,215.345C179.913,215.611,179.647,215.181,179.831,214.732C179.954,214.405,179.974,214.405,180.179,214.752C180.322,215.018,180.322,215.202,180.179,215.345ZZM161.942,240.570C161.942,240.918,161.492,240.856,161.370,240.488C161.329,240.345,161.431,240.243,161.615,240.243C161.799,240.243,161.942,240.386,161.942,240.570ZZM164.375,241.449C164.600,241.592,164.559,241.715,164.212,242.063C163.782,242.492,163.169,242.451,163.169,241.960C163.169,241.817,163.332,241.592,163.537,241.490C163.966,241.224,164.028,241.224,164.375,241.449ZZ"/></g></g></g></g></g></g></g><g id="strokes-fc78a4f0-0959-80dc-8006-2672b287b0f2-c6483b3d-a634-8074-8006-266b560b3852" class="strokes"><g class="inner-stroke-shape" transform="matrix(1.000000, 0.000000, 0.000000, 1.000000, 0.000000, 0.000000)"><defs><clipPath id="inner-stroke-render-1-c6483b3d-a634-8074-8006-266b560b3852-0"><use href="#stroke-shape-render-1-c6483b3d-a634-8074-8006-266b560b3852-0"/></clipPath><rect width="222" height="258" class="frame-background" x="0" id="stroke-shape-render-1-c6483b3d-a634-8074-8006-266b560b3852-0" style="fill: none; stroke-width: 8; stroke: rgb(0, 0, 0); stroke-opacity: 1;" ry="0" rx="0" y="0"/></defs><use href="#stroke-shape-render-1-c6483b3d-a634-8074-8006-266b560b3852-0" clip-path="url('#inner-stroke-render-1-c6483b3d-a634-8074-8006-266b560b3852-0')"/></g></g></g></g></g></svg>